<svg width="87" height="87" viewBox="0 0 87 87" fill="none" xmlns="http://www.w3.org/2000/svg">
<rect width="87" height="87" rx="17" fill="#0088CC"/>
<path d="M32.3281 18.7188C29.4387 18.7188 26.6141 19.5756 24.2116 21.1809C21.8091 22.7862 19.9366 25.0678 18.8308 27.7374C17.7251 30.4069 17.4358 33.3443 17.9995 36.1783C18.5632 39.0122 19.9546 41.6154 21.9977 43.6585C24.0409 45.7017 26.644 47.0931 29.478 47.6568C32.3119 48.2205 35.2494 47.9312 37.9189 46.8254C40.5884 45.7197 42.8701 43.8472 44.4754 41.4447C46.0807 39.0422 46.9375 36.2176 46.9375 33.3281C46.9332 29.4548 45.3926 25.7414 42.6537 23.0025C39.9149 20.2637 36.2015 18.7231 32.3281 18.7188ZM39.5005 44.0325L38.2286 41.8299L36.7402 42.6893L38.0069 44.8833C36.5009 45.6263 34.8632 46.0652 33.1875 46.1749V43.6406H31.4688V46.1749C29.7932 46.066 28.1556 45.628 26.6494 44.8859L27.9161 42.6919L26.4277 41.8325L25.1558 44.0351C23.7609 43.0974 22.5614 41.8979 21.6238 40.503L23.8263 39.2312L22.967 37.7427L20.773 39.0069C20.03 37.5009 19.5911 35.8632 19.4813 34.1875H22.0156V32.4688H19.4813C19.5903 30.7932 20.0283 29.1556 20.7704 27.6494L22.9644 28.9161L23.8238 27.4277L21.6212 26.1558C22.5588 24.7609 23.7584 23.5614 25.1532 22.6238L26.4251 24.8263L27.9135 23.967L26.6494 21.773C28.1554 21.03 29.793 20.5911 31.4688 20.4813V23.0156H33.1875V20.4813C34.863 20.5902 36.5007 21.0283 38.0069 21.7704L36.7402 23.967L38.2286 24.8263L39.5005 22.6238C40.8953 23.5614 42.0949 24.7609 43.0325 26.1558L40.8299 27.4277L41.6893 28.9161L43.8833 27.6494C44.6263 29.1554 45.0652 30.793 45.1749 32.4688H42.6406V34.1875H45.1749C45.066 35.863 44.628 37.5007 43.8859 39.0069L41.6919 37.7402L40.8325 39.2286L43.0351 40.5005C42.0967 41.8956 40.8962 43.0951 39.5005 44.0325Z" fill="white"/>
<path d="M31.4688 32.4688H28.8907V34.1875H32.3282C32.5561 34.1875 32.7747 34.097 32.9359 33.9358C33.097 33.7746 33.1876 33.556 33.1876 33.3281V26.4531H31.4688V32.4688Z" fill="white"/>
<path d="M56.3906 44.5C53.8411 44.5 51.3488 45.256 49.229 46.6725C47.1091 48.0889 45.4569 50.1021 44.4812 52.4576C43.5056 54.8131 43.2503 57.4049 43.7477 59.9055C44.2451 62.406 45.4728 64.7029 47.2756 66.5057C49.0784 68.3085 51.3753 69.5362 53.8758 70.0336C56.3763 70.5309 58.9682 70.2757 61.3237 69.3C63.6791 68.3244 65.6924 66.6721 67.1088 64.5523C68.5252 62.4324 69.2813 59.9402 69.2813 57.3906C69.2774 53.973 67.918 50.6965 65.5014 48.2798C63.0848 45.8632 59.8083 44.5039 56.3906 44.5ZM56.3906 68.5625C54.181 68.5625 52.0211 67.9073 50.1839 66.6797C48.3467 65.4521 46.9147 63.7073 46.0692 61.6659C45.2236 59.6245 45.0024 57.3782 45.4334 55.2111C45.8645 53.044 46.9285 51.0533 48.4909 49.4909C50.0533 47.9285 52.044 46.8645 54.2111 46.4334C56.3782 46.0023 58.6245 46.2236 60.6659 47.0692C62.7073 47.9147 64.4521 49.3467 65.6797 51.1839C66.9073 53.0211 67.5625 55.181 67.5625 57.3906C67.5591 60.3525 66.381 63.1922 64.2866 65.2866C62.1922 67.381 59.3526 68.5591 56.3906 68.5625Z" fill="white"/>
<path d="M59.8284 50.4665L59.0662 52.0074C60.2807 52.6112 61.2556 53.6076 61.8326 54.8351C62.4095 56.0626 62.5548 57.4491 62.2447 58.7695C61.9346 60.0899 61.1874 61.2667 60.1243 62.1091C59.0612 62.9514 57.7447 63.4098 56.3884 63.4098C55.032 63.4098 53.7155 62.9514 52.6524 62.1091C51.5894 61.2667 50.8422 60.0899 50.5321 58.7695C50.222 57.4491 50.3672 56.0626 50.9442 54.8351C51.5212 53.6076 52.496 52.6112 53.7106 52.0074L52.9535 50.4665C51.3913 51.2423 50.1373 52.5232 49.3949 54.1015C48.6524 55.6797 48.4652 57.4625 48.8636 59.1605C49.2621 60.8585 50.2227 62.372 51.5896 63.4553C52.9565 64.5386 54.6494 65.1281 56.3935 65.1281C58.1377 65.1281 59.8306 64.5386 61.1975 63.4553C62.5644 62.372 63.525 60.8585 63.9234 59.1605C64.3218 57.4625 64.1346 55.6797 63.3922 54.1015C62.6498 52.5232 61.3957 51.2423 59.8336 50.4665H59.8284Z" fill="white"/>
<path d="M55.5313 48.7969H57.2501V55.6719H55.5313V48.7969Z" fill="white"/>
<path d="M56.3907 25.5937C57.8585 25.5914 59.3122 25.8794 60.6683 26.4411C62.0243 27.0029 63.2558 27.8274 64.2918 28.8671L65.5053 27.6485C63.0878 25.2314 59.8093 23.8734 56.3907 23.8734C52.9722 23.8734 49.6936 25.2314 47.2762 27.6485L48.4896 28.8671C49.5257 27.8274 50.7572 27.0029 52.1132 26.4411C53.4692 25.8794 54.9229 25.5914 56.3907 25.5937Z" fill="white"/>
<path d="M63.0737 30.0822C62.1963 29.2041 61.1544 28.5075 60.0077 28.0322C58.8609 27.5569 57.6317 27.3123 56.3904 27.3123C55.149 27.3123 53.9198 27.5569 52.7731 28.0322C51.6263 28.5075 50.5844 29.2041 49.707 30.0822L50.9222 31.2973C52.3726 29.8474 54.3395 29.0328 56.3904 29.0328C58.4412 29.0328 60.4081 29.8474 61.8586 31.2973L63.0737 30.0822Z" fill="white"/>
<path d="M60.6442 32.517C60.0864 31.957 59.4234 31.5127 58.6934 31.2095C57.9634 30.9063 57.1808 30.7502 56.3903 30.7502C55.5999 30.7502 54.8172 30.9063 54.0872 31.2095C53.3572 31.5127 52.6943 31.957 52.1364 32.517L53.3567 33.727C53.7549 33.3282 54.2277 33.0118 54.7483 32.796C55.2688 32.5801 55.8268 32.469 56.3903 32.469C56.9538 32.469 57.5118 32.5801 58.0324 32.796C58.5529 33.0118 59.0258 33.3282 59.4239 33.727L60.6442 32.517Z" fill="white"/>
<path d="M53.8126 36.7656C53.8126 37.2755 53.9638 37.774 54.2471 38.198C54.5303 38.6219 54.933 38.9524 55.4041 39.1475C55.8752 39.3426 56.3935 39.3937 56.8937 39.2942C57.3938 39.1947 57.8531 38.9492 58.2137 38.5886C58.5742 38.2281 58.8198 37.7687 58.9193 37.2686C59.0188 36.7685 58.9677 36.2501 58.7726 35.779C58.5774 35.3079 58.247 34.9053 57.823 34.622C57.399 34.3387 56.9006 34.1875 56.3907 34.1875C55.7069 34.1875 55.0512 34.4591 54.5677 34.9426C54.0842 35.4261 53.8126 36.0819 53.8126 36.7656ZM57.2501 36.7656C57.2501 36.9356 57.1997 37.1017 57.1052 37.2431C57.0108 37.3844 56.8766 37.4945 56.7196 37.5596C56.5625 37.6246 56.3897 37.6416 56.223 37.6085C56.0563 37.5753 55.9032 37.4935 55.783 37.3733C55.6628 37.2531 55.581 37.1 55.5478 36.9333C55.5147 36.7666 55.5317 36.5938 55.5967 36.4368C55.6618 36.2797 55.7719 36.1455 55.9132 36.0511C56.0546 35.9567 56.2207 35.9062 56.3907 35.9062C56.6186 35.9062 56.8372 35.9968 56.9984 36.158C57.1595 36.3191 57.2501 36.5377 57.2501 36.7656Z" fill="white"/>
<path d="M31.4688 49.6562H33.1876V51.375H31.4688V49.6562Z" fill="white"/>
<path d="M31.4688 53.0938H33.1876V54.8125H31.4688V53.0938Z" fill="white"/>
<path d="M31.4688 56.5312H33.1876V58.25H31.4688V56.5312Z" fill="white"/>
<path d="M34.9063 56.5312H36.6251V58.25H34.9063V56.5312Z" fill="white"/>
<path d="M38.3438 56.5312H40.0626V58.25H38.3438V56.5312Z" fill="white"/>
</svg>
