<svg width="107" height="108" viewBox="0 0 107 108" fill="none" xmlns="http://www.w3.org/2000/svg">
<path d="M53.5002 100.815C80.73 100.815 102.804 78.717 102.804 51.4576C102.804 24.1982 80.73 2.1001 53.5002 2.1001C26.2704 2.1001 4.19629 24.1982 4.19629 51.4576C4.19629 78.717 26.2704 100.815 53.5002 100.815Z" fill="#268CC0"/>
<g clip-path="url(#clip0)">
<path d="M65.6485 32.4575C62.3487 29.113 57.9473 27.2379 53.2554 27.1768C48.4962 27.1148 43.9967 28.9331 40.5831 32.2962C37.1715 35.6572 35.2847 40.1299 35.2706 44.8904C35.2554 50.043 37.4718 54.9428 41.3512 58.3337C44.1597 60.7885 45.7706 64.2796 45.7706 67.9105V76.8748C45.7706 80.3019 48.5557 83.0901 51.9791 83.0901H54.0626C57.4854 83.0901 60.2706 80.3019 60.2706 76.8748V68.0254C60.2706 64.2909 61.8507 60.7851 64.606 58.4065C68.5235 55.0254 70.7706 50.1182 70.7706 44.9447C70.7706 40.2394 68.9517 35.8044 65.6485 32.4575ZM53.005 53.9525H52.1759C51.7227 53.9525 51.3541 53.5834 51.3541 53.1293C51.3541 52.6757 51.7227 52.3067 52.1759 52.3067C52.6329 52.3067 53.005 52.6791 53.005 53.1367V53.9525ZM53.0206 61.3898C53.71 61.3898 54.2706 61.9509 54.2706 62.6411V66.8957H51.7706V62.6411C51.7706 61.9509 52.3311 61.3898 53.0206 61.3898ZM57.7706 69.3984V71.2388H48.2706V69.3984H57.7706ZM48.2706 73.7415H57.7706V75.5819H48.2706V73.7415ZM54.0621 80.5873H51.9791C50.357 80.5873 48.9762 79.5393 48.4737 78.0846H57.5675C57.065 79.5393 55.6842 80.5873 54.0621 80.5873ZM62.9737 56.5114C59.9478 59.1231 58.1026 62.8591 57.8111 66.8957H56.7706V62.6411C56.7706 61.5237 56.2799 60.5197 55.504 59.8314C55.504 59.826 55.505 59.8207 55.505 59.8148V55.7019C56.523 54.9707 57.1871 53.776 57.1871 52.4289V50.4907C57.1871 47.8247 55.0206 45.6554 52.357 45.6554H50.1041C49.4137 45.6554 48.8541 46.2156 48.8541 46.9067C48.8541 47.5979 49.4137 48.1581 50.1041 48.1581H52.357C53.6422 48.1581 54.6871 49.2047 54.6871 50.4907V50.9512C54.0762 50.2488 53.1773 49.8039 52.1759 49.8039C50.3443 49.8039 48.8541 51.2958 48.8541 53.1298C48.8541 54.9633 50.3443 56.4552 52.1759 56.4552H53.005V58.8875C50.9444 58.8958 49.2706 60.5764 49.2706 62.6411V66.8957H48.2359C47.962 62.9124 46.0865 59.15 42.9957 56.4484C39.6617 53.535 37.7574 49.3249 37.7706 44.8982C37.7828 40.8108 39.4044 36.9687 42.337 34.0798C45.2711 31.189 49.1339 29.6258 53.2227 29.6795C61.5201 29.7871 68.2706 36.6353 68.2706 44.9447C68.2706 49.3899 66.3399 53.6054 62.9737 56.5114Z" fill="white"/>
<path d="M53.273 33.2637H53.2535C52.5645 33.2569 52.0035 33.8097 51.9952 34.5004C51.9874 35.1916 52.5465 35.7586 53.2369 35.7665H53.2559H53.2711C53.9542 35.7665 54.5064 35.216 54.5142 34.5298C54.5225 33.8386 53.9635 33.272 53.273 33.2637Z" fill="white"/>
<path d="M58.7717 34.732C58.1682 34.3957 57.4069 34.6128 57.071 35.2169C56.7356 35.8206 56.9519 36.5827 57.5554 36.919C60.4641 38.5404 62.2707 41.6155 62.2707 44.9448C62.2707 45.636 62.8303 46.1962 63.5207 46.1962C64.2111 46.1962 64.7707 45.636 64.7707 44.9448C64.7707 40.7083 62.4719 36.7953 58.7717 34.732Z" fill="white"/>
<path d="M53.0215 24.9019C53.7119 24.9019 54.2715 24.3417 54.2715 23.6505V20.2719C54.2715 19.5807 53.7119 19.0205 53.0215 19.0205C52.3311 19.0205 51.7715 19.5807 51.7715 20.2719V23.6505C51.7715 24.3417 52.3311 24.9019 53.0215 24.9019Z" fill="white"/>
<path d="M77.667 43.6934H74.292C73.6016 43.6934 73.042 44.2535 73.042 44.9447C73.042 45.6359 73.6016 46.1961 74.292 46.1961H77.667C78.3574 46.1961 78.917 45.6359 78.917 44.9447C78.917 44.2535 78.3574 43.6934 77.667 43.6934Z" fill="white"/>
<path d="M31.75 43.6934H28.375C27.6846 43.6934 27.125 44.2535 27.125 44.9447C27.125 45.6359 27.6846 46.1961 28.375 46.1961H31.75C32.4404 46.1961 33 45.6359 33 44.9447C33 44.2535 32.4404 43.6934 31.75 43.6934Z" fill="white"/>
<path d="M68.9454 59.1171C68.4572 58.6283 67.6656 58.6283 67.1774 59.1171C66.6896 59.6054 66.6896 60.3978 67.1774 60.8866L69.5641 63.2759C69.8082 63.5198 70.1281 63.6425 70.4479 63.6425C70.7677 63.6425 71.0875 63.5198 71.3317 63.2759C71.8199 62.7871 71.8199 61.9947 71.3317 61.5059L68.9454 59.1171Z" fill="white"/>
<path d="M37.0965 30.7721C37.3406 31.0165 37.6605 31.1387 37.9803 31.1387C38.3001 31.1387 38.6204 31.0165 38.8641 30.7721C39.3524 30.2838 39.3524 29.4914 38.8641 29.0026L36.4778 26.6133C35.9896 26.125 35.1981 26.125 34.7098 26.6133C34.2215 27.1021 34.222 27.8945 34.7098 28.3833L37.0965 30.7721Z" fill="white"/>
<path d="M69.5649 26.6139L67.1787 29.0027C66.6904 29.4916 66.6904 30.2839 67.1787 30.7727C67.4229 31.0171 67.7427 31.1393 68.0625 31.1393C68.3823 31.1393 68.7021 31.0171 68.9463 30.7727L71.3325 28.3834C71.8208 27.8946 71.8208 27.1022 71.3325 26.6134C70.8447 26.1246 70.0532 26.1251 69.5649 26.6139Z" fill="white"/>
<path d="M37.0962 59.1171L34.71 61.5059C34.2217 61.9947 34.2217 62.7871 34.71 63.2759C34.9541 63.5198 35.2739 63.6425 35.5938 63.6425C35.9136 63.6425 36.2334 63.5198 36.4775 63.2759L38.8638 60.8866C39.3521 60.3978 39.3521 59.6054 38.8638 59.1171C38.376 58.6283 37.5845 58.6283 37.0962 59.1171Z" fill="white"/>
</g>
<defs>
<clipPath id="clip0">
<rect x="21" y="19.0205" width="64" height="64.0696" fill="white"/>
</clipPath>
</defs>
</svg>
