<svg width="107" height="108" viewBox="0 0 107 108" fill="none" xmlns="http://www.w3.org/2000/svg">
<path d="M53.5002 100.816C80.73 100.816 102.804 78.7175 102.804 51.4581C102.804 24.1987 80.73 2.10059 53.5002 2.10059C26.2704 2.10059 4.19629 24.1987 4.19629 51.4581C4.19629 78.7175 26.2704 100.816 53.5002 100.816Z" fill="#268CC0"/>
<path d="M50.4805 67.0938C49.9619 67.0938 49.541 67.5146 49.541 68.0332V70.0371C49.541 70.5562 49.9619 70.9766 50.4805 70.9766C50.9995 70.9766 51.4199 70.5562 51.4199 70.0371V68.0332C51.4199 67.5146 50.9995 67.0938 50.4805 67.0938Z" fill="white"/>
<path d="M57.3056 65.9531C57.0464 65.5039 56.4717 65.3501 56.0224 65.6094C55.5732 65.8691 55.4194 66.4433 55.6787 66.8926L56.6806 68.6279C56.9365 69.0708 57.52 69.228 57.9638 68.9717C58.4131 68.7124 58.5669 68.1382 58.3076 67.6885L57.3056 65.9531Z" fill="white"/>
<path d="M63.0975 62.2099L61.3622 61.208C60.9125 60.9487 60.3382 61.1025 60.079 61.5517C59.8197 62.001 59.974 62.5757 60.4232 62.8349L62.1586 63.8369C62.6376 64.1137 63.2674 63.9052 63.4886 63.3994C63.6786 62.9673 63.5062 62.4458 63.0975 62.2099Z" fill="white"/>
<path d="M44.9375 65.6094C44.4883 65.3501 43.9136 65.5039 43.6543 65.9531L42.6523 67.6885C42.393 68.1382 42.5469 68.7124 42.9961 68.9717C43.4399 69.228 44.0239 69.0708 44.2793 68.6279L45.2812 66.8926C45.541 66.4433 45.3867 65.8691 44.9375 65.6094Z" fill="white"/>
<path d="M39.5979 61.208L37.8626 62.2099C37.4539 62.4458 37.282 62.9673 37.4714 63.3999C37.6931 63.9053 38.323 64.1138 38.802 63.8369L40.5374 62.8349C40.9866 62.5757 41.1404 62.0014 40.8811 61.5517C40.6218 61.1025 40.0471 60.9487 39.5979 61.208Z" fill="white"/>
<path d="M71.521 41.043C68.6426 41.043 66.0206 42.1592 64.0625 43.9805L57.19 36.3442C57.0118 36.146 56.7583 36.0332 56.4917 36.0332H54.4253V33.9668C54.4253 33.4478 54.0049 33.0273 53.4859 33.0273H51.4195V19.9395C51.4195 19.4204 50.9991 19 50.48 19C49.9615 19 49.5406 19.4204 49.5406 19.9395V33.0273H47.4742C46.9556 33.0273 46.5347 33.4478 46.5347 33.9668V36.0332H44.4683C44.2022 36.0332 43.9483 36.146 43.7701 36.3442L40.9834 39.4409C40.6363 39.8267 40.6675 40.4204 41.0533 40.7676C41.4385 41.1143 42.0328 41.0835 42.3799 40.6973L44.8868 37.9121H56.0738L62.795 45.3804C61.3951 47.2212 60.5625 49.5161 60.5625 52.002C60.5625 53.4395 60.8414 54.8135 61.3467 56.0723H28.5425L39.711 43.6626C40.0582 43.2769 40.0269 42.6831 39.6412 42.3359C39.2559 41.9893 38.6622 42.02 38.3145 42.4058L25.7349 56.3833C25.2012 56.9766 25.6377 57.9512 26.4332 57.9512H34.5113V76.1113H33.4468C32.9278 76.1113 32.5074 76.5322 32.5074 77.0508C32.5074 77.5698 32.9278 77.9902 33.4468 77.9902H34.5113V82.0605C34.5113 82.5796 34.9317 83 35.4507 83C35.9698 83 36.3902 82.5796 36.3902 82.0605V77.9902H37.4546C37.9737 77.9902 38.3941 77.5698 38.3941 77.0508C38.3941 76.5322 37.9737 76.1113 37.4546 76.1113H36.3902V57.9512H41.7369C42.6363 62.041 46.2442 64.9648 50.48 64.9648C54.6968 64.9648 58.3213 62.0342 59.2227 57.9512H62.3218C64.2769 60.9639 67.67 62.9609 71.521 62.9609C77.564 62.9609 82.48 58.0449 82.48 52.002C82.48 45.959 77.564 41.043 71.521 41.043ZM48.4136 36.0332V34.9062H52.5464V36.0332H48.4136ZM50.48 63.0859C47.2745 63.0859 44.5254 60.9678 43.6739 57.9512H57.2867C56.4332 60.9634 53.6709 63.0859 50.48 63.0859ZM71.521 61.082C66.5142 61.082 62.441 57.0088 62.441 52.002C62.441 46.9951 66.5142 42.9219 71.521 42.9219C76.5284 42.9219 80.6016 46.9951 80.6016 52.002C80.6016 57.0088 76.5284 61.082 71.521 61.082Z" fill="white"/>
<path d="M71.521 44.0488C67.1357 44.0488 63.5684 47.6167 63.5684 52.002C63.5684 56.3872 67.1357 59.9551 71.521 59.9551C75.9067 59.9551 79.4741 56.3872 79.4741 52.002C79.4741 47.6167 75.9067 44.0488 71.521 44.0488ZM72.4604 58.0034V57.0117C72.4604 56.4932 72.04 56.0723 71.521 56.0723C71.0024 56.0723 70.582 56.4932 70.582 57.0117V58.0034C67.9829 57.5981 65.9248 55.54 65.5195 52.9414H66.5112C67.0303 52.9414 67.4507 52.5205 67.4507 52.002C67.4507 51.4834 67.0303 51.0625 66.5112 51.0625H65.5195C65.9248 48.4639 67.9829 46.4058 70.582 46.0005V46.9922C70.582 47.5107 71.0024 47.9316 71.521 47.9316C72.04 47.9316 72.4604 47.5107 72.4604 46.9922V46.0005C75.0591 46.4058 77.1177 48.4639 77.5225 51.0625H76.5308C76.0122 51.0625 75.5918 51.4834 75.5918 52.002C75.5918 52.5205 76.0122 52.9414 76.5308 52.9414H77.5225C77.1177 55.54 75.0591 57.5981 72.4604 58.0034Z" fill="white"/>
<path d="M73.8623 48.332L71.3354 50.8589L69.937 50.1597C69.4726 49.9277 68.9086 50.1157 68.6767 50.5801C68.4443 51.0439 68.6328 51.6084 69.0966 51.8403L71.1005 52.8423C71.4585 53.021 71.9023 52.9487 72.185 52.666L75.1909 49.6602C75.5576 49.2935 75.5576 48.6987 75.1909 48.332C74.8237 47.9648 74.229 47.9648 73.8623 48.332Z" fill="white"/>
<path d="M74.5267 35.7097C74.9637 35.7097 75.3529 35.3967 75.4456 34.9689C75.5311 34.5749 75.347 34.1589 74.9979 33.9572C72.8534 32.7175 70.1893 32.7175 68.0453 33.9567C67.5965 34.2165 67.4427 34.7912 67.7025 35.2404C67.9618 35.6896 68.5365 35.843 68.9857 35.5837C70.5497 34.6794 72.493 34.6794 74.0575 35.5837C74.2054 35.6691 74.367 35.7097 74.5267 35.7097Z" fill="white"/>
<path d="M66.611 32.3372C69.5939 30.4163 73.4479 30.4163 76.4304 32.3372C76.861 32.6145 77.4518 32.4866 77.7287 32.0564C78.0095 31.6204 77.884 31.0388 77.4479 30.7581C73.8473 28.4387 69.194 28.4387 65.5939 30.7581C65.1579 31.0388 65.0319 31.6199 65.3127 32.0564C65.5934 32.4924 66.175 32.6184 66.611 32.3372Z" fill="white"/>
<path d="M69.4395 37.8977C69.0723 38.2644 69.0723 38.8591 69.4395 39.2258C69.8062 39.5925 70.4009 39.593 70.7676 39.2258C71.1831 38.8108 71.8584 38.8113 72.2734 39.2258C72.6353 39.5881 73.2397 39.5876 73.6016 39.2258C73.9683 38.8591 73.9683 38.2644 73.6016 37.8977C72.4541 36.7502 70.5869 36.7502 69.4395 37.8977Z" fill="white"/>
</svg>
