<svg width="87" height="87" viewBox="0 0 87 87" fill="none" xmlns="http://www.w3.org/2000/svg">
<rect width="87" height="87" rx="17" fill="#0088CC"/>
<path d="M53.0117 31.8437C51.5805 30.5721 49.8971 29.6167 48.0715 29.04C46.2459 28.4632 44.3192 28.2782 42.4172 28.4969C40.1969 28.7557 38.0763 29.5649 36.2478 30.8508C36.1368 30.9243 36.0416 31.0192 35.9679 31.13C35.8942 31.2408 35.8435 31.3653 35.8187 31.4961C35.7939 31.6268 35.7955 31.7613 35.8235 31.8914C35.8516 32.0215 35.9054 32.1447 35.9818 32.2536C36.0582 32.3626 36.1557 32.4551 36.2685 32.5258C36.3813 32.5965 36.5071 32.6438 36.6385 32.665C36.7699 32.6862 36.9042 32.6809 37.0335 32.6493C37.1628 32.6178 37.2845 32.5606 37.3913 32.4812C39.52 30.9896 42.0905 30.2615 44.6853 30.4152C47.28 30.569 49.7465 31.5956 51.6841 33.3283C53.9192 35.319 55.292 38.1012 55.5121 41.0862C55.7323 44.0711 54.7824 47.0246 52.8635 49.3216C51.3556 51.1927 50.5509 53.5329 50.5892 55.9357V58.3064H37.4081V56.1158C37.4472 53.6312 36.625 51.2097 35.0812 49.2626C34.0558 48.024 33.3026 46.5835 32.8704 45.0348C32.4382 43.486 32.3368 41.8636 32.5726 40.2731C32.7928 38.7028 33.3442 37.1971 34.1903 35.856C34.3314 35.6321 34.3777 35.3613 34.3191 35.1032C34.2605 34.8451 34.1018 34.6209 33.8779 34.4798C33.654 34.3387 33.3832 34.2924 33.1251 34.351C32.867 34.4096 32.6428 34.5683 32.5017 34.7922C31.5072 36.3709 30.8586 38.1425 30.5988 39.9902C30.324 41.8546 30.4445 43.756 30.9525 45.5708C31.4604 47.3856 32.3445 49.0732 33.5472 50.5241C34.7979 52.1151 35.4596 54.09 35.4199 56.1134V59.3009C35.4199 59.5651 35.5248 59.8184 35.7116 60.0052C35.8984 60.192 36.1518 60.297 36.416 60.297H51.5853C51.8494 60.297 52.1028 60.192 52.2896 60.0052C52.4764 59.8184 52.5814 59.5651 52.5814 59.3009V55.9341C52.5439 53.9997 53.1844 52.1131 54.3919 50.6014C56.6425 47.9076 57.7569 44.4439 57.4993 40.9431C57.2418 37.4424 55.6324 34.1791 53.0117 31.8437Z" fill="white"/>
<path d="M51.5858 64.0176H36.4125C36.1483 64.0176 35.8949 64.1225 35.7081 64.3093C35.5213 64.4961 35.4164 64.7495 35.4164 65.0136C35.4164 65.2778 35.5213 65.5312 35.7081 65.718C35.8949 65.9048 36.1483 66.0097 36.4125 66.0097H40.216V66.5078C40.216 67.511 40.6145 68.4732 41.3239 69.1826C42.0333 69.892 42.9955 70.2906 43.9987 70.2906C45.002 70.2906 45.9641 69.892 46.6735 69.1826C47.3829 68.4732 47.7815 67.511 47.7815 66.5078V66.0074H51.5858C51.8499 66.0074 52.1033 65.9024 52.2901 65.7156C52.4769 65.5288 52.5818 65.2754 52.5818 65.0113C52.5818 64.7471 52.4769 64.4937 52.2901 64.3069C52.1033 64.1201 51.8499 64.0152 51.5858 64.0152V64.0176ZM45.7901 66.5078C45.7901 66.9827 45.6014 67.4381 45.2656 67.7739C44.9298 68.1097 44.4744 68.2984 43.9995 68.2984C43.5246 68.2984 43.0692 68.1097 42.7334 67.7739C42.3976 67.4381 42.2089 66.9827 42.2089 66.5078V66.0074H45.7901V66.5078Z" fill="white"/>
<path d="M43.9995 24.4727C44.2637 24.4727 44.517 24.3677 44.7039 24.1809C44.8907 23.9941 44.9956 23.7407 44.9956 23.4766V16.7031C44.9956 16.4389 44.8907 16.1856 44.7039 15.9988C44.517 15.812 44.2637 15.707 43.9995 15.707C43.7353 15.707 43.482 15.812 43.2952 15.9988C43.1084 16.1856 43.0034 16.4389 43.0034 16.7031V23.4766C43.0034 23.7407 43.1084 23.9941 43.2952 24.1809C43.482 24.3677 43.7353 24.4727 43.9995 24.4727Z" fill="white"/>
<path d="M56.7252 29.7433C56.8558 29.7436 56.9851 29.7182 57.1059 29.6684C57.2266 29.6186 57.3364 29.5455 57.4288 29.4532L62.2188 24.664C62.3183 24.5734 62.3983 24.4635 62.4542 24.3411C62.51 24.2187 62.5405 24.0862 62.5437 23.9517C62.5469 23.8172 62.5229 23.6834 62.473 23.5585C62.4231 23.4335 62.3484 23.3199 62.2534 23.2246C62.1584 23.1293 62.0451 23.0543 61.9203 23.0039C61.7955 22.9536 61.6618 22.9291 61.5273 22.9319C61.3928 22.9347 61.2602 22.9647 61.1376 23.0201C61.015 23.0755 60.9049 23.1552 60.8139 23.2544L56.0239 28.0436C55.8846 28.1829 55.7897 28.3604 55.7512 28.5536C55.7128 28.7469 55.7325 28.9472 55.8079 29.1292C55.8833 29.3113 56.011 29.4668 56.1748 29.5763C56.3387 29.6857 56.5313 29.7441 56.7283 29.7441L56.7252 29.7433Z" fill="white"/>
<path d="M68.7686 40.4763H61.9951C61.7309 40.4763 61.4776 40.5812 61.2908 40.768C61.104 40.9548 60.999 41.2082 60.999 41.4724C60.999 41.7366 61.104 41.9899 61.2908 42.1767C61.4776 42.3635 61.7309 42.4685 61.9951 42.4685H68.7686C69.0327 42.4685 69.2861 42.3635 69.4729 42.1767C69.6597 41.9899 69.7646 41.7366 69.7646 41.4724C69.7646 41.2082 69.6597 40.9548 69.4729 40.768C69.2861 40.5812 69.0327 40.4763 68.7686 40.4763Z" fill="white"/>
<path d="M57.4288 53.4932C57.3374 53.3962 57.2274 53.3186 57.1055 53.2649C56.9835 53.2111 56.852 53.1825 56.7187 53.1805C56.5854 53.1785 56.4531 53.2033 56.3296 53.2534C56.2061 53.3035 56.0939 53.3779 55.9997 53.4721C55.9055 53.5664 55.8311 53.6786 55.781 53.8021C55.7309 53.9256 55.7061 54.0579 55.7081 54.1912C55.71 54.3244 55.7387 54.4559 55.7924 54.5779C55.8461 54.6999 55.9238 54.8098 56.0207 54.9013L60.8139 59.6913C60.9064 59.7838 61.0163 59.8572 61.1371 59.9072C61.258 59.9573 61.3875 59.9831 61.5184 59.9831C61.6492 59.9831 61.7787 59.9573 61.8996 59.9072C62.0205 59.8572 62.1303 59.7838 62.2228 59.6913C62.3153 59.5988 62.3887 59.489 62.4387 59.3681C62.4888 59.2472 62.5146 59.1177 62.5146 58.9868C62.5146 58.856 62.4888 58.7265 62.4387 58.6056C62.3887 58.4847 62.3153 58.3749 62.2228 58.2824L57.4288 53.4932Z" fill="white"/>
<path d="M30.5699 53.4933L25.7799 58.2833C25.6796 58.3738 25.5987 58.4837 25.5422 58.6063C25.4858 58.729 25.4548 58.8619 25.4513 58.9969C25.4477 59.1319 25.4717 59.2662 25.5217 59.3917C25.5717 59.5171 25.6467 59.6311 25.7421 59.7267C25.8375 59.8223 25.9514 59.8975 26.0767 59.9477C26.2021 59.9979 26.3364 60.0221 26.4714 60.0188C26.6064 60.0155 26.7393 59.9847 26.8621 59.9284C26.9849 59.8722 27.0949 59.7915 27.1855 59.6914L31.9756 54.9014C32.0707 54.8095 32.1465 54.6995 32.1987 54.578C32.2509 54.4564 32.2783 54.3257 32.2794 54.1935C32.2805 54.0612 32.2553 53.93 32.2052 53.8076C32.1551 53.6852 32.0811 53.574 31.9875 53.4805C31.894 53.387 31.7827 53.3131 31.6603 53.2631C31.5379 53.213 31.4067 53.1879 31.2744 53.189C31.1422 53.1902 31.0115 53.2177 30.89 53.27C30.7684 53.3222 30.6585 53.3981 30.5667 53.4933H30.5699Z" fill="white"/>
<path d="M27 41.4724C27 41.2082 26.8951 40.9548 26.7083 40.768C26.5215 40.5812 26.2681 40.4763 26.0039 40.4763H19.2305C18.9663 40.4763 18.7129 40.5812 18.5261 40.768C18.3393 40.9548 18.2344 41.2082 18.2344 41.4724C18.2344 41.7366 18.3393 41.9899 18.5261 42.1767C18.7129 42.3635 18.9663 42.4685 19.2305 42.4685H26.0039C26.2681 42.4685 26.5215 42.3635 26.7083 42.1767C26.8951 41.9899 27 41.7366 27 41.4724Z" fill="white"/>
<path d="M30.5697 29.4532C30.7575 29.6347 31.0091 29.7352 31.2703 29.733C31.5314 29.7308 31.7813 29.6261 31.966 29.4415C32.1508 29.2569 32.2556 29.0071 32.2579 28.7459C32.2603 28.4847 32.1599 28.2331 31.9786 28.0452L27.1853 23.2543C26.9985 23.0675 26.7451 22.9625 26.4809 22.9625C26.2167 22.9625 25.9633 23.0675 25.7765 23.2543C25.5896 23.4412 25.4847 23.6946 25.4847 23.9588C25.4847 24.223 25.5896 24.4764 25.7765 24.6632L30.5697 29.4532Z" fill="white"/>
</svg>
