<svg width="87" height="87" viewBox="0 0 87 87" fill="none" xmlns="http://www.w3.org/2000/svg">
<rect width="87" height="87" rx="17" fill="#0088CC"/>
<path d="M26.9375 55.7502C26.134 55.7502 25.3486 55.993 24.6805 56.448C24.0124 56.903 23.4917 57.5496 23.1842 58.3062C22.8768 59.0628 22.7963 59.8954 22.9531 60.6986C23.1098 61.5018 23.4967 62.2396 24.0649 62.8187C24.633 63.3977 25.3569 63.7921 26.1449 63.9519C26.933 64.1116 27.7498 64.0296 28.4922 63.7162C29.2345 63.4028 29.869 62.8721 30.3153 62.1912C30.7617 61.5103 31 60.7097 31 59.8908C30.9987 58.793 30.5703 57.7406 29.8087 56.9644C29.0471 56.1881 28.0145 55.7515 26.9375 55.7502ZM26.9375 62.3752C26.4554 62.3752 25.9841 62.2295 25.5833 61.9565C25.1825 61.6835 24.87 61.2955 24.6855 60.8415C24.5011 60.3876 24.4528 59.888 24.5468 59.4061C24.6409 58.9242 24.873 58.4815 25.2139 58.1341C25.5548 57.7866 25.9891 57.55 26.462 57.4542C26.9348 57.3583 27.4249 57.4075 27.8703 57.5955C28.3157 57.7836 28.6964 58.102 28.9642 58.5106C29.232 58.9191 29.375 59.3994 29.375 59.8908C29.375 60.5497 29.1182 61.1816 28.6611 61.6475C28.204 62.1134 27.584 62.3752 26.9375 62.3752Z" fill="white"/>
<path d="M26.9375 29.2502C26.134 29.2502 25.3486 29.493 24.6805 29.948C24.0124 30.403 23.4917 31.0496 23.1842 31.8062C22.8768 32.5628 22.7963 33.3954 22.9531 34.1986C23.1098 35.0018 23.4967 35.7396 24.0649 36.3187C24.633 36.8977 25.3569 37.2921 26.1449 37.4519C26.933 37.6116 27.7498 37.5296 28.4922 37.2162C29.2345 36.9028 29.869 36.3721 30.3153 35.6912C30.7617 35.0103 31 34.2097 31 33.3908C30.9987 32.293 30.5703 31.2406 29.8087 30.4644C29.0471 29.6881 28.0145 29.2515 26.9375 29.2502ZM26.9375 35.8752C26.4554 35.8752 25.9841 35.7295 25.5833 35.4565C25.1825 35.1835 24.87 34.7955 24.6855 34.3415C24.5011 33.8876 24.4528 33.388 24.5468 32.9061C24.6409 32.4242 24.873 31.9815 25.2139 31.6341C25.5548 31.2866 25.9891 31.05 26.462 30.9542C26.9348 30.8583 27.4249 30.9075 27.8703 31.0955C28.3157 31.2836 28.6964 31.602 28.9642 32.0105C29.232 32.4191 29.375 32.8994 29.375 33.3908C29.375 34.0497 29.1182 34.6816 28.6611 35.1475C28.204 35.6134 27.584 35.8752 26.9375 35.8752Z" fill="white"/>
<path d="M26.9375 54.094C27.5803 54.094 28.2086 53.8997 28.7431 53.5358C29.2776 53.1718 29.6941 52.6544 29.9401 52.0492C30.1861 51.4439 30.2505 50.7778 30.1251 50.1353C29.9996 49.4927 29.6901 48.9025 29.2356 48.4392C28.7811 47.976 28.202 47.6605 27.5715 47.5327C26.9411 47.4048 26.2876 47.4704 25.6938 47.7212C25.0999 47.9719 24.5923 48.3964 24.2352 48.9412C23.8781 49.4859 23.6875 50.1264 23.6875 50.7815C23.6875 51.66 24.0299 52.5026 24.6394 53.1238C25.2489 53.745 26.0755 54.094 26.9375 54.094ZM26.9375 49.1253C27.2589 49.1253 27.5731 49.2224 27.8403 49.4044C28.1075 49.5864 28.3158 49.8451 28.4388 50.1477C28.5618 50.4503 28.594 50.7833 28.5313 51.1046C28.4686 51.4259 28.3138 51.721 28.0865 51.9527C27.8593 52.1843 27.5697 52.342 27.2545 52.4059C26.9393 52.4698 26.6126 52.437 26.3156 52.3117C26.0187 52.1863 25.7649 51.974 25.5864 51.7017C25.4078 51.4293 25.3125 51.1091 25.3125 50.7815C25.3125 50.3422 25.4837 49.921 25.7885 49.6104C26.0932 49.2998 26.5065 49.1253 26.9375 49.1253Z" fill="white"/>
<path d="M26.9375 45.8128C27.5803 45.8128 28.2086 45.6185 28.7431 45.2545C29.2776 44.8905 29.6941 44.3732 29.9401 43.7679C30.1861 43.1626 30.2505 42.4966 30.1251 41.854C29.9996 41.2115 29.6901 40.6212 29.2356 40.158C28.7811 39.6947 28.202 39.3792 27.5715 39.2514C26.9411 39.1236 26.2876 39.1892 25.6938 39.4399C25.0999 39.6906 24.5923 40.1152 24.2352 40.66C23.8781 41.2047 23.6875 41.8451 23.6875 42.5003C23.6875 43.3788 24.0299 44.2214 24.6394 44.8426C25.2489 45.4638 26.0755 45.8128 26.9375 45.8128ZM26.9375 40.844C27.2589 40.844 27.5731 40.9412 27.8403 41.1232C28.1075 41.3051 28.3158 41.5638 28.4388 41.8665C28.5618 42.1691 28.594 42.5021 28.5313 42.8234C28.4686 43.1447 28.3138 43.4398 28.0865 43.6714C27.8593 43.9031 27.5697 44.0608 27.2545 44.1247C26.9393 44.1886 26.6126 44.1558 26.3156 44.0305C26.0187 43.9051 25.7649 43.6928 25.5864 43.4204C25.4078 43.1481 25.3125 42.8279 25.3125 42.5003C25.3125 42.061 25.4837 41.6397 25.7885 41.3291C26.0932 41.0185 26.5065 40.844 26.9375 40.844Z" fill="white"/>
<path d="M61.0625 55.7502C60.259 55.7502 59.4736 55.993 58.8055 56.448C58.1374 56.903 57.6167 57.5496 57.3092 58.3062C57.0018 59.0628 56.9213 59.8954 57.0781 60.6986C57.2348 61.5018 57.6217 62.2396 58.1899 62.8187C58.758 63.3977 59.4819 63.7921 60.2699 63.9519C61.058 64.1116 61.8748 64.0296 62.6172 63.7162C63.3595 63.4028 63.994 62.8721 64.4403 62.1912C64.8867 61.5103 65.125 60.7097 65.125 59.8908C65.1237 58.793 64.6953 57.7406 63.9337 56.9644C63.1721 56.1881 62.1395 55.7515 61.0625 55.7502ZM61.0625 62.3752C60.5804 62.3752 60.1091 62.2295 59.7083 61.9565C59.3075 61.6835 58.995 61.2955 58.8105 60.8415C58.6261 60.3876 58.5778 59.888 58.6718 59.4061C58.7659 58.9242 58.998 58.4815 59.3389 58.1341C59.6798 57.7866 60.1141 57.55 60.587 57.4542C61.0598 57.3583 61.5499 57.4075 61.9953 57.5955C62.4407 57.7836 62.8214 58.102 63.0892 58.5106C63.357 58.9191 63.5 59.3994 63.5 59.8908C63.5 60.5497 63.2432 61.1816 62.7861 61.6475C62.329 62.1134 61.709 62.3752 61.0625 62.3752Z" fill="white"/>
<path d="M61.0625 29.2502C60.259 29.2502 59.4736 29.493 58.8055 29.948C58.1374 30.403 57.6167 31.0496 57.3092 31.8062C57.0018 32.5628 56.9213 33.3954 57.0781 34.1986C57.2348 35.0018 57.6217 35.7396 58.1899 36.3187C58.758 36.8977 59.4819 37.2921 60.2699 37.4519C61.058 37.6116 61.8748 37.5296 62.6172 37.2162C63.3595 36.9028 63.994 36.3721 64.4403 35.6912C64.8867 35.0103 65.125 34.2097 65.125 33.3908C65.1237 32.293 64.6953 31.2406 63.9337 30.4644C63.1721 29.6881 62.1395 29.2515 61.0625 29.2502ZM61.0625 35.8752C60.5804 35.8752 60.1091 35.7295 59.7083 35.4565C59.3075 35.1835 58.995 34.7955 58.8105 34.3415C58.6261 33.8876 58.5778 33.388 58.6718 32.9061C58.7659 32.4242 58.998 31.9815 59.3389 31.6341C59.6798 31.2866 60.1141 31.05 60.587 30.9542C61.0598 30.8583 61.5499 30.9075 61.9953 31.0955C62.4407 31.2836 62.8214 31.602 63.0892 32.0105C63.357 32.4191 63.5 32.8994 63.5 33.3908C63.5 34.0497 63.2432 34.6816 62.7861 35.1475C62.329 35.6134 61.709 35.8752 61.0625 35.8752Z" fill="white"/>
<path d="M61.0625 54.094C61.7053 54.094 62.3336 53.8997 62.8681 53.5358C63.4026 53.1718 63.8191 52.6544 64.0651 52.0492C64.3111 51.4439 64.3755 50.7778 64.25 50.1353C64.1246 49.4927 63.8151 48.9025 63.3606 48.4392C62.9061 47.976 62.327 47.6605 61.6965 47.5327C61.0661 47.4048 60.4126 47.4704 59.8188 47.7212C59.2249 47.9719 58.7173 48.3964 58.3602 48.9412C58.0031 49.4859 57.8125 50.1264 57.8125 50.7815C57.8125 51.66 58.1549 52.5026 58.7644 53.1238C59.3739 53.745 60.2005 54.094 61.0625 54.094ZM61.0625 49.1253C61.3839 49.1253 61.6981 49.2224 61.9653 49.4044C62.2325 49.5864 62.4408 49.8451 62.5638 50.1477C62.6868 50.4503 62.719 50.7833 62.6563 51.1046C62.5936 51.4259 62.4388 51.721 62.2115 51.9527C61.9843 52.1843 61.6947 52.342 61.3795 52.4059C61.0643 52.4698 60.7376 52.437 60.4406 52.3117C60.1437 52.1863 59.8899 51.974 59.7114 51.7017C59.5328 51.4293 59.4375 51.1091 59.4375 50.7815C59.4375 50.3422 59.6087 49.921 59.9134 49.6104C60.2182 49.2998 60.6315 49.1253 61.0625 49.1253Z" fill="white"/>
<path d="M61.0625 45.8128C61.7053 45.8128 62.3336 45.6185 62.8681 45.2545C63.4026 44.8905 63.8191 44.3732 64.0651 43.7679C64.3111 43.1626 64.3755 42.4966 64.25 41.854C64.1246 41.2115 63.8151 40.6212 63.3606 40.158C62.9061 39.6947 62.327 39.3792 61.6965 39.2514C61.0661 39.1236 60.4126 39.1892 59.8188 39.4399C59.2249 39.6906 58.7173 40.1152 58.3602 40.66C58.0031 41.2047 57.8125 41.8451 57.8125 42.5003C57.8125 43.3788 58.1549 44.2214 58.7644 44.8426C59.3739 45.4638 60.2005 45.8128 61.0625 45.8128ZM61.0625 40.844C61.3839 40.844 61.6981 40.9412 61.9653 41.1232C62.2325 41.3051 62.4408 41.5638 62.5638 41.8665C62.6868 42.1691 62.719 42.5021 62.6563 42.8234C62.5936 43.1447 62.4388 43.4398 62.2115 43.6714C61.9843 43.9031 61.6947 44.0608 61.3795 44.1247C61.0643 44.1886 60.7376 44.1558 60.4406 44.0305C60.1437 43.9051 59.8899 43.6928 59.7114 43.4204C59.5328 43.1481 59.4375 42.8279 59.4375 42.5003C59.4375 42.061 59.6087 41.6397 59.9134 41.3291C60.2182 41.0185 60.6315 40.844 61.0625 40.844Z" fill="white"/>
<path d="M65.9375 25.9377H56.1875C55.541 25.9377 54.921 26.1994 54.4639 26.6653C54.0068 27.1312 53.75 27.7631 53.75 28.422V50.7814H34.25V28.422C34.25 27.7631 33.9932 27.1312 33.5361 26.6653C33.079 26.1994 32.459 25.9377 31.8125 25.9377H22.0625C21.416 25.9377 20.796 26.1994 20.3389 26.6653C19.8818 27.1312 19.625 27.7631 19.625 28.422V64.8595C19.625 65.5184 19.8818 66.1503 20.3389 66.6163C20.796 67.0822 21.416 67.3439 22.0625 67.3439H31.8125C32.459 67.3439 33.079 67.0822 33.5361 66.6163C33.9932 66.1503 34.25 65.5184 34.25 64.8595V62.3752H53.75V64.8595C53.75 65.5184 54.0068 66.1503 54.4639 66.6163C54.921 67.0822 55.541 67.3439 56.1875 67.3439H65.9375C66.584 67.3439 67.204 67.0822 67.6611 66.6163C68.1182 66.1503 68.375 65.5184 68.375 64.8595V28.422C68.375 27.7631 68.1182 27.1312 67.6611 26.6653C67.204 26.1994 66.584 25.9377 65.9375 25.9377ZM32.625 64.8595C32.625 65.0792 32.5394 65.2898 32.387 65.4451C32.2347 65.6004 32.028 65.6877 31.8125 65.6877H22.0625C21.847 65.6877 21.6403 65.6004 21.488 65.4451C21.3356 65.2898 21.25 65.0792 21.25 64.8595V28.422C21.25 28.2024 21.3356 27.9918 21.488 27.8365C21.6403 27.6812 21.847 27.5939 22.0625 27.5939H31.8125C32.028 27.5939 32.2347 27.6812 32.387 27.8365C32.5394 27.9918 32.625 28.2024 32.625 28.422V64.8595ZM34.25 60.7189V52.4377H53.75V60.7189H34.25ZM66.75 64.8595C66.75 65.0792 66.6644 65.2898 66.512 65.4451C66.3597 65.6004 66.153 65.6877 65.9375 65.6877H56.1875C55.972 65.6877 55.7653 65.6004 55.613 65.4451C55.4606 65.2898 55.375 65.0792 55.375 64.8595V28.422C55.375 28.2024 55.4606 27.9918 55.613 27.8365C55.7653 27.6812 55.972 27.5939 56.1875 27.5939H65.9375C66.153 27.5939 66.3597 27.6812 66.512 27.8365C66.6644 27.9918 66.75 28.2024 66.75 28.422V64.8595Z" fill="white"/>
<path d="M41.5625 54.0939H36.6875C36.472 54.0939 36.2653 54.1812 36.113 54.3365C35.9606 54.4918 35.875 54.7024 35.875 54.922V58.2345C35.875 58.4542 35.9606 58.6648 36.113 58.8201C36.2653 58.9754 36.472 59.0627 36.6875 59.0627H41.5625C41.778 59.0627 41.9847 58.9754 42.137 58.8201C42.2894 58.6648 42.375 58.4542 42.375 58.2345V54.922C42.375 54.7024 42.2894 54.4918 42.137 54.3365C41.9847 54.1812 41.778 54.0939 41.5625 54.0939ZM40.75 57.4064H37.5V55.7502H40.75V57.4064Z" fill="white"/>
<path d="M51.3125 54.0939H46.4375C46.222 54.0939 46.0153 54.1812 45.863 54.3365C45.7106 54.4918 45.625 54.7024 45.625 54.922V58.2345C45.625 58.4542 45.7106 58.6648 45.863 58.8201C46.0153 58.9754 46.222 59.0627 46.4375 59.0627H51.3125C51.528 59.0627 51.7347 58.9754 51.887 58.8201C52.0394 58.6648 52.125 58.4542 52.125 58.2345V54.922C52.125 54.7024 52.0394 54.4918 51.887 54.3365C51.7347 54.1812 51.528 54.0939 51.3125 54.0939ZM50.5 57.4064H47.25V55.7502H50.5V57.4064Z" fill="white"/>
<path d="M44.0001 19.3127C45.3878 19.3105 46.7622 19.588 48.0443 20.1294C49.3263 20.6707 50.4906 21.4652 51.4702 22.467L52.6167 21.2927C50.3312 18.964 47.2318 17.6558 44.0001 17.6558C40.7684 17.6558 37.669 18.964 35.3835 21.2927L36.53 22.467C37.5096 21.4652 38.6739 20.6707 39.9559 20.1294C41.238 19.588 42.6124 19.3105 44.0001 19.3127Z" fill="white"/>
<path d="M50.3188 23.638C49.4893 22.7918 48.5042 22.1205 47.42 21.6625C46.3358 21.2045 45.1737 20.9688 44 20.9688C42.8264 20.9688 41.6642 21.2045 40.58 21.6625C39.4958 22.1205 38.5108 22.7918 37.6812 23.638L38.8301 24.8089C40.2014 23.4117 42.061 22.6268 44 22.6268C45.939 22.6268 47.7987 23.4117 49.17 24.8089L50.3188 23.638Z" fill="white"/>
<path d="M48.0226 25.984C47.4951 25.4446 46.8683 25.0166 46.1781 24.7245C45.488 24.4325 44.748 24.2822 44.0008 24.2822C43.2535 24.2822 42.5136 24.4325 41.8234 24.7245C41.1332 25.0166 40.5064 25.4446 39.9789 25.984L41.1334 27.15C41.5099 26.7657 41.9569 26.4608 42.4491 26.2528C42.9412 26.0448 43.4688 25.9377 44.0016 25.9377C44.5344 25.9377 45.0619 26.0448 45.5541 26.2528C46.0462 26.4608 46.4933 26.7657 46.8697 27.15L48.0226 25.984Z" fill="white"/>
<path d="M41.5625 30.0783C41.5625 30.5697 41.7055 31.05 41.9733 31.4585C42.2411 31.8671 42.6218 32.1855 43.0672 32.3736C43.5126 32.5616 44.0027 32.6108 44.4755 32.5149C44.9484 32.4191 45.3827 32.1825 45.7236 31.835C46.0645 31.4876 46.2966 31.0449 46.3907 30.563C46.4847 30.0811 46.4364 29.5815 46.252 29.1276C46.0675 28.6736 45.755 28.2856 45.3542 28.0126C44.9534 27.7396 44.4821 27.5939 44 27.5939C43.3535 27.5939 42.7335 27.8557 42.2764 28.3216C41.8193 28.7875 41.5625 29.4194 41.5625 30.0783ZM44.8125 30.0783C44.8125 30.2421 44.7648 30.4022 44.6756 30.5384C44.5863 30.6746 44.4594 30.7807 44.3109 30.8434C44.1625 30.9061 43.9991 30.9225 43.8415 30.8905C43.6839 30.8586 43.5391 30.7797 43.4255 30.6639C43.3118 30.5481 43.2345 30.4005 43.2031 30.2399C43.1718 30.0792 43.1879 29.9127 43.2493 29.7614C43.3108 29.6101 43.415 29.4807 43.5486 29.3897C43.6822 29.2987 43.8393 29.2502 44 29.2502C44.2155 29.2502 44.4222 29.3374 44.5745 29.4927C44.7269 29.648 44.8125 29.8587 44.8125 30.0783Z" fill="white"/>
</svg>
