<svg width="107" height="108" viewBox="0 0 107 108" fill="none" xmlns="http://www.w3.org/2000/svg">
<path d="M53.5002 100.815C80.73 100.815 102.804 78.717 102.804 51.4576C102.804 24.1982 80.73 2.1001 53.5002 2.1001C26.2704 2.1001 4.19629 24.1982 4.19629 51.4576C4.19629 78.717 26.2704 100.815 53.5002 100.815Z" fill="#268CC0"/>
<path d="M34.7969 63.5C33.9161 63.5 33.0552 63.7658 32.3229 64.2637C31.5905 64.7616 31.0198 65.4692 30.6827 66.2972C30.3457 67.1252 30.2575 68.0363 30.4293 68.9153C30.6011 69.7942 31.0253 70.6016 31.648 71.2353C32.2708 71.869 33.0643 72.3006 33.9281 72.4754C34.7919 72.6503 35.6873 72.5605 36.501 72.2176C37.3147 71.8746 38.0102 71.2938 38.4995 70.5487C38.9888 69.8035 39.25 68.9275 39.25 68.0313C39.2486 66.8299 38.779 65.6782 37.9442 64.8288C37.1093 63.9793 35.9775 63.5014 34.7969 63.5ZM34.7969 70.75C34.2684 70.75 33.7519 70.5906 33.3125 70.2918C32.8731 69.9931 32.5306 69.5685 32.3284 69.0717C32.1262 68.5749 32.0732 68.0282 32.1763 67.5009C32.2794 66.9735 32.5339 66.489 32.9076 66.1088C33.2812 65.7286 33.7573 65.4696 34.2756 65.3647C34.7939 65.2598 35.3311 65.3137 35.8194 65.5195C36.3076 65.7252 36.7249 66.0737 37.0185 66.5208C37.3121 66.9679 37.4688 67.4935 37.4688 68.0313C37.4688 68.7523 37.1873 69.4438 36.6862 69.9537C36.1851 70.4636 35.5055 70.75 34.7969 70.75Z" fill="white"/>
<path d="M34.7969 34.5C33.9161 34.5 33.0552 34.7658 32.3229 35.2637C31.5905 35.7616 31.0198 36.4692 30.6827 37.2972C30.3457 38.1252 30.2575 39.0363 30.4293 39.9153C30.6011 40.7942 31.0253 41.6016 31.648 42.2353C32.2708 42.869 33.0643 43.3006 33.9281 43.4754C34.7919 43.6503 35.6873 43.5605 36.501 43.2176C37.3147 42.8746 38.0102 42.2938 38.4995 41.5487C38.9888 40.8035 39.25 39.9274 39.25 39.0312C39.2486 37.8299 38.779 36.6782 37.9442 35.8288C37.1093 34.9793 35.9775 34.5014 34.7969 34.5ZM34.7969 41.75C34.2684 41.75 33.7519 41.5905 33.3125 41.2918C32.8731 40.9931 32.5306 40.5685 32.3284 40.0717C32.1262 39.5749 32.0732 39.0282 32.1763 38.5008C32.2794 37.9735 32.5339 37.489 32.9076 37.1088C33.2812 36.7286 33.7573 36.4696 34.2756 36.3647C34.7939 36.2598 35.3311 36.3137 35.8194 36.5195C36.3076 36.7252 36.7249 37.0737 37.0185 37.5208C37.3121 37.9679 37.4688 38.4935 37.4688 39.0312C37.4688 39.7523 37.1873 40.4438 36.6862 40.9537C36.1851 41.4636 35.5055 41.75 34.7969 41.75Z" fill="white"/>
<path d="M34.7969 61.6875C35.5015 61.6875 36.1902 61.4749 36.7761 61.0766C37.3619 60.6783 37.8186 60.1121 38.0882 59.4497C38.3578 58.7873 38.4284 58.0585 38.2909 57.3553C38.1535 56.6521 37.8142 56.0062 37.3159 55.4992C36.8177 54.9923 36.1829 54.647 35.4919 54.5072C34.8008 54.3673 34.0845 54.4391 33.4336 54.7134C32.7826 54.9878 32.2262 55.4524 31.8348 56.0486C31.4433 56.6447 31.2344 57.3455 31.2344 58.0625C31.2344 59.0239 31.6097 59.9459 32.2778 60.6258C32.9459 61.3056 33.852 61.6875 34.7969 61.6875ZM34.7969 56.25C35.1492 56.25 35.4936 56.3563 35.7865 56.5555C36.0794 56.7546 36.3077 57.0377 36.4425 57.3689C36.5774 57.7001 36.6126 58.0645 36.5439 58.4161C36.4752 58.7677 36.3055 59.0907 36.0564 59.3441C35.8073 59.5976 35.4899 59.7702 35.1444 59.8402C34.7989 59.9101 34.4407 59.8742 34.1152 59.737C33.7897 59.5998 33.5115 59.3675 33.3158 59.0695C33.1201 58.7714 33.0156 58.421 33.0156 58.0625C33.0156 57.5818 33.2033 57.1208 33.5373 56.7809C33.8714 56.441 34.3245 56.25 34.7969 56.25Z" fill="white"/>
<path d="M34.7969 52.625C35.5015 52.625 36.1902 52.4124 36.7761 52.0141C37.3619 51.6158 37.8186 51.0496 38.0882 50.3872C38.3578 49.7248 38.4284 48.996 38.2909 48.2928C38.1535 47.5896 37.8142 46.9437 37.3159 46.4367C36.8177 45.9298 36.1829 45.5845 35.4919 45.4447C34.8008 45.3048 34.0845 45.3766 33.4336 45.6509C32.7826 45.9253 32.2262 46.3899 31.8348 46.9861C31.4433 47.5822 31.2344 48.283 31.2344 49C31.2344 49.9614 31.6097 50.8834 32.2778 51.5633C32.9459 52.2431 33.852 52.625 34.7969 52.625ZM34.7969 47.1875C35.1492 47.1875 35.4936 47.2938 35.7865 47.493C36.0794 47.6921 36.3077 47.9752 36.4425 48.3064C36.5774 48.6376 36.6126 49.002 36.5439 49.3536C36.4752 49.7052 36.3055 50.0282 36.0564 50.2816C35.8073 50.5351 35.4899 50.7077 35.1444 50.7777C34.7989 50.8476 34.4407 50.8117 34.1152 50.6745C33.7897 50.5374 33.5115 50.305 33.3158 50.007C33.1201 49.7089 33.0156 49.3585 33.0156 49C33.0156 48.5193 33.2033 48.0583 33.5373 47.7184C33.8714 47.3785 34.3245 47.1875 34.7969 47.1875Z" fill="white"/>
<path d="M72.2031 63.5C71.3224 63.5 70.4614 63.7658 69.7291 64.2637C68.9968 64.7616 68.426 65.4692 68.089 66.2972C67.7519 67.1252 67.6637 68.0363 67.8356 68.9153C68.0074 69.7942 68.4315 70.6016 69.0543 71.2353C69.6771 71.869 70.4705 72.3006 71.3344 72.4754C72.1982 72.6503 73.0936 72.5605 73.9073 72.2176C74.721 71.8746 75.4165 71.2938 75.9058 70.5487C76.3951 69.8035 76.6563 68.9275 76.6563 68.0313C76.6548 66.8299 76.1852 65.6782 75.3504 64.8288C74.5156 63.9793 73.3837 63.5014 72.2031 63.5ZM72.2031 70.75C71.6747 70.75 71.1581 70.5906 70.7187 70.2918C70.2793 69.9931 69.9369 69.5685 69.7346 69.0717C69.5324 68.5749 69.4795 68.0282 69.5826 67.5009C69.6857 66.9735 69.9402 66.489 70.3138 66.1088C70.6875 65.7286 71.1636 65.4696 71.6819 65.3647C72.2002 65.2598 72.7374 65.3137 73.2256 65.5195C73.7138 65.7252 74.1311 66.0737 74.4247 66.5208C74.7183 66.9679 74.875 67.4935 74.875 68.0313C74.875 68.7523 74.5935 69.4438 74.0924 69.9537C73.5914 70.4636 72.9118 70.75 72.2031 70.75Z" fill="white"/>
<path d="M72.2031 34.5C71.3224 34.5 70.4614 34.7658 69.7291 35.2637C68.9968 35.7616 68.426 36.4692 68.089 37.2972C67.7519 38.1252 67.6637 39.0363 67.8356 39.9153C68.0074 40.7942 68.4315 41.6016 69.0543 42.2353C69.6771 42.869 70.4705 43.3006 71.3344 43.4754C72.1982 43.6503 73.0936 43.5605 73.9073 43.2176C74.721 42.8746 75.4165 42.2938 75.9058 41.5487C76.3951 40.8035 76.6563 39.9274 76.6563 39.0312C76.6548 37.8299 76.1852 36.6782 75.3504 35.8288C74.5156 34.9793 73.3837 34.5014 72.2031 34.5ZM72.2031 41.75C71.6747 41.75 71.1581 41.5905 70.7187 41.2918C70.2793 40.9931 69.9369 40.5685 69.7346 40.0717C69.5324 39.5749 69.4795 39.0282 69.5826 38.5008C69.6857 37.9735 69.9402 37.489 70.3138 37.1088C70.6875 36.7286 71.1636 36.4696 71.6819 36.3647C72.2002 36.2598 72.7374 36.3137 73.2256 36.5195C73.7138 36.7252 74.1311 37.0737 74.4247 37.5208C74.7183 37.9679 74.875 38.4935 74.875 39.0312C74.875 39.7523 74.5935 40.4438 74.0924 40.9537C73.5914 41.4636 72.9118 41.75 72.2031 41.75Z" fill="white"/>
<path d="M72.2031 61.6875C72.9077 61.6875 73.5965 61.4749 74.1823 61.0766C74.7682 60.6783 75.2248 60.1121 75.4944 59.4497C75.7641 58.7873 75.8346 58.0585 75.6972 57.3553C75.5597 56.6521 75.2204 56.0062 74.7222 55.4992C74.224 54.9923 73.5892 54.647 72.8981 54.5072C72.2071 54.3673 71.4908 54.4391 70.8398 54.7134C70.1889 54.9878 69.6325 55.4524 69.241 56.0486C68.8496 56.6447 68.6406 57.3455 68.6406 58.0625C68.6406 59.0239 69.016 59.9459 69.6841 60.6258C70.3522 61.3056 71.2583 61.6875 72.2031 61.6875ZM72.2031 56.25C72.5554 56.25 72.8998 56.3563 73.1927 56.5555C73.4857 56.7546 73.714 57.0377 73.8488 57.3689C73.9836 57.7001 74.0189 58.0645 73.9501 58.4161C73.8814 58.7677 73.7118 59.0907 73.4627 59.3441C73.2135 59.5976 72.8962 59.7702 72.5506 59.8402C72.2051 59.9101 71.847 59.8742 71.5215 59.737C71.196 59.5998 70.9178 59.3675 70.7221 59.0695C70.5263 58.7714 70.4219 58.421 70.4219 58.0625C70.4219 57.5818 70.6095 57.1208 70.9436 56.7809C71.2776 56.441 71.7307 56.25 72.2031 56.25Z" fill="white"/>
<path d="M72.2031 52.625C72.9077 52.625 73.5965 52.4124 74.1823 52.0141C74.7682 51.6158 75.2248 51.0496 75.4944 50.3872C75.7641 49.7248 75.8346 48.996 75.6972 48.2928C75.5597 47.5896 75.2204 46.9437 74.7222 46.4367C74.224 45.9298 73.5892 45.5845 72.8981 45.4447C72.2071 45.3048 71.4908 45.3766 70.8398 45.6509C70.1889 45.9253 69.6325 46.3899 69.241 46.9861C68.8496 47.5822 68.6406 48.283 68.6406 49C68.6406 49.9614 69.016 50.8834 69.6841 51.5633C70.3522 52.2431 71.2583 52.625 72.2031 52.625ZM72.2031 47.1875C72.5554 47.1875 72.8998 47.2938 73.1927 47.493C73.4857 47.6921 73.714 47.9752 73.8488 48.3064C73.9836 48.6376 74.0189 49.002 73.9501 49.3536C73.8814 49.7052 73.7118 50.0282 73.4627 50.2816C73.2135 50.5351 72.8962 50.7077 72.5506 50.7777C72.2051 50.8476 71.847 50.8117 71.5215 50.6745C71.196 50.5374 70.9178 50.305 70.7221 50.007C70.5263 49.7089 70.4219 49.3585 70.4219 49C70.4219 48.5193 70.6095 48.0583 70.9436 47.7184C71.2776 47.3785 71.7307 47.1875 72.2031 47.1875Z" fill="white"/>
<path d="M77.5469 30.875H66.8594C66.1507 30.875 65.4711 31.1614 64.9701 31.6713C64.469 32.1812 64.1875 32.8727 64.1875 33.5938V58.0625H42.8125V33.5938C42.8125 32.8727 42.531 32.1812 42.0299 31.6713C41.5289 31.1614 40.8492 30.875 40.1406 30.875H29.4531C28.7445 30.875 28.0649 31.1614 27.5638 31.6713C27.0628 32.1812 26.7812 32.8727 26.7812 33.5938V73.4688C26.7812 74.1898 27.0628 74.8813 27.5638 75.3912C28.0649 75.9011 28.7445 76.1875 29.4531 76.1875H40.1406C40.8492 76.1875 41.5289 75.9011 42.0299 75.3912C42.531 74.8813 42.8125 74.1898 42.8125 73.4688V70.75H64.1875V73.4688C64.1875 74.1898 64.469 74.8813 64.9701 75.3912C65.4711 75.9011 66.1507 76.1875 66.8594 76.1875H77.5469C78.2555 76.1875 78.9351 75.9011 79.4362 75.3912C79.9372 74.8813 80.2188 74.1898 80.2188 73.4688V33.5938C80.2188 32.8727 79.9372 32.1812 79.4362 31.6713C78.9351 31.1614 78.2555 30.875 77.5469 30.875ZM41.0312 73.4688C41.0312 73.7091 40.9374 73.9396 40.7704 74.1096C40.6034 74.2795 40.3768 74.375 40.1406 74.375H29.4531C29.2169 74.375 28.9904 74.2795 28.8234 74.1096C28.6563 73.9396 28.5625 73.7091 28.5625 73.4688V33.5938C28.5625 33.3534 28.6563 33.1229 28.8234 32.9529C28.9904 32.783 29.2169 32.6875 29.4531 32.6875H40.1406C40.3768 32.6875 40.6034 32.783 40.7704 32.9529C40.9374 33.1229 41.0312 33.3534 41.0312 33.5938V73.4688ZM42.8125 68.9375V59.875H64.1875V68.9375H42.8125ZM78.4375 73.4688C78.4375 73.7091 78.3437 73.9396 78.1766 74.1096C78.0096 74.2795 77.7831 74.375 77.5469 74.375H66.8594C66.6232 74.375 66.3966 74.2795 66.2296 74.1096C66.0626 73.9396 65.9688 73.7091 65.9688 73.4688V33.5938C65.9688 33.3534 66.0626 33.1229 66.2296 32.9529C66.3966 32.783 66.6232 32.6875 66.8594 32.6875H77.5469C77.7831 32.6875 78.0096 32.783 78.1766 32.9529C78.3437 33.1229 78.4375 33.3534 78.4375 33.5938V73.4688Z" fill="white"/>
<path d="M50.8281 61.6875H45.4844C45.2482 61.6875 45.0216 61.783 44.8546 61.9529C44.6876 62.1229 44.5938 62.3534 44.5938 62.5938V66.2188C44.5938 66.4591 44.6876 66.6896 44.8546 66.8596C45.0216 67.0295 45.2482 67.125 45.4844 67.125H50.8281C51.0643 67.125 51.2909 67.0295 51.4579 66.8596C51.6249 66.6896 51.7188 66.4591 51.7188 66.2188V62.5938C51.7188 62.3534 51.6249 62.1229 51.4579 61.9529C51.2909 61.783 51.0643 61.6875 50.8281 61.6875ZM49.9375 65.3125H46.375V63.5H49.9375V65.3125Z" fill="white"/>
<path d="M61.5156 61.6875H56.1719C55.9357 61.6875 55.7091 61.783 55.5421 61.9529C55.3751 62.1229 55.2812 62.3534 55.2812 62.5938V66.2188C55.2812 66.4591 55.3751 66.6896 55.5421 66.8596C55.7091 67.0295 55.9357 67.125 56.1719 67.125H61.5156C61.7518 67.125 61.9784 67.0295 62.1454 66.8596C62.3124 66.6896 62.4062 66.4591 62.4062 66.2188V62.5938C62.4062 62.3534 62.3124 62.1229 62.1454 61.9529C61.9784 61.783 61.7518 61.6875 61.5156 61.6875ZM60.625 65.3125H57.0625V63.5H60.625V65.3125Z" fill="white"/>
<path d="M53.4998 23.6247C55.0209 23.6223 56.5275 23.9261 57.9328 24.5185C59.3381 25.1109 60.6144 25.9803 61.6882 27.0767L62.9448 25.7916C60.4396 23.2432 57.0422 21.8115 53.4998 21.8115C49.9573 21.8115 46.5599 23.2432 44.0547 25.7916L45.3114 27.0767C46.3851 25.9803 47.6614 25.1109 49.0667 24.5185C50.472 23.9261 51.9786 23.6223 53.4998 23.6247Z" fill="white"/>
<path d="M60.426 28.358C59.5167 27.432 58.4369 26.6974 57.2485 26.1962C56.06 25.695 54.7861 25.437 53.4996 25.437C52.2131 25.437 50.9393 25.695 49.7508 26.1962C48.5623 26.6974 47.4826 27.432 46.5732 28.358L47.8326 29.6394C49.3357 28.1104 51.3742 27.2514 53.4996 27.2514C55.6251 27.2514 57.6635 28.1104 59.1667 29.6394L60.426 28.358Z" fill="white"/>
<path d="M57.91 30.9254C57.3317 30.3351 56.6446 29.8667 55.8881 29.5471C55.1316 29.2275 54.3205 29.063 53.5014 29.063C52.6822 29.063 51.8712 29.2275 51.1146 29.5471C50.3581 29.8667 49.671 30.3351 49.0928 30.9254L50.3584 32.2014C50.771 31.7808 51.261 31.4472 51.8005 31.2196C52.34 30.9919 52.9182 30.8747 53.5023 30.8747C54.0863 30.8747 54.6646 30.9919 55.204 31.2196C55.7435 31.4472 56.2335 31.7808 56.6462 32.2014L57.91 30.9254Z" fill="white"/>
<path d="M50.8281 35.4063C50.8281 35.944 50.9848 36.4696 51.2784 36.9167C51.572 37.3638 51.9893 37.7123 52.4775 37.9181C52.9657 38.1238 53.503 38.1777 54.0213 38.0728C54.5395 37.9679 55.0156 37.7089 55.3893 37.3287C55.763 36.9485 56.0174 36.464 56.1205 35.9367C56.2236 35.4093 56.1707 34.8626 55.9685 34.3658C55.7663 33.869 55.4238 33.4444 54.9844 33.1457C54.545 32.847 54.0284 32.6875 53.5 32.6875C52.7914 32.6875 52.1118 32.9739 51.6107 33.4838C51.1096 33.9937 50.8281 34.6852 50.8281 35.4063ZM54.3906 35.4063C54.3906 35.5855 54.3384 35.7607 54.2405 35.9097C54.1427 36.0588 54.0036 36.1749 53.8408 36.2435C53.6781 36.3121 53.499 36.3301 53.3262 36.2951C53.1535 36.2601 52.9948 36.1738 52.8702 36.0471C52.7457 35.9203 52.6609 35.7588 52.6265 35.5831C52.5921 35.4073 52.6098 35.225 52.6772 35.0594C52.7446 34.8938 52.8587 34.7523 53.0052 34.6527C53.1517 34.5532 53.3239 34.5 53.5 34.5C53.7362 34.5 53.9627 34.5955 54.1298 34.7654C54.2968 34.9354 54.3906 35.1659 54.3906 35.4063Z" fill="white"/>
</svg>
