<svg width="105" height="106" viewBox="0 0 105 106" fill="none" xmlns="http://www.w3.org/2000/svg">
<path d="M52.4995 98.9314C79.2204 98.9314 100.882 77.2464 100.882 50.4965C100.882 23.7466 79.2204 2.06152 52.4995 2.06152C25.7787 2.06152 4.11719 23.7466 4.11719 50.4965C4.11719 77.2464 25.7787 98.9314 52.4995 98.9314Z" fill="#268CC0"/>
<path d="M60.9082 65.1498C61.0509 65.0616 61.1687 64.9384 61.2504 64.7918C61.3321 64.6453 61.375 64.4803 61.375 64.3125V57.4219C61.375 55.3333 60.5453 53.3303 59.0685 51.8534C57.5916 50.3766 55.5886 49.5469 53.5 49.5469C51.4114 49.5469 49.4084 50.3766 47.9315 51.8534C46.4547 53.3303 45.625 55.3333 45.625 57.4219V64.3125H42.9107C42.3934 64.3111 41.881 64.4123 41.403 64.6103C40.9251 64.8082 40.4912 65.099 40.1264 65.4658L37.3423 68.25H35.7812V67.2656C35.7812 67.0046 35.6775 66.7542 35.4929 66.5696C35.3083 66.385 35.0579 66.2812 34.7969 66.2812H25.9375V68.25H33.8125V80.0625H25.9375V82.0312H34.7969C35.0579 82.0312 35.3083 81.9275 35.4929 81.7429C35.6775 81.5583 35.7812 81.3079 35.7812 81.0469V80.0625H37.3529C39.3953 81.9676 42.0865 83.0235 44.8795 83.0156H50.5469C51.5908 83.0145 52.5916 82.5992 53.3298 81.8611C54.068 81.1229 54.4832 80.1221 54.4844 79.0781V72.1875C54.4833 71.3148 54.1928 70.4671 53.6584 69.7772C53.124 69.0872 52.3759 68.594 51.5312 68.3746V57.4219C51.5312 56.8997 51.7387 56.399 52.1079 56.0298C52.4771 55.6605 52.9779 55.4531 53.5 55.4531C54.0221 55.4531 54.5229 55.6605 54.8921 56.0298C55.2613 56.399 55.4688 56.8997 55.4688 57.4219V62.3438C55.4688 62.5265 55.5197 62.7057 55.6158 62.8612C55.7119 63.0167 55.8494 63.1424 56.0129 63.2242L59.9504 65.1929C60.1004 65.268 60.2672 65.3034 60.4349 65.2959C60.6025 65.2883 60.7654 65.2381 60.9082 65.1498ZM52.5156 72.1875V79.0781C52.515 79.6001 52.3074 80.1005 51.9383 80.4696C51.5692 80.8386 51.0688 81.0463 50.5469 81.0469H44.8795C43.6842 81.0502 42.5001 80.8163 41.3958 80.3589C40.2915 79.9015 39.2889 79.2296 38.4461 78.382C38.3547 78.2906 38.2461 78.2181 38.1267 78.1687C38.0073 78.1192 37.8793 78.0937 37.75 78.0938H35.7812V70.2188H37.75C37.8793 70.2188 38.0073 70.1933 38.1267 70.1438C38.2461 70.0944 38.3547 70.0219 38.4461 69.9305L41.5187 66.8578C41.701 66.6745 41.918 66.5291 42.1569 66.4301C42.3959 66.3311 42.6521 66.2805 42.9107 66.2812H45.625V68.25H43.6562V70.2188H50.5469C51.0688 70.2194 51.5692 70.427 51.9383 70.7961C52.3074 71.1651 52.515 71.6655 52.5156 72.1875ZM59.4062 62.7198L57.4375 61.7354V57.4219C57.4375 56.3776 57.0227 55.3761 56.2842 54.6376C55.5458 53.8992 54.5443 53.4844 53.5 53.4844C52.4557 53.4844 51.4542 53.8992 50.7158 54.6376C49.9773 55.3761 49.5625 56.3776 49.5625 57.4219V68.25H47.5938V57.4219C47.5938 55.8554 48.216 54.3532 49.3237 53.2455C50.4313 52.1379 51.9336 51.5156 53.5 51.5156C55.0664 51.5156 56.5687 52.1379 57.6763 53.2455C58.784 54.3532 59.4062 55.8554 59.4062 57.4219V62.7198Z" fill="white"/>
<path d="M78.1094 22.9688H28.8906C28.6296 22.9688 28.3792 23.0725 28.1946 23.2571C28.01 23.4417 27.9062 23.6921 27.9062 23.9531V64.3125H29.875V24.9375H52.5156V47.5781H54.4844V24.9375H77.125V74.1562H56.4531V76.125H78.1094C78.3704 76.125 78.6208 76.0213 78.8054 75.8367C78.99 75.6521 79.0938 75.4017 79.0938 75.1406V23.9531C79.0938 23.6921 78.99 23.4417 78.8054 23.2571C78.6208 23.0725 78.3704 22.9688 78.1094 22.9688Z" fill="white"/>
<path d="M50.5469 48.5625V27.8906C50.5469 27.6296 50.4432 27.3792 50.2586 27.1946C50.074 27.01 49.8236 26.9062 49.5625 26.9062H32.8281C32.5671 26.9062 32.3167 27.01 32.1321 27.1946C31.9475 27.3792 31.8438 27.6296 31.8438 27.8906V64.3125H33.8125V28.875H48.5781V48.5625H50.5469Z" fill="white"/>
<path d="M56.4531 67.2656V71.2031C56.4531 71.4642 56.5568 71.7146 56.7414 71.8992C56.926 72.0838 57.1764 72.1875 57.4375 72.1875H74.1719C74.4329 72.1875 74.6833 72.0838 74.8679 71.8992C75.0525 71.7146 75.1562 71.4642 75.1562 71.2031V27.8906C75.1562 27.6296 75.0525 27.3792 74.8679 27.1946C74.6833 27.01 74.4329 26.9062 74.1719 26.9062H57.4375C57.1764 26.9062 56.926 27.01 56.7414 27.1946C56.5568 27.3792 56.4531 27.6296 56.4531 27.8906V48.5625H58.4219V28.875H73.1875V70.2188H58.4219V67.2656H56.4531Z" fill="white"/>
<path d="M71.072 43.1231C70.9838 42.9803 70.8606 42.8625 70.714 42.7808C70.5674 42.6991 70.4024 42.6562 70.2346 42.6562H66.8543L64.188 38.2123C64.0893 38.0477 63.9446 37.9156 63.7718 37.8322C63.599 37.7488 63.4056 37.7177 63.2153 37.7428C63.0251 37.7679 62.8463 37.848 62.701 37.9734C62.5557 38.0987 62.4502 38.2638 62.3975 38.4483L60.4287 45.3389L62.3217 45.8803L63.6672 41.1712L65.453 44.1476C65.5405 44.2932 65.6642 44.4138 65.8121 44.4974C65.9601 44.5811 66.1271 44.625 66.2971 44.625H68.6419L67.3854 47.1379C67.3078 47.2931 67.2726 47.4661 67.2834 47.6393C67.2942 47.8125 67.3506 47.9798 67.4469 48.1242L69.1284 50.6467L67.8025 53.9614L65.8584 52.6656C65.7015 52.561 65.5179 52.5037 65.3293 52.5004C65.1408 52.4972 64.9553 52.5481 64.7949 52.6473C64.6345 52.7464 64.5059 52.8895 64.4245 53.0596C64.3431 53.2297 64.3122 53.4196 64.3356 53.6067L65.1262 59.9313L63.6549 59.4409L63.0323 61.3085L65.9854 62.2929C66.1432 62.3455 66.3117 62.3573 66.4753 62.3271C66.6388 62.2969 66.7921 62.2258 66.9207 62.1203C67.0493 62.0149 67.1492 61.8786 67.2108 61.7241C67.2725 61.5697 67.2941 61.4021 67.2734 61.2371L66.5558 55.4963L67.7194 56.2715C67.8412 56.3528 67.9797 56.4058 68.1247 56.4268C68.2697 56.4477 68.4175 56.436 68.5574 56.3926C68.6973 56.3491 68.8257 56.275 68.9334 56.1756C69.041 56.0762 69.125 55.9541 69.1794 55.8181L71.1482 50.8962C71.2075 50.7479 71.2298 50.5875 71.2133 50.4286C71.1967 50.2698 71.1418 50.1174 71.0532 49.9845L69.4013 47.5068L71.1146 44.0803C71.1896 43.9303 71.2251 43.7637 71.2176 43.5961C71.2102 43.4286 71.1601 43.2658 71.072 43.1231Z" fill="white"/>
<path d="M43.6856 40.9262L45.5956 40.4488L43.6268 32.5738C43.5846 32.4048 43.4982 32.25 43.3766 32.1253C43.255 32.0006 43.1025 31.9104 42.9346 31.8639C42.7667 31.8173 42.5895 31.8162 42.4211 31.8606C42.2526 31.905 42.0989 31.9933 41.9758 32.1164L38.0383 36.0539C37.909 36.1832 37.8183 36.3459 37.7762 36.5238C37.7342 36.7018 37.7426 36.8879 37.8004 37.0613L38.4736 39.0805L36.4543 39.7537C36.3107 39.8016 36.1801 39.8819 36.0726 39.9885C35.9651 40.095 35.8836 40.2249 35.8345 40.3681C35.7854 40.5113 35.77 40.6638 35.7894 40.814C35.8088 40.9641 35.8626 41.1077 35.9466 41.2336L37.5985 43.7114L34.9008 49.1066C34.7935 49.3212 34.7683 49.5676 34.8298 49.7995C34.8914 50.0314 35.0355 50.2328 35.2351 50.3659L37.6392 51.9691L36.7842 56.2444C36.7556 56.3873 36.7591 56.5347 36.7944 56.6761C36.8297 56.8174 36.8959 56.9492 36.9883 57.0618C37.0807 57.1744 37.197 57.2652 37.3287 57.3274C37.4604 57.3897 37.6043 57.422 37.75 57.4219H40.7031C40.8559 57.4219 41.0066 57.3863 41.1433 57.318C41.28 57.2496 41.3989 57.1504 41.4906 57.0281L44.4437 53.0906L42.8687 51.9094L40.2109 55.4531H38.9508L39.6996 51.7087C39.7379 51.5174 39.7185 51.3191 39.6438 51.139C39.5692 50.9588 39.4427 50.8048 39.2804 50.6966L37.0502 49.2099L39.6147 44.0809C39.6924 43.9257 39.7275 43.7527 39.7167 43.5794C39.7059 43.4062 39.6495 43.2389 39.5532 43.0946L38.2995 41.2138L40.0299 40.6369C40.2776 40.5544 40.4823 40.3768 40.5991 40.1433C40.7158 39.9098 40.7351 39.6395 40.6525 39.3918L39.8605 37.0159L42.1384 34.7379L43.6856 40.9262Z" fill="white"/>
</svg>
