<svg width="87" height="87" viewBox="0 0 87 87" fill="none" xmlns="http://www.w3.org/2000/svg">
<rect width="87" height="87" rx="17" fill="#0088CC"/>
<path d="M43.9988 16.3462C36.1693 16.3462 29.7994 22.7161 29.7994 30.5457V37.4985C29.7994 37.972 30.1837 38.3559 30.6571 38.3559H35.4173C35.8908 38.3559 36.2747 37.972 36.2747 37.4985V30.5457C36.2747 26.2866 39.7397 22.8216 43.9987 22.8216C48.2578 22.8216 51.7228 26.2866 51.7228 30.5457V37.4985C51.7228 37.972 52.1071 38.3559 52.5807 38.3559H57.3409C57.8143 38.3559 58.1983 37.972 58.1983 37.4985V30.5457C58.1984 22.7161 51.8285 16.3462 43.9988 16.3462ZM56.4836 36.6411H53.4379V30.5457C53.4379 25.3411 49.2036 21.1068 43.999 21.1068C38.7945 21.1068 34.5602 25.3411 34.5602 30.5457V36.6411H31.5145V30.5457C31.5145 23.6616 37.115 18.0611 43.9989 18.0611C50.883 18.0611 56.4836 23.6616 56.4836 30.5457V36.6411Z" fill="white"/>
<path d="M59.3165 36.6417H28.6836C26.6525 36.6417 25 38.2942 25 40.3252V63.3782C25 65.4093 26.6525 67.0617 28.6836 67.0617H59.3165C61.3476 67.0617 63 65.4093 63 63.3781V40.3252C63 38.2942 61.3476 36.6417 59.3165 36.6417ZM61.2852 63.3781C61.2852 64.4637 60.4021 65.3468 59.3165 65.3468H28.6836C27.598 65.3468 26.7148 64.4637 26.7148 63.3781V40.3252C26.7148 39.2396 27.598 38.3565 28.6836 38.3565H59.3165C60.4021 38.3565 61.2852 39.2396 61.2852 40.3252V63.3781Z" fill="white"/>
<path d="M46.8827 52.974C47.8844 52.13 48.4673 50.8961 48.4673 49.57C48.4673 47.1063 46.4629 45.1019 43.9992 45.1019C41.5353 45.1019 39.5309 47.1063 39.5309 49.57C39.5309 50.8961 40.1138 52.13 41.1157 52.9742L40.1518 57.5665C40.0989 57.8194 40.1625 58.0826 40.3254 58.2832C40.4883 58.4836 40.7328 58.6002 40.991 58.6002H47.0073C47.2656 58.6002 47.5101 58.4837 47.6728 58.2832C47.8356 58.0825 47.8993 57.8194 47.8463 57.5667L46.8827 52.974ZM45.4703 51.8883C45.1692 52.08 45.0181 52.4383 45.0915 52.7878L45.9513 56.8852H42.0471L42.9071 52.7881C42.9804 52.4385 42.8296 52.0802 42.5283 51.8886C41.7252 51.3775 41.2458 50.5106 41.2458 49.5701C41.2458 48.052 42.4809 46.8169 43.9992 46.8169C45.5173 46.8169 46.7524 48.052 46.7524 49.5701C46.7526 50.5108 46.2732 51.3775 45.4703 51.8883Z" fill="white"/>
</svg>
