<svg width="87" height="87" viewBox="0 0 87 87" fill="none" xmlns="http://www.w3.org/2000/svg">
<rect width="87" height="87" rx="17" fill="#0088CC"/>
<path d="M65.0847 26.5409L43.6616 15.1256C43.3438 14.956 42.9629 14.9584 42.6475 15.1316L21.8172 26.5469C21.4756 26.7344 21.2637 27.0927 21.2637 27.4825V42.3938C21.2762 54.6513 28.5384 65.7405 39.7692 70.6512L42.6606 71.9112C42.9308 72.0291 43.2385 72.0297 43.5093 71.9124L46.7672 70.5054C58.2064 65.7012 65.6484 54.5049 65.6496 42.098V27.4825C65.6496 27.0885 65.4323 26.726 65.0847 26.5409V26.5409ZM63.5165 42.098C63.5141 53.6497 56.5834 64.0729 45.9322 68.5432L45.9251 68.5467L43.0879 69.7716L40.6227 68.6961C30.1686 64.1252 23.4081 53.8038 23.3962 42.3938V28.114L43.1671 17.2783L63.5165 28.1217V42.098Z" fill="white"/>
<path d="M35.298 41.7022C34.9153 41.2541 34.2422 41.2011 33.794 41.5838C33.3459 41.9659 33.2929 42.6396 33.6756 43.0872L39.3094 49.6846C39.6856 50.1251 40.3444 50.1852 40.7932 49.8197L53.9143 39.1448C54.3714 38.7734 54.4404 38.1015 54.0684 37.6444C53.697 37.1879 53.0251 37.1183 52.568 37.4902L40.2552 47.5069L35.298 41.7022Z" fill="white"/>
<circle cx="44" cy="43" r="14" stroke="white" stroke-width="2"/>
</svg>
