<svg width="107" height="108" viewBox="0 0 107 108" fill="none" xmlns="http://www.w3.org/2000/svg">
<path d="M53.5002 100.816C80.73 100.816 102.804 78.7175 102.804 51.4581C102.804 24.1987 80.73 2.10059 53.5002 2.10059C26.2704 2.10059 4.19629 24.1987 4.19629 51.4581C4.19629 78.7175 26.2704 100.816 53.5002 100.816Z" fill="#268CC0"/>
<g clip-path="url(#clip0)">
<path d="M77.7124 39.4655L77.7107 39.4212C77.6859 38.8737 77.6694 38.2944 77.6594 37.6499C77.6128 34.5071 75.1145 31.9074 71.9712 31.7317C65.4176 31.366 60.3479 29.229 56.0161 25.0068L55.9791 24.9716C54.5662 23.6761 52.4349 23.6761 51.0216 24.9716L50.9846 25.0068C46.6528 29.229 41.5831 31.366 35.0295 31.7322C31.8867 31.9074 29.3879 34.5071 29.3413 37.6504C29.3318 38.2905 29.3148 38.8698 29.29 39.4212L29.2874 39.5243C29.16 46.207 29.0017 54.5239 31.784 62.0729C33.3139 66.2242 35.6309 69.8328 38.6703 72.7991C42.1319 76.1772 46.6659 78.8591 52.1461 80.7699C52.3244 80.8321 52.5097 80.8825 52.6984 80.9204C52.9646 80.9734 53.2325 81 53.5003 81C53.7682 81 54.0365 80.9734 54.3023 80.9204C54.491 80.8825 54.6776 80.8317 54.8567 80.769C60.3305 78.8547 64.8597 76.1715 68.3183 72.7939C71.3563 69.8267 73.6733 66.2173 75.2045 62.0651C77.9972 54.4935 77.8394 46.1609 77.7124 39.4655ZM72.0664 60.9079C69.1319 68.8644 63.1415 74.3285 53.753 77.6119C53.7195 77.6232 53.6839 77.6332 53.6469 77.6406C53.5499 77.6597 53.4512 77.6597 53.3529 77.6401C53.3164 77.6327 53.2807 77.6232 53.2477 77.6119C43.8492 74.3346 37.8549 68.8735 34.9225 60.9166C32.3581 53.9582 32.5033 46.3235 32.6316 39.5882L32.6325 39.5508C32.6586 38.972 32.676 38.3657 32.6855 37.6995C32.7064 36.304 33.8179 35.1494 35.2161 35.0716C38.9247 34.8646 42.1827 34.1479 45.1764 32.8807C48.1662 31.6152 50.8215 29.8313 53.2933 27.4274C53.419 27.3212 53.5821 27.3208 53.7073 27.4274C56.1796 29.8313 58.8349 31.6152 61.8243 32.8807C64.8179 34.1479 68.076 34.8646 71.7851 35.0716C73.1832 35.1494 74.2947 36.304 74.3152 37.7C74.3252 38.3697 74.3426 38.9759 74.3687 39.5508C74.4965 46.2939 74.6383 53.9347 72.0664 60.9079Z" fill="white"/>
<path d="M53.5001 38.2959C45.6672 38.2959 39.2949 44.6686 39.2949 52.5011C39.2949 60.3341 45.6672 66.7067 53.5001 66.7067C61.3327 66.7067 67.7053 60.3341 67.7053 52.5011C67.7053 44.6686 61.3327 38.2959 53.5001 38.2959ZM53.5001 63.3617C47.5115 63.3617 42.6395 58.4898 42.6395 52.5011C42.6395 46.5124 47.5115 41.6405 53.5001 41.6405C59.4884 41.6405 64.3603 46.5124 64.3603 52.5011C64.3603 58.4898 59.4884 63.3617 53.5001 63.3617Z" fill="white"/>
<path d="M57.5825 48.0908L50.9845 54.6887L49.1937 52.8979C48.5405 52.2447 47.4816 52.2447 46.8284 52.8979C46.1757 53.5511 46.1757 54.61 46.8284 55.2628L49.8021 58.2364C50.1287 58.563 50.5566 58.7261 50.9845 58.7261C51.4125 58.7261 51.8404 58.563 52.167 58.2364L59.9478 50.4557C60.6005 49.8025 60.6005 48.7435 59.9478 48.0908C59.2946 47.4372 58.2357 47.4372 57.5825 48.0908Z" fill="white"/>
</g>
<defs>
<clipPath id="clip0">
<rect x="25" y="24" width="57" height="57" fill="white"/>
</clipPath>
</defs>
</svg>
