<svg width="87" height="87" viewBox="0 0 87 87" fill="none" xmlns="http://www.w3.org/2000/svg">
<rect width="87" height="87" rx="17" fill="#0088CC"/>
<path d="M63.6596 34.5373L60.5355 32.8908C60.3201 32.7773 60.0684 32.7539 59.8358 32.826C59.6032 32.898 59.4087 33.0595 59.2952 33.2749C59.1816 33.4903 59.1583 33.742 59.2303 33.9746C59.3024 34.2072 59.4638 34.4017 59.6793 34.5153L62.3135 35.9032V64.3162H52.5845V49.9011C52.5845 49.6577 52.4877 49.4242 52.3156 49.252C52.1434 49.0799 51.91 48.9832 51.6665 48.9832H36.3335C36.09 48.9832 35.8565 49.0799 35.6844 49.252C35.5122 49.4242 35.4155 49.6577 35.4155 49.9011V61.0115C35.4155 61.255 35.5122 61.4884 35.6844 61.6606C35.8565 61.8327 36.09 61.9295 36.3335 61.9295C36.5769 61.9295 36.8104 61.8327 36.9826 61.6606C37.1547 61.4884 37.2515 61.255 37.2515 61.0115V50.8191H50.7485V64.3162H25.6865V35.901L44.4285 26.0237C44.6294 25.9027 44.7764 25.7093 44.8393 25.4833C44.9022 25.2574 44.8761 25.0159 44.7666 24.8085C44.657 24.6011 44.4722 24.4435 44.2501 24.3681C44.028 24.2927 43.7854 24.3051 43.5722 24.4029L24.3404 34.5373C24.1926 34.6152 24.0688 34.7321 23.9825 34.8752C23.8961 35.0184 23.8505 35.1824 23.8506 35.3495V65.2342C23.8506 65.4776 23.9473 65.7111 24.1195 65.8833C24.2916 66.0554 24.5251 66.1521 24.7686 66.1521H63.2314C63.4749 66.1521 63.7084 66.0554 63.8805 65.8833C64.0527 65.7111 64.1494 65.4776 64.1494 65.2342V35.3451C64.1486 35.1787 64.1027 35.0156 64.0164 34.8733C63.9301 34.7311 63.8068 34.6149 63.6596 34.5373Z" fill="white"/>
<path d="M52.0923 43.9015C52.2971 43.925 52.5031 43.9368 52.7092 43.9368C53.8543 43.9398 54.9699 43.5733 55.8902 42.8918C56.8105 42.2104 57.4865 41.2502 57.8177 40.154C58.1489 39.0578 58.1176 37.884 57.7287 36.807C57.3397 35.7299 56.6137 34.8071 55.6585 34.1755V18.7852C55.6585 18.0061 55.349 17.2589 54.7981 16.708C54.2472 16.1571 53.5 15.8477 52.721 15.8477C51.9419 15.8477 51.1947 16.1571 50.6438 16.708C50.0929 17.2589 49.7834 18.0061 49.7834 18.7852V34.1762C48.8736 34.7774 48.1704 35.6437 47.769 36.6577C47.3677 37.6717 47.2875 38.7846 47.5394 39.8457C47.7913 40.9068 48.3632 41.8648 49.1775 42.5902C49.9918 43.3157 51.0093 43.7734 52.0923 43.9015ZM51.1237 35.515C51.2732 35.4377 51.3986 35.3207 51.4862 35.177C51.5737 35.0332 51.6201 34.8681 51.6201 34.6998V18.7852C51.6201 18.493 51.7362 18.2128 51.9428 18.0062C52.1493 17.7997 52.4295 17.6836 52.7217 17.6836C53.0138 17.6836 53.294 17.7997 53.5006 18.0062C53.7072 18.2128 53.8232 18.493 53.8232 18.7852V34.6998C53.8233 34.8681 53.8696 35.0332 53.9572 35.177C54.0448 35.3207 54.1702 35.4377 54.3197 35.515C55.0152 35.8733 55.57 36.4549 55.8951 37.1665C56.2203 37.8781 56.2968 38.6783 56.1125 39.4387C55.9281 40.199 55.4936 40.8753 54.8786 41.3589C54.2637 41.8426 53.504 42.1055 52.7217 42.1055C51.9393 42.1055 51.1797 41.8426 50.5647 41.3589C49.9498 40.8753 49.5153 40.199 49.3309 39.4387C49.1466 38.6783 49.2231 37.8781 49.5482 37.1665C49.8734 36.4549 50.4282 35.8733 51.1237 35.515Z" fill="white"/>
</svg>
