<svg width="107" height="108" viewBox="0 0 107 108" fill="none" xmlns="http://www.w3.org/2000/svg">
<path d="M53.5002 101.115C80.73 101.115 102.804 79.0168 102.804 51.7574C102.804 24.498 80.73 2.3999 53.5002 2.3999C26.2704 2.3999 4.19629 24.498 4.19629 51.7574C4.19629 79.0168 26.2704 101.115 53.5002 101.115Z" fill="#268CC0"/>
<g clip-path="url(#clip0)">
<path d="M60.4614 67.1101C60.4614 69.1836 58.7764 70.8704 56.7052 70.8704C54.634 70.8704 52.949 69.1836 52.949 67.1101C52.949 65.6187 53.8208 64.3275 55.0809 63.72V43.3291C55.0809 42.431 55.8081 41.703 56.7052 41.703C57.6023 41.703 58.3295 42.431 58.3295 43.3291V63.72C59.5896 64.3275 60.4614 65.6187 60.4614 67.1101ZM32.4424 31.2353C32.4424 33.701 30.4386 35.707 27.9756 35.707C25.5126 35.707 23.5088 33.701 23.5088 31.2353C23.5088 28.7696 25.5126 26.7637 27.9756 26.7637C30.4386 26.7637 32.4424 28.7696 32.4424 31.2353ZM29.1938 31.2353C29.1938 30.5628 28.6473 30.0158 27.9756 30.0158C27.3038 30.0158 26.7574 30.5628 26.7574 31.2353C26.7574 31.9078 27.3038 32.4549 27.9756 32.4549C28.6473 32.4549 29.1938 31.9078 29.1938 31.2353ZM44.4415 44.5028C43.7497 43.9312 42.726 44.0295 42.1549 44.7222C39.9541 47.3929 35.5894 45.8373 35.5894 42.3636V37.5871C35.5894 34.1164 39.9519 32.5561 42.1548 35.2283C42.7258 35.9209 43.7497 36.019 44.4414 35.4473C45.1332 34.8756 45.2312 33.8508 44.6602 33.1582C43.3332 31.5486 41.3777 30.6256 39.2948 30.6256C35.4604 30.6256 32.3409 33.7485 32.3409 37.5871V42.3636C32.3409 46.2022 35.4604 49.3252 39.2948 49.3252C41.3781 49.3252 43.3339 48.4018 44.6607 46.7919C45.2316 46.0992 45.1336 45.0744 44.4415 44.5028ZM71.3238 34.0809C71.3238 34.979 70.5966 35.707 69.6995 35.707H63.5069V42.6177H67.6691C68.5663 42.6177 69.2934 43.3457 69.2934 44.2438C69.2934 45.1418 68.5663 45.8698 67.6691 45.8698H63.5069V52.7805H65.6388C66.5359 52.7805 67.2631 53.5085 67.2631 54.4066C67.2631 55.3047 66.5359 56.0326 65.6388 56.0326H63.5069V59.7024C65.5811 61.6051 66.7555 64.2618 66.7555 67.1101C66.7555 72.6579 62.247 77.1713 56.7052 77.1713C51.1634 77.1713 46.6549 72.6579 46.6549 67.1101C46.6549 64.2619 47.8293 61.6051 49.9035 59.7024V33.5728C49.9035 29.8182 52.9547 26.7637 56.7052 26.7637C60.0753 26.7637 62.8792 29.2305 63.4137 32.4549H69.6995C70.5966 32.4549 71.3238 33.1828 71.3238 34.0809ZM63.5069 67.1101C63.5069 64.9964 62.551 63.0384 60.8842 61.7381C60.4892 61.43 60.2583 60.9567 60.2583 60.4555V33.5728C60.2583 31.6114 58.6644 30.0158 56.7052 30.0158C54.746 30.0158 53.1521 31.6114 53.1521 33.5728V60.4555C53.1521 60.9568 52.9212 61.43 52.5262 61.7381C50.8594 63.0384 49.9035 64.9964 49.9035 67.1101C49.9035 70.8647 52.9547 73.9192 56.7052 73.9192C60.4557 73.9192 63.5069 70.8647 63.5069 67.1101Z" fill="white"/>
</g>
<defs>
<clipPath id="clip0">
<rect x="22.2393" y="26.7637" width="50.3529" height="50.4077" fill="white"/>
</clipPath>
</defs>
</svg>
