<svg width="74" height="71" viewBox="0 0 74 71" fill="none" xmlns="http://www.w3.org/2000/svg">
<g filter="url(#filter0_d)">
<rect x="4" width="66" height="62.5263" rx="31.2632" fill="white"/>
</g>
<g clip-path="url(#clip0)" filter="url(#filter1_d)">
<path d="M56.9715 20.8569C56.8755 20.4283 56.5519 20.093 56.1268 19.9822L34.5248 14.3459C34.2205 14.2663 33.9095 14.4488 33.8302 14.753C33.7509 15.0573 33.9331 15.3682 34.2373 15.4476L55.8394 21.0838C55.8487 21.0862 55.8566 21.0883 55.8605 21.1056C55.8643 21.123 55.858 21.1282 55.8507 21.1344L54.7327 22.0678C54.2144 22.5005 53.5953 22.7792 52.9459 22.8897C52.9145 22.895 52.883 22.8993 52.8515 22.9037C52.8172 22.9087 52.7829 22.9134 52.7485 22.9174C52.7109 22.9217 52.6734 22.9255 52.6357 22.9287C52.6102 22.9308 52.5846 22.9326 52.5591 22.9343C52.5141 22.9372 52.4691 22.9398 52.424 22.9411C52.4134 22.9414 52.4027 22.9413 52.392 22.9416C52.093 22.9474 51.7927 22.9183 51.5001 22.8537C51.4988 22.8533 51.4974 22.8533 51.4961 22.853C51.4533 22.8434 51.4103 22.8346 51.3677 22.8236C51.3659 22.8231 51.364 22.8227 51.3622 22.8223L46.1591 21.4648C44.7788 21.1046 43.3418 21.3691 42.1948 22.1695C42.1896 22.1731 42.1845 22.1767 42.1793 22.1803C42.0652 22.2606 41.954 22.3462 41.846 22.4371C41.8335 22.4476 41.821 22.4582 41.8086 22.4689C41.7577 22.5126 41.7073 22.5571 41.6578 22.6032C41.6571 22.6038 41.6564 22.6044 41.6557 22.6051C41.6551 22.6058 41.6544 22.6063 41.6537 22.6069C41.6028 22.6544 41.5505 22.6997 41.4975 22.7438C41.4801 22.7583 41.4624 22.7724 41.4447 22.7866C41.407 22.8169 41.3687 22.8463 41.3299 22.875C41.3099 22.8898 41.2902 22.9048 41.2698 22.9191C41.2242 22.9516 41.1778 22.9826 41.1309 23.0129C41.0999 23.0328 41.0684 23.0519 41.0369 23.0708C41.0045 23.0904 40.9721 23.1097 40.9393 23.1281C40.9063 23.1466 40.8728 23.1644 40.8392 23.1819C40.8163 23.1938 40.7933 23.2053 40.7702 23.2168C40.7315 23.2358 40.6929 23.2548 40.6536 23.2725C40.6517 23.2733 40.6498 23.2741 40.648 23.2749C40.4938 23.344 40.335 23.4023 40.1726 23.4494C40.1709 23.4499 40.1693 23.4504 40.1677 23.4508C39.8387 23.5458 39.4951 23.5951 39.1452 23.5951C38.8325 23.5951 38.5202 23.555 38.217 23.4758L24.2629 19.8351C24.2627 19.8351 24.2624 19.8351 24.2622 19.835L23.7106 19.6911C23.5305 19.6441 23.3795 19.5298 23.2853 19.3691C23.1911 19.2085 23.1652 19.0209 23.2122 18.8407L24.4698 14.0206C24.543 13.7402 24.721 13.505 24.9711 13.3584C25.2213 13.2119 25.5135 13.1716 25.7937 13.2446L31.588 14.7564C31.8922 14.8359 32.2032 14.6536 32.2825 14.3493C32.3619 14.0451 32.1796 13.7341 31.8754 13.6548L26.0812 12.143C25.5064 11.993 24.9077 12.0759 24.3953 12.3762C23.8829 12.6766 23.5181 13.1585 23.3682 13.7333L22.1105 18.5532C21.855 19.5325 22.4439 20.5371 23.4232 20.7926L23.4247 20.793L22.7294 23.4579C22.59 23.9919 22.667 24.5483 22.9461 25.0244C23.2252 25.5006 23.673 25.8396 24.207 25.9789L29.7181 27.4168C29.5473 28.4858 30.2152 29.5335 31.2838 29.8123L31.4204 29.8479L27.9626 36.6463C25.4045 37.606 22.8548 38.5592 21.0923 39.2006V36.5214C21.0923 35.4132 20.1907 34.5115 19.0824 34.5115H17.5693C17.2548 34.5115 17 34.7664 17 35.0808V49.3606C17 49.675 17.2548 49.9299 17.5693 49.9299H19.0824C20.1907 49.9299 21.0923 49.0283 21.0923 47.9201V43.1708C21.7519 42.9371 22.9375 42.499 25.0805 41.698C25.3749 41.588 25.5245 41.26 25.4144 40.9655C25.3044 40.6711 24.9766 40.5216 24.6818 40.6315C22.9041 41.296 21.7901 41.709 21.0923 41.9614V40.4119C22.9057 39.7562 25.746 38.694 28.5696 37.6346C28.7028 37.5846 28.8125 37.4865 28.877 37.3597L32.5481 30.1422L34.1226 30.553L29.9609 38.4285C29.958 38.4339 29.9552 38.4394 29.9526 38.445C29.8713 38.6115 29.7311 38.7391 29.5577 38.8042C28.7112 39.1219 27.9423 39.4104 27.2435 39.6724C26.9491 39.7827 26.8 40.1108 26.9103 40.4052C27.0208 40.6996 27.3488 40.8487 27.6431 40.7384C28.3421 40.4764 29.1112 40.1879 29.9578 39.8701C30.4018 39.7034 30.7615 39.378 30.9714 38.953L35.2542 30.8482L36.1962 31.094C36.3726 31.14 36.5538 31.1633 36.7349 31.1633C36.7351 31.1633 36.735 31.1633 36.7352 31.1633C37.6334 31.1633 38.4266 30.599 38.7319 29.7686L48.3365 32.2745C48.4516 32.3046 48.5702 32.3198 48.6887 32.3198C48.6887 32.3198 48.6887 32.3198 48.6888 32.3198C49.2198 32.3198 49.6941 32.018 49.928 31.559C51.8642 31.2087 53.5348 29.5936 54.0895 27.4677C54.4113 26.2346 54.3303 24.9444 53.8779 23.826C54.4495 23.6343 54.9884 23.3376 55.4623 22.9418L56.5804 22.0084C56.9175 21.7269 57.0674 21.2857 56.9715 20.8569ZM19.9538 40.0118V42.7657V47.9201H19.9537C19.9537 48.4005 19.5628 48.7914 19.0823 48.7914H18.1385V35.6501H19.0824C19.5629 35.6501 19.9538 36.041 19.9538 36.5215V40.0118ZM36.7351 30.0248C36.6508 30.0248 36.5662 30.0139 36.4836 29.9923L31.5712 28.7106C31.111 28.5905 30.8105 28.1643 30.8309 27.7072L36.2347 29.117L37.6198 29.4784C37.4543 29.8081 37.1147 30.0248 36.7351 30.0248ZM48.8318 30.9105C48.8117 30.9876 48.8092 31.0665 48.8213 31.143C48.7823 31.167 48.737 31.1813 48.6887 31.1813C48.6671 31.1813 48.6453 31.1785 48.6239 31.1729L24.4945 24.8773C24.2547 24.8148 24.0536 24.6626 23.9282 24.4487C23.803 24.2349 23.7684 23.9851 23.8309 23.7454L24.5262 21.0805L37.9295 24.5776C38.3362 24.6837 38.7476 24.7356 39.1553 24.7356C40.2837 24.7356 41.382 24.3376 42.2617 23.5897C42.3198 23.5404 42.3768 23.4895 42.4328 23.4373C42.4844 23.3891 42.5374 23.3432 42.5912 23.2984C42.6086 23.284 42.6262 23.2699 42.6438 23.2558C42.6814 23.2255 42.7195 23.1962 42.7581 23.1676C42.7784 23.1526 42.7985 23.1374 42.8191 23.1229C42.8635 23.0913 42.9087 23.0611 42.9543 23.0316C42.9874 23.0103 43.021 22.9898 43.0548 22.9696C43.0858 22.9509 43.1168 22.9324 43.1483 22.9148C43.1822 22.8958 43.2164 22.8775 43.2509 22.8597C43.2727 22.8483 43.2946 22.8373 43.3166 22.8265C43.5098 22.7311 43.7108 22.6523 43.9178 22.5923C43.918 22.5923 43.9184 22.5922 43.9186 22.5921C44.2482 22.4967 44.5927 22.4473 44.9433 22.4473C45.2561 22.4473 45.5684 22.4874 45.8716 22.5666L48.7298 23.3123L50.6814 23.8215L48.8318 30.9105ZM52.9878 27.1804C52.6011 28.6626 51.5554 29.8323 50.2945 30.2869L51.9175 24.0663C52.1916 24.0883 52.4659 24.087 52.7377 24.0633C52.739 24.0633 52.7403 24.0632 52.7417 24.0631C53.1753 24.9964 53.2666 26.1119 52.9878 27.1804Z" fill="black"/>
</g>
<defs>
<filter id="filter0_d" x="0" y="0" width="74" height="70.5263" filterUnits="userSpaceOnUse" color-interpolation-filters="sRGB">
<feFlood flood-opacity="0" result="BackgroundImageFix"/>
<feColorMatrix in="SourceAlpha" type="matrix" values="0 0 0 0 0 0 0 0 0 0 0 0 0 0 0 0 0 0 127 0"/>
<feOffset dy="4"/>
<feGaussianBlur stdDeviation="2"/>
<feColorMatrix type="matrix" values="0 0 0 0 0 0 0 0 0 0 0 0 0 0 0 0 0 0 0.3 0"/>
<feBlend mode="normal" in2="BackgroundImageFix" result="effect1_dropShadow"/>
<feBlend mode="normal" in="SourceGraphic" in2="effect1_dropShadow" result="shape"/>
</filter>
<filter id="filter1_d" x="13" y="11" width="48" height="48" filterUnits="userSpaceOnUse" color-interpolation-filters="sRGB">
<feFlood flood-opacity="0" result="BackgroundImageFix"/>
<feColorMatrix in="SourceAlpha" type="matrix" values="0 0 0 0 0 0 0 0 0 0 0 0 0 0 0 0 0 0 127 0"/>
<feOffset dy="4"/>
<feGaussianBlur stdDeviation="2"/>
<feColorMatrix type="matrix" values="0 0 0 0 0 0 0 0 0 0 0 0 0 0 0 0 0 0 0.25 0"/>
<feBlend mode="normal" in2="BackgroundImageFix" result="effect1_dropShadow"/>
<feBlend mode="normal" in="SourceGraphic" in2="effect1_dropShadow" result="shape"/>
</filter>
<clipPath id="clip0">
<rect width="40" height="40" fill="white" transform="translate(17 11)"/>
</clipPath>
</defs>
</svg>
