<svg width="69" height="69" viewBox="0 0 69 69" fill="none" xmlns="http://www.w3.org/2000/svg">
<g filter="url(#filter0_d)">
<rect x="4.65" y="0.65" width="58.9029" height="58.9029" rx="9.35" fill="white" stroke="#0088CC" stroke-width="1.3"/>
<path d="M53.9736 21.1176C53.8848 20.7211 53.5855 20.411 53.1923 20.3085L33.2104 15.095C32.929 15.0213 32.6413 15.1901 32.568 15.4715C32.4945 15.7529 32.6631 16.0406 32.9445 16.114L52.9264 21.3275C52.935 21.3297 52.9424 21.3316 52.9459 21.3477C52.9495 21.3637 52.9437 21.3686 52.9369 21.3743L51.9027 22.2377C51.4233 22.6379 50.8507 22.8957 50.2499 22.9979C50.2209 23.0028 50.1917 23.0068 50.1626 23.0109C50.1309 23.0155 50.0992 23.0199 50.0674 23.0236C50.0326 23.0276 49.9979 23.031 49.963 23.034C49.9394 23.036 49.9158 23.0377 49.8921 23.0392C49.8505 23.0419 49.8089 23.0443 49.7672 23.0455C49.7574 23.0458 49.7475 23.0457 49.7376 23.0459C49.461 23.0513 49.1833 23.0244 48.9126 22.9646C48.9113 22.9643 48.9101 22.9643 48.9089 22.964C48.8693 22.9551 48.8295 22.947 48.7901 22.9368C48.7884 22.9364 48.7867 22.936 48.785 22.9356L43.9721 21.6799C42.6954 21.3467 41.3662 21.5914 40.3052 22.3318C40.3004 22.3351 40.2956 22.3384 40.2909 22.3418C40.1853 22.416 40.0824 22.4952 39.9826 22.5793C39.971 22.589 39.9594 22.5988 39.9479 22.6087C39.9008 22.6492 39.8542 22.6903 39.8085 22.7329C39.8078 22.7335 39.8072 22.7341 39.8065 22.7347C39.8059 22.7353 39.8053 22.7358 39.8047 22.7363C39.7576 22.7803 39.7092 22.8222 39.6602 22.863C39.6441 22.8764 39.6277 22.8895 39.6113 22.9025C39.5764 22.9306 39.541 22.9578 39.5052 22.9843C39.4867 22.998 39.4684 23.0119 39.4496 23.0252C39.4074 23.0552 39.3645 23.0839 39.3211 23.1119C39.2924 23.1303 39.2633 23.148 39.2341 23.1655C39.2042 23.1836 39.1742 23.2014 39.1438 23.2185C39.1133 23.2356 39.0824 23.2521 39.0513 23.2682C39.0301 23.2793 39.0088 23.2899 38.9874 23.3005C38.9516 23.3181 38.9159 23.3357 38.8796 23.352C38.8778 23.3528 38.8761 23.3535 38.8744 23.3543C38.7318 23.4182 38.5849 23.4721 38.4346 23.5157C38.4331 23.5161 38.4316 23.5166 38.4302 23.517C38.1258 23.6048 37.8079 23.6504 37.4843 23.6504C37.1951 23.6504 36.9061 23.6133 36.6258 23.5401L23.7182 20.1725C23.718 20.1724 23.7177 20.1724 23.7175 20.1723L23.2073 20.0392C23.0407 19.9957 22.901 19.89 22.8139 19.7414C22.7268 19.5928 22.7028 19.4193 22.7463 19.2526L23.9096 14.794C23.9772 14.5346 24.1419 14.3171 24.3733 14.1815C24.6047 14.046 24.875 14.0087 25.1342 14.0762L30.4939 15.4746C30.7753 15.5482 31.063 15.3795 31.1363 15.0981C31.2097 14.8167 31.0411 14.529 30.7597 14.4556L25.4001 13.0573C24.8684 12.9185 24.3147 12.9952 23.8407 13.273C23.3667 13.5509 23.0293 13.9966 22.8906 14.5283L21.7273 18.9867C21.4909 19.8925 22.0356 20.8218 22.9415 21.0582L22.9428 21.0585L22.2997 23.5235C22.1707 24.0175 22.2419 24.5321 22.5001 24.9726C22.7583 25.413 23.1726 25.7266 23.6665 25.8555L28.7643 27.1855C28.6063 28.1744 29.224 29.1435 30.2125 29.4013L30.3389 29.4343L27.1404 35.7228C24.7742 36.6105 22.4157 37.4922 20.7854 38.0855V35.6073C20.7854 34.5822 19.9514 33.7482 18.9262 33.7482H17.5266C17.2357 33.7482 17 33.9839 17 34.2748V47.4835C17 47.7743 17.2357 48.0101 17.5266 48.0101H18.9262C19.9514 48.0101 20.7854 47.1761 20.7854 46.151V41.758C21.3955 41.5418 22.4922 41.1365 24.4744 40.3957C24.7468 40.2938 24.8851 39.9905 24.7833 39.7181C24.6815 39.4457 24.3783 39.3075 24.1057 39.4092C22.4613 40.0238 21.4308 40.4058 20.7853 40.6393V39.2059C22.4628 38.5995 25.0901 37.617 27.7019 36.637C27.8251 36.5907 27.9266 36.5 27.9863 36.3827L31.382 29.7065L32.8384 30.0865L28.9889 37.3713C28.9862 37.3763 28.9836 37.3815 28.9811 37.3866C28.906 37.5407 28.7763 37.6587 28.6159 37.7189C27.8329 38.0128 27.1217 38.2796 26.4753 38.522C26.2029 38.624 26.065 38.9275 26.167 39.1998C26.2692 39.4721 26.5727 39.6101 26.8449 39.508C27.4915 39.2656 28.2028 38.9988 28.986 38.7048C29.3967 38.5506 29.7294 38.2496 29.9236 37.8565L33.8852 30.3596L34.7565 30.5869C34.9196 30.6295 35.0873 30.6511 35.2548 30.6511C35.2549 30.6511 35.2549 30.6511 35.255 30.6511C36.0859 30.6511 36.8196 30.1291 37.102 29.3609L45.9862 31.6789C46.0928 31.7067 46.2024 31.7208 46.312 31.7208C46.3121 31.7208 46.312 31.7208 46.3122 31.7208C46.8034 31.7208 47.2421 31.4416 47.4584 31.017C49.2494 30.693 50.7947 29.199 51.3077 27.2326C51.6055 26.092 51.5305 24.8985 51.112 23.864C51.6408 23.6867 52.1392 23.4122 52.5777 23.0461L53.6119 22.1827C53.9237 21.9223 54.0624 21.5142 53.9736 21.1176ZM19.7323 38.8359V41.3832V46.151H19.7322C19.7322 46.5955 19.3706 46.957 18.9262 46.957H18.0531V34.8014H18.9262C19.3707 34.8014 19.7323 35.1629 19.7323 35.6073V38.8359ZM35.2549 29.5979C35.177 29.5979 35.0988 29.5878 35.0223 29.5679L30.4784 28.3823C30.0527 28.2712 29.7747 27.8769 29.7936 27.4541L34.7921 28.7582L36.0734 29.0925C35.9202 29.3975 35.6061 29.5979 35.2549 29.5979ZM46.4444 30.4172C46.4258 30.4885 46.4235 30.5615 46.4347 30.6322C46.3986 30.6545 46.3567 30.6677 46.312 30.6677C46.2921 30.6677 46.2719 30.6651 46.2521 30.6599L23.9324 24.8365C23.7106 24.7786 23.5246 24.6379 23.4086 24.4401C23.2927 24.2423 23.2607 24.0112 23.3185 23.7895L23.9617 21.3245L36.3597 24.5592C36.736 24.6574 37.1165 24.7054 37.4937 24.7054C38.5374 24.7054 39.5533 24.3373 40.3671 23.6454C40.4208 23.5998 40.4735 23.5528 40.5254 23.5044C40.573 23.4598 40.6221 23.4174 40.6718 23.376C40.6879 23.3627 40.7043 23.3496 40.7205 23.3366C40.7553 23.3086 40.7906 23.2815 40.8263 23.255C40.845 23.2412 40.8636 23.2271 40.8826 23.2136C40.9238 23.1844 40.9655 23.1565 41.0077 23.1292C41.0384 23.1095 41.0694 23.0906 41.1007 23.0719C41.1293 23.0546 41.158 23.0375 41.1872 23.0211C41.2185 23.0036 41.2502 22.9867 41.282 22.9702C41.3022 22.9597 41.3225 22.9495 41.3429 22.9395C41.5216 22.8512 41.7075 22.7784 41.899 22.7229C41.8992 22.7228 41.8995 22.7227 41.8997 22.7227C42.2046 22.6344 42.5232 22.5888 42.8475 22.5888C43.1369 22.5888 43.4258 22.6258 43.7062 22.699L46.3501 23.3888L48.1553 23.8598L46.4444 30.4172ZM50.2887 26.9668C49.931 28.3378 48.9637 29.4199 47.7974 29.8404L49.2987 24.0863C49.5522 24.1067 49.8059 24.1055 50.0573 24.0836C50.0586 24.0835 50.0598 24.0834 50.0611 24.0834C50.4622 24.9466 50.5466 25.9784 50.2887 26.9668Z" fill="#0088CC"/>
</g>
<defs>
<filter id="filter0_d" x="0" y="0" width="68.2029" height="68.2029" filterUnits="userSpaceOnUse" color-interpolation-filters="sRGB">
<feFlood flood-opacity="0" result="BackgroundImageFix"/>
<feColorMatrix in="SourceAlpha" type="matrix" values="0 0 0 0 0 0 0 0 0 0 0 0 0 0 0 0 0 0 127 0"/>
<feOffset dy="4"/>
<feGaussianBlur stdDeviation="2"/>
<feColorMatrix type="matrix" values="0 0 0 0 0 0 0 0 0 0 0 0 0 0 0 0 0 0 0.25 0"/>
<feBlend mode="normal" in2="BackgroundImageFix" result="effect1_dropShadow"/>
<feBlend mode="normal" in="SourceGraphic" in2="effect1_dropShadow" result="shape"/>
</filter>
</defs>
</svg>
