<svg width="69" height="69" viewBox="0 0 69 69" fill="none" xmlns="http://www.w3.org/2000/svg">
<g filter="url(#filter0_d)">
<rect x="4.65" y="0.65" width="58.9029" height="58.9" rx="9.35" fill="white" stroke="#0088CC" stroke-width="1.3"/>
<path d="M57.9382 32.0305L56.4695 29.8274C56.4149 29.7461 56.331 29.6898 56.235 29.6708L45.4216 27.5451C44.6356 26.9814 37.9301 22.3202 31.1953 22.3202C24.819 22.3202 20.917 23.52 20.1775 23.7684L18.0927 23.0735C17.8987 23.0097 17.6922 23.1134 17.6284 23.3056C17.5641 23.4981 17.6681 23.7061 17.8603 23.7699L20.0634 24.5044C20.142 24.5305 20.2273 24.529 20.3048 24.5015C20.3449 24.4868 24.3757 23.0546 31.1952 23.0546C37.9673 23.0546 44.9847 28.1347 45.0543 28.186C45.0981 28.2179 45.1483 28.2398 45.2006 28.2502L55.943 30.3622L57.2654 32.3455V36.2734C57.2654 36.2762 57.2603 36.5602 56.8257 36.6477C56.265 36.7596 53.7313 36.9333 52.4698 37.0085C52.2675 37.0208 52.1133 37.1943 52.1256 37.3965C52.137 37.5916 52.299 37.7423 52.492 37.7423C52.4992 37.7423 52.5063 37.7423 52.5144 37.7414C52.6649 37.7321 56.2199 37.5183 56.9708 37.3677C57.7848 37.2042 57.9999 36.5802 57.9999 36.2733V32.2343C57.9999 32.1618 57.9784 32.0908 57.9382 32.0305Z" fill="#0088CC"/>
<path d="M18.3176 24.7545C18.2423 24.5655 18.0271 24.4741 17.8403 24.5497C14.1408 26.0295 11.9342 28.2108 11.842 28.303C11.7731 28.3718 11.7344 28.4651 11.7344 28.5626V30.679L11.0387 32.0702C11.0133 32.1211 11 32.1774 11 32.2344V35.9063C11 36.0052 11.0452 36.5238 11.9377 36.9692C12.7058 37.352 15.4206 37.7007 15.7279 37.7394C15.7433 37.7408 15.7588 37.7423 15.7738 37.7423C15.9564 37.7423 16.1145 37.606 16.1378 37.421C16.1629 37.2195 16.0202 37.0358 15.819 37.0108C15.0194 36.9105 12.822 36.5898 12.2654 36.3123C11.8032 36.0815 11.7362 35.8834 11.7344 35.9035V32.3213L12.4301 30.93C12.4554 30.879 12.4687 30.8227 12.4687 30.7657V28.72C12.9478 28.2751 14.9979 26.4778 18.1128 25.2317C18.301 25.1564 18.3928 24.9427 18.3176 24.7545Z" fill="#0088CC"/>
<path d="M43.6797 37.0079H24.5859C24.383 37.0079 24.2188 37.1721 24.2188 37.375C24.2188 37.578 24.383 37.7423 24.5859 37.7423H43.6797C43.8827 37.7423 44.0468 37.578 44.0468 37.375C44.0468 37.1721 43.8827 37.0079 43.6797 37.0079Z" fill="#0088CC"/>
<path d="M34.8672 29.6642H33.3984C33.1955 29.6642 33.0312 29.8283 33.0312 30.0314C33.0312 30.2343 33.1955 30.3985 33.3984 30.3985H34.8672C35.0702 30.3985 35.2343 30.2343 35.2343 30.0314C35.2343 29.8283 35.0702 29.6642 34.8672 29.6642Z" fill="#0088CC"/>
<path d="M26.789 29.6642H25.3203C25.1174 29.6642 24.9531 29.8283 24.9531 30.0314C24.9531 30.2343 25.1174 30.3985 25.3203 30.3985H26.789C26.992 30.3985 27.1562 30.2343 27.1562 30.0314C27.1562 29.8283 26.992 29.6642 26.789 29.6642Z" fill="#0088CC"/>
<path d="M43.6797 27.4611H26.0548C22.6651 27.4611 21.2985 24.8373 21.2422 24.7258C21.1504 24.5451 20.9313 24.4716 20.7491 24.563C20.5683 24.6541 20.4953 24.8739 20.5856 25.055C20.6498 25.1834 22.2003 28.1954 26.0547 28.1954H43.6797C43.8827 28.1954 44.0469 28.0312 44.0469 27.8284C44.0469 27.6253 43.8827 27.4611 43.6797 27.4611Z" fill="#0088CC"/>
<path d="M17.9766 23.0548C17.7735 23.0548 17.6094 23.2191 17.6094 23.422V24.1564C17.6094 24.3594 17.7735 24.5236 17.9766 24.5236C18.1795 24.5236 18.3438 24.3593 18.3437 24.1564V23.422C18.3437 23.2191 18.1795 23.0548 17.9766 23.0548Z" fill="#0088CC"/>
<path d="M13.5704 33.336H11.3672C11.1643 33.336 11 33.5003 11 33.7032C11 33.9062 11.1643 34.0704 11.3672 34.0704H13.5704C13.7733 34.0704 13.9375 33.9062 13.9375 33.7032C13.9375 33.5003 13.7733 33.336 13.5704 33.336Z" fill="#0088CC"/>
<path d="M16.1145 29.1606C16.0392 28.9721 15.8241 28.8803 15.6373 28.956L11.9654 30.4247C11.7772 30.5 11.6854 30.7138 11.7607 30.902C11.8181 31.0458 11.9562 31.1329 12.1017 31.1329C12.1472 31.1329 12.1935 31.1246 12.238 31.1067L15.9098 29.6379C16.098 29.5626 16.1898 29.3489 16.1145 29.1606Z" fill="#0088CC"/>
<path d="M15.8456 28.937L12.1737 28.2026C11.9733 28.1618 11.7811 28.2919 11.7416 28.4906C11.7017 28.6895 11.8308 28.8828 12.0295 28.9227L15.7014 29.657C15.7259 29.6621 15.7503 29.6642 15.7739 29.6642C15.9452 29.6642 16.0987 29.5436 16.1335 29.3691C16.1733 29.17 16.0443 28.9767 15.8456 28.937Z" fill="#0088CC"/>
<path d="M31.5554 27.0217L30.821 23.3498C30.7812 23.1509 30.5912 23.0196 30.3889 23.0619C30.1902 23.1017 30.0611 23.295 30.101 23.494L30.8353 27.1659C30.8701 27.3405 31.0236 27.461 31.195 27.461C31.2187 27.461 31.2431 27.4589 31.2674 27.4538C31.466 27.414 31.5952 27.2207 31.5554 27.0217Z" fill="#0088CC"/>
<path d="M57.6932 31.8722L53.287 31.1379C53.0889 31.1016 52.8982 31.2393 52.8645 31.4398C52.8308 31.6399 52.9663 31.8289 53.1664 31.8622L57.5726 32.5966C57.5927 32.6002 57.6135 32.6016 57.6336 32.6016C57.8093 32.6016 57.9649 32.474 57.9951 32.2947C58.0288 32.0945 57.8932 31.9056 57.6932 31.8722Z" fill="#0088CC"/>
<path d="M53.3907 31.1717L51.9219 30.4373C51.7412 30.3476 51.5203 30.4204 51.4293 30.6015C51.339 30.7829 51.4121 31.0034 51.5935 31.0942L53.0622 31.8285C53.1153 31.8547 53.1712 31.8673 53.2265 31.8673C53.3605 31.8673 53.4904 31.793 53.5549 31.6644C53.6453 31.4829 53.5722 31.2624 53.3907 31.1717Z" fill="#0088CC"/>
<path d="M55.1858 30.3985H51.7578C51.5548 30.3985 51.3906 30.5628 51.3906 30.7657C51.3906 30.9686 51.5548 31.1329 51.7578 31.1329H55.1858C55.3888 31.1329 55.553 30.9686 55.553 30.7657C55.553 30.5628 55.3888 30.3985 55.1858 30.3985Z" fill="#0088CC"/>
<path d="M48.1081 36.2735H48.1002C47.898 36.2735 47.7373 36.4377 47.7373 36.6406C47.7373 36.8436 47.9051 37.0079 48.1081 37.0079C48.3103 37.0079 48.4752 36.8436 48.4752 36.6406C48.4752 36.4377 48.3103 36.2735 48.1081 36.2735Z" fill="#0088CC"/>
<path d="M48.0859 32.6017C45.8591 32.6017 44.0469 34.4132 44.0469 36.6407C44.0469 38.8682 45.8591 40.6798 48.0859 40.6798C50.3126 40.6798 52.125 38.8682 52.125 36.6407C52.125 34.4132 50.3126 32.6017 48.0859 32.6017ZM48.0859 39.9454C46.2636 39.9454 44.7812 38.4631 44.7812 36.6406C44.7812 34.8184 46.2636 33.336 48.0859 33.336C49.9083 33.336 51.3906 34.8184 51.3906 36.6406C51.3906 38.463 49.9083 39.9454 48.0859 39.9454Z" fill="#0088CC"/>
<path d="M48.0859 34.0704C47.883 34.0704 47.7188 34.2346 47.7188 34.4375V35.1719C47.7188 35.3749 47.883 35.5391 48.0859 35.5391C48.2889 35.5391 48.4532 35.3749 48.4532 35.1719V34.4375C48.4532 34.2346 48.2889 34.0704 48.0859 34.0704Z" fill="#0088CC"/>
<path d="M48.0859 37.7423C47.883 37.7423 47.7188 37.9065 47.7188 38.1094V38.8437C47.7188 39.0467 47.883 39.211 48.0859 39.211C48.2889 39.211 48.4532 39.0467 48.4532 38.8437V38.1094C48.4532 37.9065 48.2889 37.7423 48.0859 37.7423Z" fill="#0088CC"/>
<path d="M46.6172 36.2735H45.8828C45.6799 36.2735 45.5156 36.4377 45.5156 36.6406C45.5156 36.8436 45.6799 37.0079 45.8828 37.0079H46.6172C46.8202 37.0079 46.9844 36.8436 46.9844 36.6406C46.9844 36.4377 46.8202 36.2735 46.6172 36.2735Z" fill="#0088CC"/>
<path d="M50.289 36.2735H49.5546C49.3517 36.2735 49.1875 36.4377 49.1875 36.6406C49.1875 36.8436 49.3517 37.0079 49.5546 37.0079H50.289C50.492 37.0079 50.6562 36.8436 50.6562 36.6406C50.6562 36.4377 50.492 36.2735 50.289 36.2735Z" fill="#0088CC"/>
<path d="M47.3071 35.3427L46.7879 34.8235C46.6445 34.68 46.4121 34.68 46.2687 34.8235C46.1253 34.9669 46.1253 35.1993 46.2687 35.3427L46.7879 35.8618C46.8596 35.9335 46.9536 35.9694 47.0475 35.9694C47.1415 35.9694 47.2354 35.9335 47.3071 35.8618C47.4505 35.7185 47.4505 35.4861 47.3071 35.3427Z" fill="#0088CC"/>
<path d="M49.9029 37.9388L49.3836 37.4195C49.2402 37.2761 49.0078 37.2761 48.8644 37.4195C48.721 37.563 48.721 37.7953 48.8644 37.9388L49.3836 38.458C49.4553 38.5297 49.5493 38.5655 49.6432 38.5655C49.7371 38.5655 49.8312 38.5298 49.9029 38.458C50.0463 38.3146 50.0463 38.0822 49.9029 37.9388Z" fill="#0088CC"/>
<path d="M47.3071 37.4195C47.1637 37.2761 46.9313 37.2761 46.7879 37.4195L46.2687 37.9388C46.1253 38.0821 46.1253 38.3146 46.2687 38.458C46.3404 38.5297 46.4344 38.5655 46.5283 38.5655C46.6222 38.5655 46.7162 38.5298 46.7879 38.458L47.3071 37.9388C47.4505 37.7953 47.4505 37.563 47.3071 37.4195Z" fill="#0088CC"/>
<path d="M49.9029 34.8235C49.7594 34.68 49.5271 34.68 49.3836 34.8235L48.8644 35.3427C48.721 35.4861 48.721 35.7184 48.8644 35.8618C48.9361 35.9335 49.0301 35.9694 49.1241 35.9694C49.218 35.9694 49.3119 35.9335 49.3836 35.8618L49.9029 35.3427C50.0463 35.1993 50.0463 34.9669 49.9029 34.8235Z" fill="#0088CC"/>
<path d="M20.2018 36.2735H20.1947C19.9917 36.2735 19.8311 36.4377 19.8311 36.6406C19.8311 36.8436 19.9992 37.0079 20.2018 37.0079C20.4047 37.0079 20.569 36.8436 20.569 36.6406C20.569 36.4377 20.4047 36.2735 20.2018 36.2735Z" fill="#0088CC"/>
<path d="M20.179 32.6017C17.9522 32.6017 16.1406 34.4132 16.1406 36.6407C16.1406 38.8682 17.9522 40.6798 20.179 40.6798C22.406 40.6798 24.218 38.8682 24.218 36.6407C24.218 34.4132 22.4061 32.6017 20.179 32.6017ZM20.179 39.9454C18.3571 39.9454 16.8751 38.4631 16.8751 36.6406C16.8751 34.8184 18.357 33.336 20.179 33.336C22.0012 33.336 23.4836 34.8184 23.4836 36.6406C23.4836 38.463 22.0013 39.9454 20.179 39.9454Z" fill="#0088CC"/>
<path d="M20.1797 34.0704C19.9768 34.0704 19.8125 34.2346 19.8125 34.4375V35.1719C19.8125 35.3749 19.9768 35.5391 20.1797 35.5391C20.3826 35.5391 20.5469 35.3749 20.5469 35.1719V34.4375C20.5469 34.2346 20.3826 34.0704 20.1797 34.0704Z" fill="#0088CC"/>
<path d="M20.1797 37.7423C19.9768 37.7423 19.8125 37.9065 19.8125 38.1094V38.8437C19.8125 39.0467 19.9768 39.211 20.1797 39.211C20.3826 39.211 20.5469 39.0467 20.5469 38.8437V38.1094C20.5469 37.9065 20.3826 37.7423 20.1797 37.7423Z" fill="#0088CC"/>
<path d="M18.7102 36.2735H17.9766C17.7735 36.2735 17.6094 36.4377 17.6094 36.6406C17.6094 36.8436 17.7735 37.0079 17.9766 37.0079H18.7102C18.913 37.0079 19.0774 36.8436 19.0774 36.6406C19.0774 36.4377 18.9131 36.2735 18.7102 36.2735Z" fill="#0088CC"/>
<path d="M22.3828 36.2735H21.6484C21.4455 36.2735 21.2812 36.4377 21.2812 36.6406C21.2812 36.8436 21.4455 37.0079 21.6484 37.0079H22.3828C22.5857 37.0079 22.75 36.8436 22.75 36.6406C22.75 36.4377 22.5857 36.2735 22.3828 36.2735Z" fill="#0088CC"/>
<path d="M19.4009 35.3427L18.8817 34.8235C18.7383 34.68 18.5059 34.68 18.3624 34.8235C18.219 34.9669 18.219 35.1993 18.3624 35.3427L18.8817 35.8618C18.9534 35.9335 19.0474 35.9694 19.1413 35.9694C19.2353 35.9694 19.3292 35.9335 19.4009 35.8618C19.5443 35.7185 19.5443 35.4861 19.4009 35.3427Z" fill="#0088CC"/>
<path d="M21.9976 37.9388L21.4784 37.4195C21.3349 37.2761 21.1025 37.2761 20.9591 37.4195C20.8157 37.563 20.8157 37.7953 20.9591 37.9388L21.4784 38.458C21.5501 38.5297 21.6441 38.5655 21.738 38.5655C21.832 38.5655 21.9259 38.5298 21.9976 38.458C22.141 38.3146 22.141 38.0822 21.9976 37.9388Z" fill="#0088CC"/>
<path d="M19.4009 37.4195C19.2575 37.2761 19.0251 37.2761 18.8817 37.4195L18.3624 37.9388C18.219 38.0821 18.219 38.3146 18.3624 38.458C18.4342 38.5297 18.5281 38.5655 18.622 38.5655C18.7159 38.5655 18.8099 38.5298 18.8817 38.458L19.4009 37.9388C19.5443 37.7953 19.5443 37.563 19.4009 37.4195Z" fill="#0088CC"/>
<path d="M21.9976 34.8235C21.8542 34.68 21.6218 34.68 21.4784 34.8235L20.9591 35.3427C20.8157 35.4861 20.8157 35.7184 20.9591 35.8618C21.0308 35.9335 21.1248 35.9694 21.2187 35.9694C21.3127 35.9694 21.4067 35.9335 21.4784 35.8618L21.9976 35.3427C22.141 35.1993 22.141 34.9669 21.9976 34.8235Z" fill="#0088CC"/>
</g>
<defs>
<filter id="filter0_d" x="0" y="0" width="68.2029" height="68.2" filterUnits="userSpaceOnUse" color-interpolation-filters="sRGB">
<feFlood flood-opacity="0" result="BackgroundImageFix"/>
<feColorMatrix in="SourceAlpha" type="matrix" values="0 0 0 0 0 0 0 0 0 0 0 0 0 0 0 0 0 0 127 0"/>
<feOffset dy="4"/>
<feGaussianBlur stdDeviation="2"/>
<feColorMatrix type="matrix" values="0 0 0 0 0 0 0 0 0 0 0 0 0 0 0 0 0 0 0.25 0"/>
<feBlend mode="normal" in2="BackgroundImageFix" result="effect1_dropShadow"/>
<feBlend mode="normal" in="SourceGraphic" in2="effect1_dropShadow" result="shape"/>
</filter>
</defs>
</svg>
