<svg width="27" height="27" viewBox="0 0 27 27" fill="none" xmlns="http://www.w3.org/2000/svg">
<path d="M20.8125 20.2499C19.2622 20.2499 18 21.5121 18 23.0624C18 24.6126 19.2622 25.8748 20.8125 25.8748C22.3627 25.8748 23.6249 24.6126 23.6249 23.0624C23.6249 21.5122 22.3627 20.2499 20.8125 20.2499ZM20.8125 24.7499C19.8821 24.7499 19.125 23.9928 19.125 23.0624C19.125 22.132 19.8821 21.3749 20.8125 21.3749C21.7428 21.3749 22.4999 22.132 22.4999 23.0624C22.4999 23.9927 21.7428 24.7499 20.8125 24.7499Z" fill="black"/>
<path d="M9.56246 20.2499C8.01224 20.2499 6.75 21.5121 6.75 23.0624C6.75 24.6126 8.01224 25.8748 9.56246 25.8748C11.1127 25.8748 12.3749 24.6126 12.3749 23.0624C12.3749 21.5121 11.1127 20.2499 9.56246 20.2499ZM9.56246 24.7499C8.63207 24.7499 7.87497 23.9928 7.87497 23.0624C7.87497 22.132 8.63207 21.3749 9.56246 21.3749C10.4928 21.3749 11.2499 22.132 11.2499 23.0624C11.2499 23.9927 10.4928 24.7499 9.56246 24.7499Z" fill="black"/>
<path d="M24.1873 18H10.0788C8.74338 18 7.58355 17.0493 7.32141 15.7387L4.48871 1.57737C4.43581 1.31412 4.20521 1.12512 3.93748 1.12512H0.562512C0.252015 1.12512 0 1.37708 0 1.68758C0 1.99808 0.252015 2.25009 0.562512 2.25009H3.47622L6.2178 15.9603C6.58456 17.794 8.20903 19.1249 10.0788 19.1249H24.1872C24.4977 19.1249 24.7497 18.8729 24.7497 18.5624C24.7497 18.2519 24.4978 18 24.1873 18Z" fill="black"/>
<path d="M26.8616 4.6936C26.7547 4.571 26.5994 4.50012 26.4363 4.50012H5.06154C4.75104 4.50012 4.49902 4.75214 4.49902 5.06263C4.49902 5.37313 4.75104 5.62509 5.06154 5.62509H25.7872L24.8782 12.0027C24.8422 12.2547 24.6409 12.4515 24.3889 12.4819L6.68263 14.6284C6.37324 14.6666 6.15386 14.9468 6.19099 15.255C6.22585 15.5408 6.46774 15.75 6.74897 15.75C6.77148 15.75 6.79395 15.7489 6.81647 15.7467L24.5226 13.5991C25.2786 13.5069 25.8817 12.9162 25.9897 12.1625L26.9931 5.14142C27.0168 4.98047 26.9684 4.81621 26.8616 4.6936Z" fill="black"/>
</svg>
