<svg width="81" height="81" viewBox="0 0 81 81" fill="none" xmlns="http://www.w3.org/2000/svg">
<rect width="81" height="81" rx="17" fill="#0088CC"/>
<path d="M58.1842 43.3834L58.1514 42.9333C57.6245 36.0736 54.4305 31.7734 51.6127 27.9804C49.0036 24.4682 46.7501 21.4352 46.7501 16.96C46.7501 16.6006 46.5489 16.2721 46.2298 16.1074C45.9097 15.9417 45.5251 15.9688 45.2341 16.1804C41.0022 19.2088 37.4713 24.3129 36.2379 29.1829C35.3816 32.5735 35.2683 36.3852 35.2524 38.9026C31.3444 38.0678 30.4591 32.2216 30.4497 32.158C30.4057 31.8548 30.2205 31.5908 29.951 31.4467C29.6786 31.3045 29.3585 31.2942 29.0825 31.4308C28.8775 31.53 24.0523 33.9819 23.7715 43.7727C23.7519 44.0983 23.751 44.424 23.751 44.7506C23.751 54.2615 31.4894 61.9999 41.0003 61.9999C50.5113 61.9999 58.2497 54.2615 58.2497 44.7506C58.2497 44.2733 58.217 43.8279 58.1842 43.3834ZM41.0003 60.0834C37.8297 60.0834 35.2506 57.3358 35.2506 53.9583C35.2506 53.8432 35.2497 53.7271 35.258 53.5849C35.2964 52.1606 35.5669 51.1883 35.8635 50.5416C36.4195 51.7357 37.4142 52.8334 39.0276 52.8334C39.5573 52.8334 39.986 52.4048 39.986 51.8751C39.986 50.5106 40.0141 48.9366 40.3538 47.5159C40.6561 46.2554 41.3785 44.9161 42.2938 43.8418C42.7008 45.2362 43.4945 46.3648 44.2694 47.4664C45.3784 49.0423 46.5247 50.6716 46.726 53.4501C46.7381 53.6148 46.7503 53.7804 46.7503 53.9582C46.7501 57.3358 44.171 60.0834 41.0003 60.0834ZM47.0567 58.8313C48.0514 57.4748 48.6668 55.798 48.6668 53.9583C48.6668 53.7328 48.6528 53.5231 48.6246 53.1311C48.3973 50.0025 47.0374 48.0691 45.8368 46.3631C44.814 44.9107 43.9315 43.6558 43.9315 41.8758C43.9315 41.5117 43.7256 41.1795 43.3999 41.0176C43.0761 40.8547 42.6849 40.8913 42.3957 41.1112C40.5578 42.5 39.0248 44.8377 38.4896 47.0697C38.2163 48.2143 38.1209 49.4524 38.0872 50.4705C37.4227 49.7556 37.2168 48.4304 37.215 48.4126C37.172 48.1048 36.9829 47.8361 36.7069 47.693C36.4327 47.5508 36.1042 47.547 35.8281 47.6892C35.5866 47.8128 33.4652 49.0294 33.3435 53.5045C33.3351 53.6562 33.3342 53.8077 33.3342 53.9584C33.3342 55.7981 33.9496 57.4748 34.9443 58.8313C29.4942 56.478 25.6678 51.0545 25.6678 44.7507C25.6678 44.4634 25.6669 44.1771 25.6865 43.8579C25.8512 38.1137 27.6892 35.265 28.889 34.0083C29.7255 37.0029 31.9173 40.9175 36.2091 40.9175C36.7388 40.9175 37.1674 40.4889 37.1674 39.9592C37.1674 36.7521 37.2394 33.0462 38.0967 29.6528C39.0699 25.8083 41.7361 21.657 44.9545 18.8467C45.4889 22.9513 47.7245 25.961 50.0745 29.1231C52.868 32.8833 55.756 36.7717 56.2398 43.068L56.2726 43.5266C56.3025 43.9253 56.3334 44.323 56.3334 44.7507C56.3331 51.0544 52.5067 56.4779 47.0567 58.8313Z" fill="white"/>
</svg>
