<svg width="81" height="81" viewBox="0 0 81 81" fill="none" xmlns="http://www.w3.org/2000/svg">
<rect width="81" height="81" rx="17" fill="#0088CC"/>
<path d="M55.7029 25.2971C51.642 21.2364 46.2429 19 40.5 19C34.7571 19 29.358 21.2364 25.2971 25.2971C21.2364 29.358 19 34.7571 19 40.5C19 46.2429 21.2364 51.642 25.2971 55.7029C29.358 59.7636 34.7571 62 40.5 62C46.2429 62 51.642 59.7636 55.7029 55.7029C59.7636 51.642 62 46.2429 62 40.5C62 34.7571 59.7636 29.358 55.7029 25.2971ZM40.5 59.4805C30.0341 59.4805 21.5195 50.9659 21.5195 40.5C21.5195 30.0341 30.0341 21.5195 40.5 21.5195C50.9659 21.5195 59.4805 30.0341 59.4805 40.5C59.4805 50.9659 50.9659 59.4805 40.5 59.4805Z" fill="white"/>
<path d="M46.0437 27.8033C45.4062 27.5244 44.6634 27.8154 44.3848 28.4529C44.106 29.0903 44.3969 29.8331 45.0343 30.1118C49.1674 31.919 51.8379 35.9965 51.8379 40.5C51.8379 46.7517 46.7517 51.8379 40.5 51.8379C34.2483 51.8379 29.1621 46.7517 29.1621 40.5C29.1621 35.9965 31.8326 31.919 35.9656 30.1119C36.603 29.8332 36.8939 29.0904 36.6151 28.453C36.3364 27.8154 35.5936 27.5245 34.9562 27.8034C29.9059 30.0115 26.6426 34.9953 26.6426 40.5C26.6426 48.141 32.859 54.3574 40.5 54.3574C48.141 54.3574 54.3574 48.141 54.3574 40.5C54.3574 34.9953 51.0941 30.0115 46.0437 27.8033Z" fill="white"/>
<path d="M40.5 37.5605C41.1957 37.5605 41.7598 36.9965 41.7598 36.3008V26.2227C41.7598 25.5269 41.1957 24.9629 40.5 24.9629C39.8043 24.9629 39.2402 25.5269 39.2402 26.2227V36.3008C39.2402 36.9965 39.8043 37.5605 40.5 37.5605Z" fill="white"/>
</svg>
