<svg width="81" height="81" viewBox="0 0 81 81" fill="none" xmlns="http://www.w3.org/2000/svg">
<rect width="81" height="81" rx="17" fill="#0088CC"/>
<path d="M52.0619 44.3162C51.3179 44.3162 50.7142 44.9195 50.7142 45.6639C50.7142 48.1676 49.8765 50.1585 48.2246 51.5816C47.6606 52.0673 47.5974 52.9184 48.0832 53.4824C48.3495 53.7919 48.7261 53.9505 49.1048 53.9505C49.4161 53.9505 49.7291 53.8432 49.9836 53.6238C52.257 51.6655 53.4096 48.9874 53.4096 45.6639C53.4096 44.9195 52.8063 44.3162 52.0619 44.3162Z" fill="white"/>
<path d="M50.3115 27.2052C46.1944 21.311 42.0181 16.5096 41.9763 16.4619C41.7205 16.1685 41.3499 16 40.9607 16C40.5715 16 40.2012 16.1685 39.945 16.4619C39.9036 16.5096 35.7269 21.311 31.6099 27.2052C25.9771 35.2694 23.1211 41.4798 23.1211 45.6639C23.1211 50.5576 24.9534 54.7223 28.4198 57.7082C31.6327 60.4758 36.0867 62 40.9607 62C45.8351 62 50.289 60.4758 53.502 57.7079C56.9683 54.722 58.8003 50.5572 58.8003 45.6639C58.8003 41.4798 55.9442 35.2694 50.3115 27.2052ZM51.7426 55.666C49.0189 58.0125 45.1897 59.3047 40.9607 59.3047C36.7317 59.3047 32.9028 58.0125 30.1787 55.666C27.3248 53.2076 25.8164 49.749 25.8164 45.6639C25.8164 42.0968 28.5791 36.2545 33.8062 28.768C36.6335 24.7184 39.4902 21.1944 40.9607 19.4316C42.4284 21.1906 45.2767 24.7036 48.1019 28.7487C53.3377 36.2443 56.105 42.0936 56.105 45.6639C56.105 49.749 54.5966 53.2076 51.7426 55.666Z" fill="white"/>
</svg>
