<svg width="81" height="81" viewBox="0 0 81 81" fill="none" xmlns="http://www.w3.org/2000/svg">
<rect width="81" height="81" rx="17" fill="#0088CC"/>
<path d="M66.4957 37.114L39.3758 21.6032C37.284 20.4049 34.4208 21.0509 33.0419 23.0243L27.7881 30.5349C27.2724 31.2729 27 32.138 27 33.0381C27 34.5933 27.836 36.0418 29.1806 36.8178L34.9003 40.1209L33.867 41.4997C33.3074 42.2454 32.9999 43.1701 32.9999 44.1026C32.9999 45.0616 33.351 45.9636 33.9167 46.7093L32.3944 48.9999H25V45.9901C25 45.4369 24.5527 45 23.9999 45H20C19.4473 45 19 45.4369 19 45.9901V55.999C19 56.5522 19.4473 56.9999 20 56.9999H24C24.5528 56.9999 25 56.5522 25 55.999V54.9999H32.3945C34.4053 54.9999 36.2714 54.0011 37.3867 52.3269L39.0258 49.8659C39.3414 49.9345 39.6598 49.9966 39.9852 49.9966C41.577 49.9966 43.075 49.1482 43.8934 47.7818L44.9922 45.9489L53.5027 50.8637C53.656 50.9527 53.8289 50.9976 54.0027 50.9976C54.0993 50.9976 54.1961 50.9839 54.2908 50.9556C54.5545 50.8754 54.7742 50.6907 54.8973 50.4444L55.6376 48.9604C55.7591 48.9696 55.876 48.9959 55.9997 48.9959C59.8591 48.9959 62.9997 45.8524 62.9997 41.9896C62.9997 41.5654 62.9371 41.1282 62.844 40.6813L66.447 38.8784C66.7771 38.7133 66.9889 38.38 66.9997 38.0105C67.0094 37.6418 66.8161 37.2968 66.4957 37.114ZM23 54.9999H21V47H22.9999L23 54.9999ZM35.7225 51.2217C34.9794 52.3369 33.7352 53.0029 32.3944 53.0029H25V51.0029H32.3944C33.0663 51.0029 33.6884 50.6699 34.0585 50.1123L35.4432 48.0345L37.1605 49.0646L35.7225 51.2217ZM42.1786 46.7607C41.4794 47.9237 39.8339 48.3378 38.6698 47.6376L36.1337 46.1162C35.4345 45.6972 34.9999 44.9297 34.9999 44.1142C34.9999 43.6123 35.1659 43.1152 35.4667 42.7129L36.6445 41.1425L43.2595 44.9591L42.1786 46.7607ZM53.5827 48.6064L30.1796 35.1035C29.4521 34.6836 29 33.9004 29 33.0596C29 32.5723 29.1474 32.1045 29.4267 31.7051L31.9374 28.1192L56.6841 42.3957L53.5827 48.6064ZM56.6516 46.9369L58.7448 42.745L60.9662 41.6345C60.9774 41.7572 60.9997 41.8842 60.9997 42.0029C60.9997 44.5365 59.0982 46.6135 56.6516 46.9369ZM58.0336 40.8649L33.089 26.4744L34.6806 24.2013C35.207 23.4494 36.0683 23.0001 36.9863 23.0001C37.4755 23.0001 37.9589 23.1281 38.3837 23.3712L63.8815 37.9414L58.0336 40.8649Z" fill="white"/>
<path d="M51.9999 45C52.5522 45 52.9999 44.5523 52.9999 44C52.9999 43.4477 52.5522 42.9999 51.9999 42.9999C51.4476 42.9999 50.9999 43.4477 50.9999 44C50.9999 44.5523 51.4476 45 51.9999 45Z" fill="white"/>
</svg>
