<svg width="69" height="69" viewBox="0 0 69 69" fill="none" xmlns="http://www.w3.org/2000/svg">
<g filter="url(#filter0_d)">
<rect x="4.65" y="0.65" width="58.9029" height="58.9029" rx="9.35" fill="white" stroke="#0088CC" stroke-width="1.3"/>
<path d="M48.3213 23.2009C48.14 23.2009 47.9661 23.2729 47.8379 23.4011C47.7097 23.5293 47.6377 23.7031 47.6377 23.8844V44.3633H42.2712V41.5633C42.2712 41.382 42.1992 41.2081 42.071 41.0799C41.9428 40.9517 41.7689 40.8797 41.5876 40.8797H40.3927V35.8539C40.3771 34.1687 39.6967 32.5578 38.4996 31.3717C37.3024 30.1855 35.6853 29.5201 34 29.5201C32.3147 29.5201 30.6976 30.1855 29.5004 31.3717C28.3033 32.5578 27.6229 34.1687 27.6073 35.8539V40.8797H26.4118C26.2305 40.8797 26.0567 40.9517 25.9285 41.0799C25.8003 41.2081 25.7282 41.382 25.7282 41.5633C25.7282 41.7446 25.8003 41.9185 25.9285 42.0467C26.0567 42.1749 26.2305 42.2469 26.4118 42.2469H40.904V44.3633H20.3623V23.203L33.4179 16.3223C33.4989 16.2813 33.5709 16.2247 33.6298 16.1556C33.6887 16.0865 33.7333 16.0064 33.7609 15.9199C33.7885 15.8334 33.7986 15.7423 33.7906 15.6519C33.7826 15.5614 33.7566 15.4735 33.7143 15.3932C33.672 15.3129 33.614 15.2419 33.5439 15.1842C33.4738 15.1265 33.3929 15.0834 33.306 15.0573C33.219 15.0312 33.1277 15.0227 33.0375 15.0323C32.9472 15.0419 32.8597 15.0694 32.7802 15.1131L19.3599 22.1875C19.2498 22.2455 19.1577 22.3324 19.0934 22.4389C19.0291 22.5454 18.9951 22.6674 18.9951 22.7918V45.0469C18.9951 45.2282 19.0671 45.402 19.1953 45.5302C19.3235 45.6584 19.4974 45.7305 19.6787 45.7305H48.3213C48.5026 45.7305 48.6765 45.6584 48.8047 45.5302C48.9329 45.402 49.0049 45.2282 49.0049 45.0469V23.8828C49.0045 23.7018 48.9322 23.5283 48.8041 23.4005C48.6759 23.2727 48.5023 23.2009 48.3213 23.2009ZM28.9745 35.8539C28.9883 34.5301 29.5239 33.2653 30.4648 32.3341C31.4058 31.4029 32.6762 30.8805 34 30.8805C35.3238 30.8805 36.5942 31.4029 37.5352 32.3341C38.4761 33.2653 39.0117 34.5301 39.0255 35.8539V40.8797H28.9745V35.8539Z" fill="#0088CC"/>
<path d="M33.3164 24.4707V27C33.3164 27.1813 33.3884 27.3552 33.5166 27.4834C33.6448 27.6116 33.8187 27.6836 34 27.6836C34.1813 27.6836 34.3552 27.6116 34.4834 27.4834C34.6116 27.3552 34.6836 27.1813 34.6836 27V24.4707C34.6836 24.2894 34.6116 24.1155 34.4834 23.9873C34.3552 23.8591 34.1813 23.7871 34 23.7871C33.8187 23.7871 33.6448 23.8591 33.5166 23.9873C33.3884 24.1155 33.3164 24.2894 33.3164 24.4707Z" fill="#0088CC"/>
<path d="M42.5923 27.3462C42.5289 27.2827 42.4536 27.2323 42.3707 27.198C42.2878 27.1636 42.1989 27.1459 42.1092 27.1459C42.0194 27.1459 41.9306 27.1636 41.8477 27.198C41.7648 27.2323 41.6894 27.2827 41.626 27.3462L39.8377 29.1345C39.7724 29.1975 39.7203 29.2729 39.6845 29.3563C39.6486 29.4397 39.6297 29.5294 39.6289 29.6202C39.6281 29.7109 39.6454 29.8009 39.6797 29.885C39.7141 29.969 39.7648 30.0453 39.829 30.1095C39.8932 30.1737 39.9695 30.2245 40.0535 30.2589C40.1375 30.2933 40.2275 30.3106 40.3182 30.3099C40.409 30.3091 40.4987 30.2903 40.5821 30.2545C40.6655 30.2187 40.741 30.1666 40.8041 30.1013L42.5923 28.313C42.6558 28.2496 42.7062 28.1742 42.7406 28.0912C42.7749 28.0083 42.7926 27.9194 42.7926 27.8296C42.7926 27.7398 42.7749 27.6509 42.7406 27.568C42.7062 27.485 42.6558 27.4097 42.5923 27.3462Z" fill="#0088CC"/>
<path d="M42.9375 36.6217H45.4668C45.6481 36.6217 45.822 36.5497 45.9502 36.4215C46.0784 36.2933 46.1504 36.1194 46.1504 35.9381C46.1504 35.7568 46.0784 35.5829 45.9502 35.4547C45.822 35.3265 45.6481 35.2545 45.4668 35.2545H42.9375C42.7562 35.2545 42.5823 35.3265 42.4541 35.4547C42.3259 35.5829 42.2539 35.7568 42.2539 35.9381C42.2539 36.1194 42.3259 36.2933 42.4541 36.4215C42.5823 36.5497 42.7562 36.6217 42.9375 36.6217Z" fill="#0088CC"/>
<path d="M22.5332 35.2545C22.3519 35.2545 22.178 35.3265 22.0498 35.4547C21.9216 35.5829 21.8496 35.7568 21.8496 35.9381C21.8496 36.1194 21.9216 36.2933 22.0498 36.4215C22.178 36.5497 22.3519 36.6217 22.5332 36.6217H25.0625C25.2438 36.6217 25.4177 36.5497 25.5459 36.4215C25.6741 36.2933 25.7461 36.1194 25.7461 35.9381C25.7461 35.7568 25.6741 35.5829 25.5459 35.4547C25.4177 35.3265 25.2438 35.2545 25.0625 35.2545H22.5332Z" fill="#0088CC"/>
<path d="M27.6803 30.3015C27.8155 30.3015 27.9477 30.2614 28.0601 30.1863C28.1726 30.1112 28.2602 30.0044 28.312 29.8795C28.3637 29.7546 28.3772 29.6171 28.3509 29.4845C28.3245 29.3518 28.2593 29.23 28.1637 29.1344L26.3754 27.3461C26.2465 27.2216 26.0739 27.1526 25.8946 27.1541C25.7154 27.1556 25.5439 27.2275 25.4172 27.3542C25.2904 27.4809 25.2184 27.6523 25.2168 27.8316C25.2152 28.0108 25.2841 28.1835 25.4086 28.3125L27.1974 30.1007C27.2607 30.1644 27.3359 30.2148 27.4188 30.2493C27.5017 30.2837 27.5905 30.3014 27.6803 30.3015Z" fill="#0088CC"/>
<path d="M38.8919 23.7439C39.0178 23.8038 39.1591 23.8237 39.2966 23.801C39.4342 23.7783 39.5616 23.7141 39.6616 23.617C39.7616 23.5199 39.8296 23.3945 39.8563 23.2576C39.8831 23.1208 39.8673 22.979 39.8112 22.8514C39.3011 21.7358 39.1314 20.4946 39.3234 19.283C39.4427 18.5443 39.6616 17.8252 39.9742 17.1453C39.9872 17.6125 40.106 18.0706 40.3217 18.4852C40.5374 18.8998 40.8443 19.2601 41.2194 19.539C41.985 20.0858 43.1488 19.9398 43.9232 19.7517C44.0319 20.2714 44.028 20.8083 43.9119 21.3263C43.7958 21.8444 43.5701 22.3316 43.25 22.7551C43.1479 22.872 43.0886 23.0201 43.0819 23.1752C43.0751 23.3302 43.1214 23.4829 43.2129 23.6082C43.3045 23.7335 43.4359 23.8239 43.5857 23.8645C43.7354 23.9052 43.8946 23.8937 44.0369 23.8319C45.1504 23.3494 46.0986 22.5518 46.7646 21.5372C47.4305 20.5227 47.7853 19.3356 47.7852 18.122C47.7852 13.8624 42.2618 8.67201 42.0277 8.45271C41.9243 8.35657 41.7936 8.29482 41.6537 8.27592C41.5138 8.25703 41.3715 8.28193 41.2463 8.3472C41.121 8.41247 41.0191 8.5149 40.9545 8.64043C40.8899 8.76596 40.8657 8.90843 40.8853 9.04826C40.921 9.5243 40.845 10.0021 40.6633 10.4435C40.4815 10.885 40.1991 11.2778 39.8386 11.5907C39.6827 11.7269 39.5104 11.8734 39.3256 12.0282C37.7397 13.3702 35.3389 15.398 35.3389 18.1215C35.3426 19.2979 35.6779 20.4494 36.3064 21.4439C36.9348 22.4384 37.831 23.2356 38.8919 23.7439ZM40.2082 13.0727C40.3991 12.9119 40.5774 12.761 40.7393 12.6193C41.3949 12.0523 41.8671 11.303 42.0955 10.4669C43.6372 12.1135 46.4158 15.4544 46.4158 18.1231C46.4165 19.2462 46.0274 20.3348 45.315 21.2031C45.4025 20.3516 45.3214 19.4912 45.0765 18.6711C45.0477 18.5839 45.0016 18.5034 44.9411 18.4344C44.8805 18.3654 44.8066 18.3093 44.7239 18.2694C44.6412 18.2296 44.5513 18.2068 44.4596 18.2024C44.3678 18.198 44.2762 18.2122 44.19 18.244C43.5185 18.4911 42.3854 18.6902 42.0097 18.4233C40.6742 17.4767 41.7094 14.7226 41.7198 14.6964C41.7753 14.5563 41.7829 14.4018 41.7414 14.2569C41.7 14.1121 41.6119 13.9849 41.4908 13.8953C41.3697 13.8057 41.2223 13.7586 41.0717 13.7613C40.9211 13.7641 40.7755 13.8165 40.6578 13.9105C39.1922 15.2637 38.2436 17.085 37.9748 19.0615C37.8501 19.8294 37.8475 20.6122 37.9671 21.3808C37.1585 20.4875 36.7093 19.3264 36.7061 18.1215C36.7066 16.0329 38.8132 14.2518 40.2082 13.0727Z" fill="#0088CC"/>
</g>
<defs>
<filter id="filter0_d" x="0" y="0" width="68.2029" height="68.2029" filterUnits="userSpaceOnUse" color-interpolation-filters="sRGB">
<feFlood flood-opacity="0" result="BackgroundImageFix"/>
<feColorMatrix in="SourceAlpha" type="matrix" values="0 0 0 0 0 0 0 0 0 0 0 0 0 0 0 0 0 0 127 0"/>
<feOffset dy="4"/>
<feGaussianBlur stdDeviation="2"/>
<feColorMatrix type="matrix" values="0 0 0 0 0 0 0 0 0 0 0 0 0 0 0 0 0 0 0.25 0"/>
<feBlend mode="normal" in2="BackgroundImageFix" result="effect1_dropShadow"/>
<feBlend mode="normal" in="SourceGraphic" in2="effect1_dropShadow" result="shape"/>
</filter>
</defs>
</svg>
