<svg width="74" height="77" viewBox="0 0 74 77" fill="none" xmlns="http://www.w3.org/2000/svg">
<g filter="url(#filter0_d)">
<rect x="4" y="6" width="66" height="62.5263" rx="31.2632" fill="white"/>
</g>
<path d="M50.208 29.8637C50.0345 29.8637 49.8681 29.9326 49.7454 30.0553C49.6227 30.178 49.5537 30.3444 49.5537 30.518V50.1191H44.4172V47.4391C44.4172 47.2656 44.3483 47.0992 44.2256 46.9765C44.1029 46.8538 43.9365 46.7848 43.7629 46.7848H42.6192V41.9745C42.6043 40.3615 41.9531 38.8196 40.8072 37.6843C39.6614 36.549 38.1135 35.9121 36.5005 35.9121C34.8874 35.9121 33.3396 36.549 32.1938 37.6843C31.0479 38.8196 30.3967 40.3615 30.3818 41.9745V46.7848H29.2375C29.064 46.7848 28.8976 46.8538 28.7749 46.9765C28.6522 47.0992 28.5832 47.2656 28.5832 47.4391C28.5832 47.6127 28.6522 47.7791 28.7749 47.9018C28.8976 48.0245 29.064 48.0934 29.2375 48.0934H43.1086V50.1191H23.4473V29.8658L35.9433 23.2799C36.0208 23.2407 36.0898 23.1865 36.1462 23.1204C36.2026 23.0542 36.2452 22.9775 36.2716 22.8948C36.298 22.812 36.3077 22.7248 36.3 22.6382C36.2924 22.5517 36.2676 22.4675 36.227 22.3907C36.1865 22.3138 36.1311 22.2458 36.064 22.1906C35.9969 22.1354 35.9194 22.0941 35.8362 22.0691C35.753 22.0442 35.6656 22.0361 35.5792 22.0452C35.4928 22.0544 35.4091 22.0807 35.333 22.1226L22.4878 28.8938C22.3825 28.9492 22.2943 29.0324 22.2327 29.1344C22.1712 29.2363 22.1387 29.3531 22.1387 29.4721V50.7734C22.1387 50.947 22.2076 51.1134 22.3303 51.2361C22.453 51.3588 22.6194 51.4277 22.793 51.4277H50.208C50.3815 51.4277 50.548 51.3588 50.6707 51.2361C50.7934 51.1134 50.8623 50.947 50.8623 50.7734V30.5164C50.8619 30.3431 50.7928 30.1771 50.6701 30.0548C50.5475 29.9324 50.3813 29.8637 50.208 29.8637ZM31.6904 41.9745C31.7036 40.7074 32.2162 39.4968 33.1168 38.6055C34.0175 37.7142 35.2334 37.2142 36.5005 37.2142C37.7676 37.2142 38.9835 37.7142 39.8842 38.6055C40.7848 39.4968 41.2974 40.7074 41.3106 41.9745V46.7848H31.6904V41.9745Z" fill="black"/>
<path d="M35.8457 31.0791V33.5C35.8457 33.6735 35.9146 33.84 36.0373 33.9627C36.16 34.0854 36.3265 34.1543 36.5 34.1543C36.6735 34.1543 36.84 34.0854 36.9627 33.9627C37.0854 33.84 37.1543 33.6735 37.1543 33.5V31.0791C37.1543 30.9056 37.0854 30.7391 36.9627 30.6164C36.84 30.4937 36.6735 30.4248 36.5 30.4248C36.3265 30.4248 36.16 30.4937 36.0373 30.6164C35.9146 30.7391 35.8457 30.9056 35.8457 31.0791Z" fill="black"/>
<path d="M44.7241 33.8313C44.6634 33.7706 44.5913 33.7224 44.512 33.6895C44.4326 33.6566 44.3476 33.6397 44.2617 33.6397C44.1758 33.6397 44.0907 33.6566 44.0114 33.6895C43.932 33.7224 43.8599 33.7706 43.7992 33.8313L42.0876 35.543C42.0251 35.6033 41.9752 35.6755 41.9409 35.7553C41.9066 35.8351 41.8885 35.921 41.8877 36.0079C41.8869 36.0947 41.9035 36.1809 41.9363 36.2613C41.9692 36.3417 42.0178 36.4148 42.0792 36.4763C42.1406 36.5377 42.2137 36.5863 42.2941 36.6192C42.3745 36.6522 42.4606 36.6687 42.5475 36.668C42.6344 36.6673 42.7202 36.6492 42.8001 36.615C42.8799 36.5807 42.9521 36.5309 43.0125 36.4684L44.7241 34.7568C44.7849 34.696 44.8331 34.6239 44.866 34.5445C44.8989 34.4651 44.9158 34.38 44.9158 34.2941C44.9158 34.2081 44.8989 34.123 44.866 34.0436C44.8331 33.9642 44.7849 33.8921 44.7241 33.8313Z" fill="black"/>
<path d="M45.0547 42.7094H47.4756C47.6491 42.7094 47.8155 42.6404 47.9382 42.5177C48.0609 42.395 48.1299 42.2286 48.1299 42.0551C48.1299 41.8815 48.0609 41.7151 47.9382 41.5924C47.8155 41.4697 47.6491 41.4008 47.4756 41.4008H45.0547C44.8812 41.4008 44.7147 41.4697 44.592 41.5924C44.4693 41.7151 44.4004 41.8815 44.4004 42.0551C44.4004 42.2286 44.4693 42.395 44.592 42.5177C44.7147 42.6404 44.8812 42.7094 45.0547 42.7094Z" fill="black"/>
<path d="M25.5244 41.4008C25.3509 41.4008 25.1845 41.4697 25.0618 41.5924C24.9391 41.7151 24.8701 41.8815 24.8701 42.0551C24.8701 42.2286 24.9391 42.395 25.0618 42.5177C25.1845 42.6404 25.3509 42.7094 25.5244 42.7094H27.9453C28.1188 42.7094 28.2853 42.6404 28.408 42.5177C28.5307 42.395 28.5996 42.2286 28.5996 42.0551C28.5996 41.8815 28.5307 41.7151 28.408 41.5924C28.2853 41.4697 28.1188 41.4008 27.9453 41.4008H25.5244Z" fill="black"/>
<path d="M30.4507 36.66C30.5801 36.66 30.7066 36.6216 30.8142 36.5498C30.9219 36.4779 31.0057 36.3757 31.0553 36.2561C31.1048 36.1365 31.1178 36.0049 31.0925 35.878C31.0673 35.7511 31.0049 35.6345 30.9134 35.543L29.2018 33.8313C29.0784 33.7121 28.9131 33.6461 28.7416 33.6476C28.57 33.649 28.4059 33.7178 28.2845 33.839C28.1632 33.9603 28.0943 34.1244 28.0928 34.296C28.0913 34.4675 28.1572 34.6328 28.2763 34.7562L29.9885 36.4679C30.0491 36.5288 30.1211 36.5771 30.2004 36.61C30.2797 36.643 30.3648 36.66 30.4507 36.66Z" fill="black"/>
<path d="M41.182 30.3835C41.3026 30.4408 41.4377 30.4598 41.5694 30.4381C41.7011 30.4164 41.823 30.355 41.9187 30.262C42.0145 30.169 42.0795 30.049 42.1051 29.918C42.1307 29.787 42.1156 29.6514 42.0619 29.5292C41.5737 28.4615 41.4113 27.2734 41.595 26.1138C41.7092 25.4067 41.9188 24.7184 42.2179 24.0677C42.2304 24.5148 42.3441 24.9533 42.5505 25.3502C42.757 25.747 43.0508 26.0919 43.4098 26.3587C44.1426 26.8822 45.2565 26.7424 45.9976 26.5624C46.1017 27.0598 46.098 27.5737 45.9869 28.0695C45.8757 28.5654 45.6597 29.0317 45.3533 29.4371C45.2556 29.5489 45.1989 29.6907 45.1924 29.8391C45.186 29.9875 45.2302 30.1336 45.3178 30.2536C45.4055 30.3735 45.5313 30.46 45.6746 30.4989C45.818 30.5378 45.9703 30.5268 46.1065 30.4677C47.1723 30.0059 48.0798 29.2424 48.7173 28.2714C49.3547 27.3003 49.6943 26.1641 49.6942 25.0025C49.6942 20.9255 44.4074 15.9575 44.1834 15.7476C44.0844 15.6556 43.9594 15.5965 43.8255 15.5784C43.6915 15.5603 43.5553 15.5842 43.4355 15.6466C43.3156 15.7091 43.2181 15.8071 43.1562 15.9273C43.0943 16.0474 43.0712 16.1838 43.09 16.3176C43.1242 16.7733 43.0514 17.2306 42.8775 17.6531C42.7035 18.0756 42.4332 18.4516 42.0881 18.7511C41.9389 18.8814 41.774 19.0217 41.5971 19.1699C40.0791 20.4544 37.7812 22.3953 37.7812 25.002C37.7848 26.128 38.1058 27.2302 38.7073 28.1821C39.3088 29.1339 40.1665 29.8969 41.182 30.3835ZM42.4419 20.1696C42.6246 20.0157 42.7953 19.8713 42.9502 19.7357C43.5778 19.193 44.0297 18.4758 44.2483 17.6754C45.7239 19.2515 48.3835 22.4492 48.3835 25.0036C48.3841 26.0786 48.0117 27.1205 47.3298 27.9516C47.4136 27.1366 47.336 26.3131 47.1016 25.528C47.074 25.4446 47.0299 25.3676 46.9719 25.3015C46.9139 25.2355 46.8432 25.1818 46.7641 25.1436C46.6849 25.1055 46.5988 25.0837 46.5111 25.0795C46.4233 25.0753 46.3355 25.0888 46.2531 25.1192C45.6103 25.3558 44.5257 25.5464 44.1661 25.2909C42.8879 24.3849 43.8788 21.7488 43.8887 21.7237C43.9418 21.5896 43.9491 21.4417 43.9094 21.3031C43.8698 21.1644 43.7855 21.0427 43.6695 20.957C43.5536 20.8712 43.4126 20.8261 43.2684 20.8287C43.1242 20.8314 42.9849 20.8816 42.8722 20.9715C41.4695 22.2667 40.5615 24.01 40.3042 25.9018C40.1848 26.6367 40.1824 27.386 40.2969 28.1217C39.5229 27.2666 39.0929 26.1553 39.0898 25.002C39.0904 23.003 41.1066 21.2982 42.4419 20.1696Z" fill="black"/>
<defs>
<filter id="filter0_d" x="0" y="6" width="74" height="70.5263" filterUnits="userSpaceOnUse" color-interpolation-filters="sRGB">
<feFlood flood-opacity="0" result="BackgroundImageFix"/>
<feColorMatrix in="SourceAlpha" type="matrix" values="0 0 0 0 0 0 0 0 0 0 0 0 0 0 0 0 0 0 127 0"/>
<feOffset dy="4"/>
<feGaussianBlur stdDeviation="2"/>
<feColorMatrix type="matrix" values="0 0 0 0 0 0 0 0 0 0 0 0 0 0 0 0 0 0 0.3 0"/>
<feBlend mode="normal" in2="BackgroundImageFix" result="effect1_dropShadow"/>
<feBlend mode="normal" in="SourceGraphic" in2="effect1_dropShadow" result="shape"/>
</filter>
</defs>
</svg>
