<svg width="70" height="70" viewBox="0 0 70 70" fill="none" xmlns="http://www.w3.org/2000/svg">
<g filter="url(#filter0_d)">
<rect x="2" y="1" width="66" height="62.5263" rx="31.2632" fill="white"/>
</g>
<path d="M48.5108 14.6426H40.4935C39.8622 14.6432 39.2569 14.8943 38.8105 15.3407C38.364 15.7872 38.113 16.3924 38.1123 17.0238V25.137C38.1271 26.822 38.8068 28.4329 40.0035 29.6192C41.2003 30.8054 42.8171 31.471 44.5021 31.471C46.1872 31.471 47.804 30.8054 49.0007 29.6192C50.1974 28.4329 50.8772 26.822 50.892 25.137V17.0238C50.8913 16.3924 50.6402 15.7872 50.1938 15.3407C49.7474 14.8943 49.1421 14.6432 48.5108 14.6426ZM49.6595 25.137C49.6462 26.4966 49.0968 27.796 48.1307 28.7528C47.1646 29.7095 45.8598 30.2462 44.5002 30.2462C43.1405 30.2462 41.8358 29.7095 40.8696 28.7528C39.9035 27.796 39.3541 26.4966 39.3408 25.137V17.0238C39.3412 16.7187 39.4626 16.4262 39.6783 16.2105C39.894 15.9948 40.1865 15.8734 40.4915 15.873H48.5108C48.8155 15.874 49.1074 15.9956 49.3227 16.2112C49.538 16.4269 49.6591 16.719 49.6595 17.0238V25.137Z" fill="black"/>
<path d="M44.5019 33.7148C44.3388 33.7148 44.1823 33.7797 44.0669 33.895C43.9515 34.0104 43.8867 34.1669 43.8867 34.3301V47.127H41.2038V37.4658C41.2038 37.3026 41.139 37.1461 41.0236 37.0308C40.9082 36.9154 40.7517 36.8506 40.5886 36.8506H22.6385C22.4753 36.8506 22.3188 36.9154 22.2034 37.0308C22.0881 37.1461 22.0232 37.3026 22.0232 37.4658V43.3125C22.0232 43.4757 22.0881 43.6322 22.2034 43.7475C22.3188 43.8629 22.4753 43.9277 22.6385 43.9277H39.9733V47.127H19.3408V28.0827L31.613 21.6139L34.541 23.1574C34.6126 23.1968 34.6913 23.2215 34.7726 23.2301C34.8538 23.2388 34.936 23.2311 35.0142 23.2077C35.0925 23.1842 35.1653 23.1454 35.2284 23.0935C35.2915 23.0416 35.3436 22.9776 35.3817 22.9053C35.4198 22.8331 35.4432 22.7539 35.4504 22.6725C35.4576 22.5912 35.4485 22.5092 35.4237 22.4313C35.3988 22.3535 35.3587 22.2814 35.3057 22.2192C35.2527 22.157 35.1879 22.106 35.1149 22.0692L31.9 20.3766C31.8116 20.3297 31.7131 20.3052 31.613 20.3052C31.513 20.3052 31.4145 20.3297 31.3261 20.3766L18.4367 27.1688C18.3384 27.221 18.2561 27.2989 18.1986 27.3943C18.1411 27.4897 18.1106 27.5988 18.1104 27.7102V47.7422C18.1104 47.9054 18.1752 48.0618 18.2905 48.1772C18.4059 48.2926 18.5624 48.3574 18.7256 48.3574H44.5019C44.6651 48.3574 44.8216 48.2926 44.937 48.1772C45.0523 48.0618 45.1172 47.9054 45.1172 47.7422V34.3306C45.1172 34.2497 45.1014 34.1697 45.0705 34.095C45.0396 34.0203 44.9943 33.9524 44.9371 33.8952C44.88 33.838 44.8122 33.7927 44.7375 33.7617C44.6628 33.7308 44.5828 33.7148 44.5019 33.7148ZM39.9738 38.0805V39.8672H23.2527V38.081L39.9738 38.0805ZM23.2527 42.6973V41.0977H39.9733V42.6973H23.2527Z" fill="black"/>
<path d="M47.209 17.6164H41.7949C41.6318 17.6164 41.4753 17.6812 41.3599 17.7966C41.2445 17.912 41.1797 18.0684 41.1797 18.2316V22.1076C41.1797 22.2708 41.2445 22.4272 41.3599 22.5426C41.4753 22.658 41.6318 22.7228 41.7949 22.7228H47.209C47.3722 22.7228 47.5286 22.658 47.644 22.5426C47.7594 22.4272 47.8242 22.2708 47.8242 22.1076V18.2316C47.8242 18.0684 47.7594 17.912 47.644 17.7966C47.5286 17.6812 47.3722 17.6164 47.209 17.6164ZM46.5938 21.4924H42.4102V18.8468H46.5938V21.4924Z" fill="black"/>
<path d="M44.5016 24.3446C44.0848 24.3444 43.6773 24.4678 43.3307 24.6992C42.9841 24.9306 42.7139 25.2596 42.5542 25.6446C42.3946 26.0296 42.3527 26.4533 42.4339 26.8621C42.5151 27.2709 42.7157 27.6464 43.0103 27.9412C43.305 28.236 43.6804 28.4367 44.0892 28.5181C44.4979 28.5995 44.9216 28.5578 45.3067 28.3984C45.6918 28.2389 46.0209 27.9689 46.2525 27.6224C46.4841 27.2758 46.6077 26.8684 46.6077 26.4516C46.607 25.8932 46.385 25.3578 45.9902 24.9628C45.5954 24.5678 45.0601 24.3455 44.5016 24.3446ZM44.5016 27.3287C44.3282 27.3289 44.1586 27.2777 44.0144 27.1815C43.8701 27.0853 43.7576 26.9485 43.6911 26.7884C43.6246 26.6282 43.607 26.452 43.6407 26.2819C43.6744 26.1118 43.7577 25.9555 43.8803 25.8328C44.0028 25.7101 44.1589 25.6265 44.3289 25.5925C44.499 25.5586 44.6753 25.5758 44.8355 25.642C44.9957 25.7083 45.1327 25.8206 45.2292 25.9647C45.3256 26.1088 45.3771 26.2782 45.3772 26.4516C45.3769 26.6839 45.2846 26.9065 45.1205 27.0708C44.9564 27.2351 44.7338 27.3277 44.5016 27.3282V27.3287Z" fill="black"/>
<defs>
<filter id="filter0_d" x="0" y="1" width="70" height="68.5263" filterUnits="userSpaceOnUse" color-interpolation-filters="sRGB">
<feFlood flood-opacity="0" result="BackgroundImageFix"/>
<feColorMatrix in="SourceAlpha" type="matrix" values="0 0 0 0 0 0 0 0 0 0 0 0 0 0 0 0 0 0 127 0"/>
<feOffset dy="4"/>
<feGaussianBlur stdDeviation="1"/>
<feColorMatrix type="matrix" values="0 0 0 0 0 0 0 0 0 0 0 0 0 0 0 0 0 0 0.25 0"/>
<feBlend mode="normal" in2="BackgroundImageFix" result="effect1_dropShadow"/>
<feBlend mode="normal" in="SourceGraphic" in2="effect1_dropShadow" result="shape"/>
</filter>
</defs>
</svg>
