<svg width="69" height="69" viewBox="0 0 69 69" fill="none" xmlns="http://www.w3.org/2000/svg">
<g filter="url(#filter0_d)">
<rect x="4.65" y="0.65" width="58.9" height="58.9" rx="9.35" fill="white" stroke="#0088CC" stroke-width="1.3"/>
<path d="M50.7768 10.5422H42.3782C41.7169 10.5429 41.0828 10.8059 40.6151 11.2736C40.1475 11.7413 39.8844 12.3753 39.8838 13.0367V21.5359C39.8992 23.301 40.6113 24.9886 41.865 26.2312C43.1186 27.4739 44.8123 28.1712 46.5775 28.1712C48.3427 28.1712 50.0365 27.4739 51.2901 26.2312C52.5438 24.9886 53.2558 23.301 53.2713 21.5359V13.0367C53.2706 12.3753 53.0076 11.7413 52.5399 11.2736C52.0723 10.8059 51.4382 10.5429 50.7768 10.5422ZM51.9803 21.5359C51.9663 22.9602 51.3908 24.3214 50.3787 25.3236C49.3666 26.3259 47.9998 26.8881 46.5755 26.8881C45.1511 26.8881 43.7843 26.3259 42.7722 25.3236C41.7602 24.3214 41.1846 22.9602 41.1707 21.5359V13.0367C41.1711 12.7171 41.2982 12.4107 41.5242 12.1848C41.7502 11.9588 42.0566 11.8316 42.3762 11.8312H50.7768C51.0961 11.8322 51.4019 11.9596 51.6275 12.1855C51.853 12.4114 51.9798 12.7175 51.9803 13.0367V21.5359Z" fill="#0088CC"/>
<path d="M46.5767 30.5217C46.4057 30.5217 46.2418 30.5896 46.1209 30.7105C46.0001 30.8314 45.9322 30.9953 45.9322 31.1662V44.5718H43.1216V34.4511C43.1216 34.2802 43.0537 34.1163 42.9329 33.9954C42.812 33.8745 42.6481 33.8066 42.4771 33.8066H23.6732C23.5023 33.8066 23.3383 33.8745 23.2175 33.9954C23.0966 34.1163 23.0287 34.2802 23.0287 34.4511V40.5759C23.0287 40.7469 23.0966 40.9108 23.2175 41.0317C23.3383 41.1525 23.5023 41.2204 23.6732 41.2204H41.8326V44.5718H20.2187V24.6217L33.0747 17.8452L36.142 19.4621C36.217 19.5034 36.2994 19.5293 36.3845 19.5383C36.4696 19.5473 36.5557 19.5393 36.6377 19.5147C36.7197 19.4902 36.7959 19.4495 36.862 19.3951C36.9281 19.3407 36.9827 19.2737 37.0226 19.198C37.0626 19.1223 37.087 19.0394 37.0945 18.9542C37.1021 18.8689 37.0926 18.783 37.0666 18.7015C37.0405 18.6199 36.9985 18.5444 36.943 18.4793C36.8875 18.4141 36.8195 18.3607 36.7432 18.3221L33.3753 16.549C33.2827 16.4999 33.1795 16.4742 33.0747 16.4742C32.9699 16.4742 32.8666 16.4999 32.7741 16.549L19.2715 23.6643C19.1685 23.719 19.0823 23.8006 19.0221 23.9005C18.9619 24.0004 18.93 24.1148 18.9297 24.2314V45.2163C18.9297 45.3873 18.9976 45.5512 19.1185 45.6721C19.2393 45.7929 19.4033 45.8608 19.5742 45.8608H46.5767C46.7476 45.8608 46.9115 45.7929 47.0324 45.6721C47.1533 45.5512 47.2212 45.3873 47.2212 45.2163V31.1668C47.2212 31.0821 47.2046 30.9982 47.1723 30.92C47.1399 30.8417 47.0924 30.7706 47.0326 30.7107C46.9727 30.6508 46.9017 30.6033 46.8234 30.5708C46.7452 30.5384 46.6614 30.5217 46.5767 30.5217ZM41.8332 35.0951V36.9667H24.3167V35.0956L41.8332 35.0951ZM24.3167 39.9314V38.2557H41.8326V39.9314H24.3167Z" fill="#0088CC"/>
<path d="M49.4126 13.6575H43.741C43.5701 13.6575 43.4061 13.7254 43.2853 13.8463C43.1644 13.9671 43.0965 14.1311 43.0965 14.302V18.3623C43.0965 18.5333 43.1644 18.6972 43.2853 18.8181C43.4061 18.9389 43.5701 19.0068 43.741 19.0068H49.4126C49.5835 19.0068 49.7475 18.9389 49.8683 18.8181C49.9892 18.6972 50.0571 18.5333 50.0571 18.3623V14.302C50.0571 14.1311 49.9892 13.9671 49.8683 13.8463C49.7475 13.7254 49.5835 13.6575 49.4126 13.6575ZM48.7681 17.7178H44.3855V14.9465H48.7681V17.7178Z" fill="#0088CC"/>
<path d="M46.5772 20.7057C46.1406 20.7055 45.7137 20.8348 45.3506 21.0772C44.9875 21.3197 44.7044 21.6643 44.5372 22.0676C44.37 22.4709 44.3261 22.9148 44.4112 23.343C44.4962 23.7713 44.7064 24.1647 45.015 24.4735C45.3237 24.7822 45.717 24.9926 46.1452 25.0778C46.5734 25.1631 47.0172 25.1194 47.4206 24.9524C47.824 24.7854 48.1688 24.5024 48.4114 24.1394C48.654 23.7764 48.7835 23.3496 48.7835 22.913C48.7828 22.328 48.5501 21.7671 48.1366 21.3534C47.723 20.9396 47.1622 20.7067 46.5772 20.7057ZM46.5772 23.8318C46.3956 23.832 46.2179 23.7784 46.0668 23.6776C45.9157 23.5769 45.7978 23.4335 45.7281 23.2658C45.6585 23.098 45.6401 22.9134 45.6754 22.7352C45.7106 22.557 45.798 22.3933 45.9263 22.2648C46.0546 22.1362 46.2182 22.0486 46.3963 22.013C46.5745 21.9775 46.7591 21.9955 46.927 22.0649C47.0949 22.1343 47.2384 22.2519 47.3394 22.4029C47.4404 22.5539 47.4944 22.7314 47.4945 22.913C47.4942 23.1563 47.3975 23.3896 47.2256 23.5617C47.0536 23.7338 46.8205 23.8313 46.5772 23.8318Z" fill="#0088CC"/>
</g>
<defs>
<filter id="filter0_d" x="0" y="0" width="68.2" height="68.2" filterUnits="userSpaceOnUse" color-interpolation-filters="sRGB">
<feFlood flood-opacity="0" result="BackgroundImageFix"/>
<feColorMatrix in="SourceAlpha" type="matrix" values="0 0 0 0 0 0 0 0 0 0 0 0 0 0 0 0 0 0 127 0"/>
<feOffset dy="4"/>
<feGaussianBlur stdDeviation="2"/>
<feColorMatrix type="matrix" values="0 0 0 0 0 0 0 0 0 0 0 0 0 0 0 0 0 0 0.25 0"/>
<feBlend mode="normal" in2="BackgroundImageFix" result="effect1_dropShadow"/>
<feBlend mode="normal" in="SourceGraphic" in2="effect1_dropShadow" result="shape"/>
</filter>
</defs>
</svg>
