<svg width="74" height="75" viewBox="0 0 74 75" fill="none" xmlns="http://www.w3.org/2000/svg">
<g filter="url(#filter0_d)">
<rect x="4" y="4" width="66" height="62.5263" rx="31.2632" fill="white"/>
</g>
<path d="M50.8035 28.4625L48.064 27.0188C47.9891 26.9793 47.9072 26.9549 47.8229 26.9471C47.7386 26.9393 47.6536 26.9482 47.5727 26.9732C47.4918 26.9983 47.4167 27.039 47.3516 27.0931C47.2864 27.1472 47.2326 27.2135 47.1931 27.2884C47.1536 27.3633 47.1293 27.4452 47.1215 27.5295C47.1137 27.6138 47.1226 27.6989 47.1476 27.7797C47.1726 27.8606 47.2134 27.9357 47.2674 28.0009C47.3215 28.066 47.3879 28.1198 47.4628 28.1593L49.8584 29.4221V49.3711H43.0274V39.2499C43.0274 39.079 42.9595 38.915 42.8386 38.7941C42.7177 38.6733 42.5538 38.6054 42.3829 38.6054H31.6171C31.4462 38.6054 31.2823 38.6733 31.1614 38.7941C31.0405 38.915 30.9726 39.079 30.9726 39.2499V47.0508C30.9726 47.2217 31.0405 47.3857 31.1614 47.5065C31.2823 47.6274 31.4462 47.6953 31.6171 47.6953C31.7881 47.6953 31.952 47.6274 32.0729 47.5065C32.1938 47.3857 32.2617 47.2217 32.2617 47.0508V39.8944H41.7383V49.3711H24.1416V29.0297C24.1416 28.8587 24.0737 28.6948 23.9528 28.5739C23.8319 28.4531 23.668 28.3852 23.4971 28.3852C23.3261 28.3852 23.1622 28.4531 23.0413 28.5739C22.9204 28.6948 22.8525 28.8587 22.8525 29.0297V50.0156C22.8525 50.1866 22.9204 50.3505 23.0413 50.4714C23.1622 50.5923 23.3261 50.6602 23.4971 50.6602H50.5029C50.6739 50.6602 50.8378 50.5923 50.9587 50.4714C51.0795 50.3505 51.1474 50.1866 51.1474 50.0156V29.0297C51.1469 28.9129 51.1146 28.7984 51.0541 28.6985C50.9935 28.5986 50.9069 28.517 50.8035 28.4625Z" fill="black"/>
<path d="M51.0091 19.7005C50.4282 19.7012 49.8712 19.9323 49.4603 20.3431C49.0495 20.7539 48.8184 21.3109 48.8177 21.8919C48.8198 22.2251 48.8986 22.5533 49.0482 22.851L44.8861 25.3425L42.9267 24.3112C42.7755 24.2315 42.5987 24.2151 42.4354 24.2657C42.2721 24.3162 42.1356 24.4296 42.0558 24.5809C41.9761 24.7321 41.9597 24.9088 42.0103 25.0722C42.0609 25.2355 42.1743 25.372 42.3255 25.4518L44.2606 26.4717V34.5154C44.2606 34.6864 44.3285 34.8503 44.4494 34.9712C44.5703 35.092 44.7342 35.16 44.9052 35.16C45.0761 35.16 45.24 35.092 45.3609 34.9712C45.4818 34.8503 45.5497 34.6864 45.5497 34.5154V26.4469L49.9624 23.8054C50.282 23.9851 50.642 24.0807 51.0086 24.0833C51.5898 24.0833 52.1472 23.8524 52.5582 23.4414C52.9692 23.0305 53.2 22.4731 53.2 21.8919C53.2 21.3107 52.9692 20.7533 52.5582 20.3423C52.1472 19.9314 51.5898 19.7005 51.0086 19.7005H51.0091ZM51.0091 22.7942C50.8307 22.7942 50.6562 22.7413 50.5078 22.6422C50.3594 22.543 50.2438 22.4021 50.1755 22.2372C50.1072 22.0723 50.0893 21.8909 50.1241 21.7159C50.159 21.5408 50.2449 21.38 50.3711 21.2538C50.4973 21.1276 50.6581 21.0417 50.8331 21.0069C51.0081 20.9721 51.1896 20.9899 51.3545 21.0582C51.5193 21.1265 51.6603 21.2422 51.7594 21.3906C51.8586 21.539 51.9115 21.7134 51.9115 21.8919C51.9112 22.1311 51.8161 22.3605 51.6469 22.5296C51.4777 22.6988 51.2484 22.794 51.0091 22.7942Z" fill="black"/>
<path d="M26.4854 19.7227C26.7911 19.722 27.0934 19.6568 27.3722 19.5314C27.3815 19.5391 27.3862 19.5499 27.3959 19.5571L32.743 23.4295L31.0729 24.3097C30.998 24.3491 30.9316 24.403 30.8775 24.4681C30.8234 24.5332 30.7827 24.6084 30.7577 24.6893C30.7326 24.7701 30.7238 24.8551 30.7316 24.9394C30.7394 25.0237 30.7637 25.1057 30.8032 25.1805C30.8427 25.2554 30.8965 25.3218 30.9616 25.3759C31.0268 25.43 31.1019 25.4707 31.1828 25.4958C31.2637 25.5208 31.3487 25.5297 31.433 25.5218C31.5173 25.514 31.5992 25.4897 31.6741 25.4502L33.3164 24.5845V34.5144C33.3164 34.6853 33.3843 34.8493 33.5051 34.9701C33.626 35.091 33.7899 35.1589 33.9609 35.1589C34.1318 35.1589 34.2958 35.091 34.4166 34.9701C34.5375 34.8493 34.6054 34.6853 34.6054 34.5144V23.9049L37.0005 22.6437L39.3945 23.9054V34.5144C39.3945 34.6853 39.4624 34.8493 39.5833 34.9701C39.7042 35.091 39.8681 35.1589 40.0391 35.1589C40.21 35.1589 40.374 35.091 40.4948 34.9701C40.6157 34.8493 40.6836 34.6853 40.6836 34.5144V23.8451L46.6045 19.5571C46.6143 19.5499 46.619 19.5391 46.6282 19.5314C47.1129 19.7526 47.6609 19.7926 48.1725 19.6441C48.6842 19.4956 49.1256 19.1684 49.4165 18.7221C49.7075 18.2758 49.8287 17.74 49.7581 17.2119C49.6875 16.6838 49.4298 16.1986 49.0318 15.8444C48.6338 15.4902 48.122 15.2905 47.5893 15.2817C47.0566 15.2728 46.5384 15.4553 46.1288 15.7961C45.7193 16.1369 45.4456 16.6132 45.3575 17.1387C45.2693 17.6641 45.3726 18.2037 45.6486 18.6594L39.9849 22.7592L37.3011 21.3469C37.2084 21.298 37.1053 21.2725 37.0005 21.2725C36.8957 21.2725 36.7926 21.298 36.6999 21.3469L34.0155 22.7617L28.3545 18.6594C28.5635 18.3201 28.675 17.9298 28.6768 17.5312C28.6768 17.0978 28.5482 16.6741 28.3074 16.3138C28.0666 15.9534 27.7244 15.6725 27.324 15.5067C26.9235 15.3408 26.4829 15.2974 26.0578 15.382C25.6327 15.4665 25.2423 15.6752 24.9358 15.9817C24.6293 16.2882 24.4206 16.6786 24.3361 17.1037C24.2515 17.5288 24.2949 17.9694 24.4608 18.3699C24.6266 18.7703 24.9075 19.1125 25.2679 19.3533C25.6282 19.5941 26.0519 19.7227 26.4854 19.7227ZM47.5151 16.6289C47.6936 16.6288 47.8681 16.6816 48.0166 16.7807C48.165 16.8798 48.2808 17.0207 48.3491 17.1856C48.4175 17.3505 48.4355 17.5319 48.4007 17.707C48.3659 17.882 48.28 18.0429 48.1539 18.1691C48.0277 18.2954 47.8669 18.3814 47.6919 18.4162C47.5168 18.4511 47.3354 18.4332 47.1704 18.365C47.0055 18.2967 46.8646 18.181 46.7654 18.0326C46.6662 17.8842 46.6133 17.7097 46.6133 17.5312C46.6136 17.292 46.7087 17.0627 46.8779 16.8935C47.047 16.7243 47.2764 16.6292 47.5156 16.6289H47.5151ZM26.4854 16.6289C26.6638 16.6289 26.8383 16.6818 26.9867 16.781C27.1351 16.8801 27.2507 17.0211 27.319 17.1859C27.3873 17.3508 27.4052 17.5323 27.3704 17.7073C27.3355 17.8823 27.2496 18.0431 27.1234 18.1693C26.9972 18.2955 26.8364 18.3814 26.6614 18.4163C26.4864 18.4511 26.3049 18.4332 26.14 18.3649C25.9752 18.2966 25.8342 18.181 25.7351 18.0326C25.6359 17.8842 25.583 17.7097 25.583 17.5312C25.5833 17.292 25.6784 17.0627 25.8476 16.8935C26.0168 16.7243 26.2461 16.6292 26.4854 16.6289Z" fill="black"/>
<path d="M24.0302 23.809L27.6576 26.1097L25.8859 27.0435C25.811 27.083 25.7447 27.1368 25.6906 27.2019C25.6365 27.2671 25.5958 27.3422 25.5707 27.4231C25.5457 27.504 25.5368 27.589 25.5446 27.6733C25.5524 27.7576 25.5768 27.8395 25.6163 27.9144C25.6557 27.9893 25.7096 28.0557 25.7747 28.1097C25.8398 28.1638 25.915 28.2046 25.9959 28.2296C26.0767 28.2546 26.1617 28.2635 26.246 28.2557C26.3303 28.2479 26.4123 28.2235 26.4872 28.1841L28.4501 27.1497V34.5144C28.4501 34.6853 28.518 34.8493 28.6389 34.9701C28.7598 35.091 28.9237 35.1589 29.0947 35.1589C29.2656 35.1589 29.4295 35.091 29.5504 34.9701C29.6713 34.8493 29.7392 34.6853 29.7392 34.5144V26.2577C29.7393 26.1491 29.7119 26.0422 29.6596 25.947C29.6073 25.8518 29.5318 25.7714 29.4401 25.7132L24.9454 22.8628C25.0992 22.5619 25.1804 22.2293 25.1826 21.8914C25.1826 21.458 25.0541 21.0343 24.8133 20.6739C24.5725 20.3135 24.2303 20.0326 23.8298 19.8668C23.4294 19.7009 22.9888 19.6575 22.5637 19.7421C22.1386 19.8266 21.7481 20.0353 21.4417 20.3418C21.1352 20.6483 20.9265 21.0388 20.8419 21.4639C20.7574 21.8889 20.8008 22.3296 20.9666 22.73C21.1325 23.1304 21.4134 23.4727 21.7737 23.7135C22.1341 23.9543 22.5578 24.0828 22.9912 24.0828C23.355 24.0802 23.7124 23.9861 24.0302 23.809ZM22.0889 21.8914C22.0889 21.7129 22.1418 21.5384 22.2409 21.3901C22.3401 21.2417 22.481 21.126 22.6459 21.0577C22.8108 20.9894 22.9922 20.9716 23.1673 21.0064C23.3423 21.0412 23.5031 21.1271 23.6293 21.2533C23.7555 21.3795 23.8414 21.5403 23.8762 21.7153C23.911 21.8904 23.8932 22.0718 23.8249 22.2367C23.7566 22.4016 23.6409 22.5425 23.4925 22.6416C23.3441 22.7408 23.1697 22.7937 22.9912 22.7937C22.7521 22.7934 22.5228 22.6984 22.3536 22.5293C22.1845 22.3603 22.0893 22.131 22.0889 21.8919V21.8914Z" fill="black"/>
<defs>
<filter id="filter0_d" x="0" y="4" width="74" height="70.5263" filterUnits="userSpaceOnUse" color-interpolation-filters="sRGB">
<feFlood flood-opacity="0" result="BackgroundImageFix"/>
<feColorMatrix in="SourceAlpha" type="matrix" values="0 0 0 0 0 0 0 0 0 0 0 0 0 0 0 0 0 0 127 0"/>
<feOffset dy="4"/>
<feGaussianBlur stdDeviation="2"/>
<feColorMatrix type="matrix" values="0 0 0 0 0 0 0 0 0 0 0 0 0 0 0 0 0 0 0.3 0"/>
<feBlend mode="normal" in2="BackgroundImageFix" result="effect1_dropShadow"/>
<feBlend mode="normal" in="SourceGraphic" in2="effect1_dropShadow" result="shape"/>
</filter>
</defs>
</svg>
