<svg width="69" height="69" viewBox="0 0 69 69" fill="none" xmlns="http://www.w3.org/2000/svg">
<g filter="url(#filter0_d)">
<rect x="4.65" y="0.65" width="58.9029" height="58.9029" rx="9.35" fill="white" stroke="#0088CC" stroke-width="1.3"/>
<path d="M56 19.4966V42.2507C56 42.6465 55.6791 42.9674 55.2833 42.9674C54.8876 42.9674 54.5667 42.6465 54.5667 42.2507V19.4966C54.5667 18.311 53.6021 17.3466 52.4167 17.3466H45.4292C44.2437 17.3466 43.2792 18.311 43.2792 19.4966V42.2507C43.2792 43.4363 44.2437 44.4007 45.4292 44.4007H52.4167C52.8124 44.4007 53.1333 44.7216 53.1333 45.1174C53.1333 45.5132 52.8124 45.8341 52.4167 45.8341H45.4292C43.4533 45.8341 41.8458 44.2266 41.8458 42.2507V19.4966C41.8458 17.5207 43.4533 15.9132 45.4292 15.9132H52.4167C54.3925 15.9132 56 17.5206 56 19.4966ZM46.5435 31.2462C46.1416 31.3252 45.9017 31.7219 45.981 32.0883C46.0598 32.4918 46.4586 32.7297 46.823 32.6509C47.1605 32.5848 47.3999 32.2871 47.3999 31.9486C47.4 31.4934 46.9801 31.1573 46.5435 31.2462ZM51.0227 31.2462C50.6229 31.3247 50.3804 31.7198 50.4602 32.0883C50.538 32.4868 50.9325 32.7307 51.3022 32.6509C51.6396 32.5848 51.8791 32.2868 51.8791 31.9486C51.8792 31.4993 51.466 31.1559 51.0227 31.2462ZM46.5435 35.2775C45.9111 35.4017 45.7634 36.231 46.2855 36.5756C46.7566 36.8929 47.3999 36.5524 47.3999 35.9798C47.4 35.5303 46.9859 35.1874 46.5435 35.2775ZM51.0227 35.2775C50.6229 35.356 50.3804 35.751 50.4602 36.1196C50.538 36.518 50.9325 36.762 51.3022 36.6822C51.6396 36.616 51.8791 36.3181 51.8791 35.9798C51.8792 35.5306 51.466 35.1872 51.0227 35.2775ZM45.9667 40.0112C45.9667 40.588 46.6136 40.9223 47.081 40.6069C47.4505 40.3635 47.5137 39.8276 47.1904 39.5041C46.7425 39.0565 45.9667 39.3709 45.9667 40.0112ZM50.8883 39.3491C50.3543 39.5718 50.294 40.2961 50.7647 40.6068C51.301 40.968 51.9956 40.4763 51.8647 39.8713C51.7781 39.4273 51.3025 39.1767 50.8883 39.3491ZM52.0583 23.9757C52.0583 25.7046 50.6518 27.1112 48.9229 27.1112C47.194 27.1112 45.7875 25.7046 45.7875 23.9757C45.7875 22.2469 47.194 20.8403 48.9229 20.8403C50.6518 20.8403 52.0583 22.2468 52.0583 23.9757ZM50.625 23.9757C50.625 23.0372 49.8615 22.2737 48.9229 22.2737C47.9844 22.2737 47.2208 23.0372 47.2208 23.9757C47.2208 24.9143 47.9844 25.6778 48.9229 25.6778C49.8615 25.6778 50.625 24.9142 50.625 23.9757ZM36.7396 23.7966C36.3438 23.7966 36.0229 24.1175 36.0229 24.5132V39.2945C36.0229 40.48 35.0584 41.4445 33.8729 41.4445H16.5833C15.3979 41.4445 14.4333 40.48 14.4333 39.2945V22.0049C14.4333 20.8194 15.3979 19.8549 16.5833 19.8549H20.9729C21.3687 19.8549 21.6896 19.534 21.6896 19.1382C21.6896 18.7425 21.3687 18.4216 20.9729 18.4216H16.5833C14.6075 18.4216 13 20.0291 13 22.0049V39.2945C13 41.2703 14.6075 42.8778 16.5833 42.8778H33.8729C35.8488 42.8778 37.4562 41.2703 37.4562 39.2945V24.5132C37.4562 24.1174 37.1354 23.7966 36.7396 23.7966ZM19.5396 28.2757C19.1438 28.2757 18.8229 28.5966 18.8229 28.9924C18.8229 29.3882 19.1438 29.7091 19.5396 29.7091H20.9729V34.0091C20.9729 34.4049 21.2938 34.7257 21.6896 34.7257C22.0854 34.7257 22.4062 34.4049 22.4062 34.0091V29.7091H23.8396C24.2354 29.7091 24.5562 29.3882 24.5562 28.9924C24.5562 28.5966 24.2354 28.2757 23.8396 28.2757H19.5396ZM26.424 28.3336C26.0602 28.4895 25.8917 28.9109 26.0475 29.2747L28.1975 34.2914C28.4448 34.8683 29.267 34.8702 29.515 34.2914L31.665 29.2747C31.8209 28.9109 31.6523 28.4896 31.2886 28.3336C30.925 28.1777 30.5035 28.3462 30.3475 28.71L28.8562 32.1897L27.365 28.71C27.209 28.3463 26.7879 28.1777 26.424 28.3336ZM32.256 22.6386C33.1023 23.485 32.4947 24.9325 31.3058 24.9325C30.1179 24.9325 29.5087 23.4856 30.3557 22.6386C30.8807 22.1134 31.7309 22.1133 32.256 22.6386ZM34.5998 21.3084C34.8797 21.0285 34.8797 20.5748 34.5998 20.2949C32.7793 18.4743 29.8327 18.4741 28.0118 20.2949C27.732 20.5747 27.732 21.0285 28.0118 21.3084C28.2918 21.5883 28.7454 21.5884 29.0254 21.3084C30.2856 20.048 32.3258 20.0479 33.5862 21.3084C33.8664 21.5884 34.32 21.588 34.5998 21.3084ZM25.3514 17.6343C25.0715 17.9142 25.0715 18.3679 25.3514 18.6479C25.6313 18.9277 26.085 18.9277 26.3649 18.6479C29.0956 15.917 33.5157 15.9168 36.2467 18.6479C36.5266 18.9278 36.9804 18.9276 37.2602 18.6479C37.5401 18.368 37.5401 17.9142 37.2602 17.6343C33.9692 14.3433 28.6428 14.343 25.3514 17.6343Z" fill="#0088CC"/>
</g>
<defs>
<filter id="filter0_d" x="0" y="0" width="68.2029" height="68.2029" filterUnits="userSpaceOnUse" color-interpolation-filters="sRGB">
<feFlood flood-opacity="0" result="BackgroundImageFix"/>
<feColorMatrix in="SourceAlpha" type="matrix" values="0 0 0 0 0 0 0 0 0 0 0 0 0 0 0 0 0 0 127 0"/>
<feOffset dy="4"/>
<feGaussianBlur stdDeviation="2"/>
<feColorMatrix type="matrix" values="0 0 0 0 0 0 0 0 0 0 0 0 0 0 0 0 0 0 0.25 0"/>
<feBlend mode="normal" in2="BackgroundImageFix" result="effect1_dropShadow"/>
<feBlend mode="normal" in="SourceGraphic" in2="effect1_dropShadow" result="shape"/>
</filter>
</defs>
</svg>
