<svg width="69" height="69" viewBox="0 0 69 69" fill="none" xmlns="http://www.w3.org/2000/svg">
<g filter="url(#filter0_d)">
<rect x="4.65" y="0.65" width="58.9029" height="58.9029" rx="9.35" fill="white" stroke="#0088CC" stroke-width="1.3"/>
<path d="M40.7733 20.7344C39.7771 19.8492 38.6054 19.1842 37.3346 18.7827C36.0639 18.3813 34.7227 18.2525 33.3988 18.4047C31.8532 18.5849 30.3771 19.1481 29.1044 20.0432C29.0271 20.0943 28.9609 20.1604 28.9096 20.2376C28.8582 20.3147 28.8229 20.4013 28.8057 20.4924C28.7884 20.5834 28.7896 20.677 28.8091 20.7675C28.8286 20.8581 28.866 20.9438 28.9192 21.0197C28.9724 21.0955 29.0403 21.16 29.1188 21.2091C29.1973 21.2583 29.2849 21.2913 29.3763 21.306C29.4678 21.3208 29.5613 21.3171 29.6513 21.2951C29.7413 21.2732 29.826 21.2334 29.9004 21.1781C31.3821 20.1398 33.1714 19.633 34.9775 19.74C36.7836 19.8471 38.5005 20.5617 39.8492 21.7678C41.405 23.1534 42.3606 25.0901 42.5139 27.1678C42.6671 29.2456 42.0059 31.3014 40.6702 32.9003C39.6206 34.2028 39.0604 35.8317 39.0871 37.5042V39.1544H29.912V37.6296C29.9392 35.9002 29.3669 34.2146 28.2923 32.8593C27.5786 31.9971 27.0543 30.9944 26.7534 29.9164C26.4526 28.8383 26.382 27.709 26.5462 26.6019C26.6994 25.5088 27.0833 24.4608 27.6722 23.5272C27.7704 23.3714 27.8026 23.1829 27.7619 23.0032C27.7211 22.8236 27.6106 22.6675 27.4547 22.5693C27.2989 22.4711 27.1104 22.4388 26.9307 22.4796C26.7511 22.5204 26.595 22.6309 26.4968 22.7867C25.8045 23.8856 25.3531 25.1188 25.1722 26.4049C24.9809 27.7027 25.0648 29.0262 25.4184 30.2895C25.772 31.5527 26.3874 32.7274 27.2246 33.7374C28.0952 34.8449 28.5557 36.2195 28.5281 37.6279V39.8467C28.5281 40.0306 28.6011 40.2069 28.7311 40.337C28.8612 40.467 29.0375 40.54 29.2214 40.54H39.7804C39.9643 40.54 40.1407 40.467 40.2707 40.337C40.4008 40.2069 40.4738 40.0306 40.4738 39.8467V37.5031C40.4477 36.1566 40.8936 34.8434 41.7341 33.7912C43.3007 31.9161 44.0764 29.5051 43.8971 27.0683C43.7178 24.6314 42.5975 22.36 40.7733 20.7344Z" fill="#0088CC"/>
<path d="M39.7796 43.1299H29.2178C29.0339 43.1299 28.8575 43.2029 28.7275 43.333C28.5975 43.463 28.5244 43.6393 28.5244 43.8232C28.5244 44.0071 28.5975 44.1835 28.7275 44.3135C28.8575 44.4435 29.0339 44.5166 29.2178 44.5166H31.8653V44.8633C31.8653 45.5616 32.1427 46.2313 32.6365 46.7252C33.1303 47.219 33.8001 47.4964 34.4984 47.4964C35.1967 47.4964 35.8665 47.219 36.3603 46.7252C36.8541 46.2313 37.1315 45.5616 37.1315 44.8633V44.5149H39.7796C39.9635 44.5149 40.1398 44.4419 40.2699 44.3118C40.3999 44.1818 40.4729 44.0055 40.4729 43.8216C40.4729 43.6377 40.3999 43.4613 40.2699 43.3313C40.1398 43.2013 39.9635 43.1282 39.7796 43.1282V43.1299ZM35.7453 44.8633C35.7453 45.1938 35.614 45.5108 35.3803 45.7446C35.1465 45.9783 34.8295 46.1096 34.4989 46.1096C34.1684 46.1096 33.8514 45.9783 33.6176 45.7446C33.3839 45.5108 33.2526 45.1938 33.2526 44.8633V44.5149H35.7453V44.8633Z" fill="#0088CC"/>
<path d="M34.5 15.6035C34.6839 15.6035 34.8602 15.5305 34.9903 15.4004C35.1203 15.2704 35.1934 15.094 35.1934 14.9102V10.1953C35.1934 10.0114 35.1203 9.83506 34.9903 9.70503C34.8602 9.575 34.6839 9.50195 34.5 9.50195C34.3161 9.50195 34.1397 9.575 34.0097 9.70503C33.8797 9.83506 33.8066 10.0114 33.8066 10.1953V14.9102C33.8066 15.094 33.8797 15.2704 34.0097 15.4004C34.1397 15.5305 34.3161 15.6035 34.5 15.6035Z" fill="#0088CC"/>
<path d="M43.3583 19.2722C43.4492 19.2725 43.5392 19.2548 43.6233 19.2201C43.7073 19.1855 43.7837 19.1346 43.8481 19.0703L47.1823 15.7367C47.2515 15.6736 47.3072 15.5971 47.3461 15.5119C47.385 15.4267 47.4062 15.3345 47.4084 15.2408C47.4107 15.1472 47.3939 15.0541 47.3592 14.9671C47.3245 14.8801 47.2725 14.8011 47.2064 14.7347C47.1403 14.6684 47.0614 14.6161 46.9745 14.5811C46.8877 14.5461 46.7946 14.529 46.701 14.531C46.6073 14.5329 46.515 14.5538 46.4297 14.5924C46.3443 14.6309 46.2677 14.6864 46.2044 14.7554L42.8701 18.0891C42.7731 18.186 42.7071 18.3096 42.6803 18.4441C42.6536 18.5786 42.6673 18.7181 42.7198 18.8448C42.7723 18.9715 42.8612 19.0798 42.9752 19.156C43.0892 19.2322 43.2233 19.2728 43.3605 19.2728L43.3583 19.2722Z" fill="#0088CC"/>
<path d="M51.7422 26.7433H47.0273C46.8435 26.7433 46.6671 26.8164 46.5371 26.9464C46.407 27.0764 46.334 27.2528 46.334 27.4367C46.334 27.6206 46.407 27.7969 46.5371 27.927C46.6671 28.057 46.8435 28.13 47.0273 28.13H51.7422C51.9261 28.13 52.1024 28.057 52.2325 27.927C52.3625 27.7969 52.4355 27.6206 52.4355 27.4367C52.4355 27.2528 52.3625 27.0764 52.2325 26.9464C52.1024 26.8164 51.9261 26.7433 51.7422 26.7433Z" fill="#0088CC"/>
<path d="M43.8483 35.8041C43.7846 35.7366 43.7081 35.6826 43.6232 35.6452C43.5383 35.6078 43.4467 35.5878 43.354 35.5865C43.2612 35.5851 43.1691 35.6024 43.0831 35.6372C42.9972 35.6721 42.9191 35.7239 42.8535 35.7895C42.7879 35.8551 42.7361 35.9332 42.7012 36.0191C42.6664 36.1051 42.6491 36.1972 42.6505 36.29C42.6518 36.3827 42.6718 36.4743 42.7092 36.5592C42.7466 36.6441 42.8006 36.7206 42.8681 36.7843L46.2046 40.1185C46.269 40.1829 46.3454 40.234 46.4295 40.2688C46.5137 40.3037 46.6038 40.3216 46.6949 40.3216C46.786 40.3216 46.8761 40.3037 46.9603 40.2688C47.0444 40.234 47.1209 40.1829 47.1852 40.1185C47.2496 40.0541 47.3007 39.9776 47.3356 39.8935C47.3704 39.8094 47.3883 39.7192 47.3883 39.6281C47.3883 39.5371 47.3704 39.4469 47.3356 39.3628C47.3007 39.2786 47.2496 39.2022 47.1852 39.1378L43.8483 35.8041Z" fill="#0088CC"/>
<path d="M25.1521 35.8041L21.8178 39.1383C21.748 39.2013 21.6917 39.2778 21.6524 39.3632C21.6131 39.4486 21.5916 39.5411 21.5891 39.635C21.5866 39.729 21.6033 39.8225 21.6381 39.9099C21.6729 39.9972 21.7251 40.0765 21.7915 40.1431C21.8579 40.2096 21.9372 40.2619 22.0245 40.2969C22.1117 40.3318 22.2052 40.3486 22.2992 40.3463C22.3932 40.344 22.4857 40.3227 22.5712 40.2835C22.6566 40.2443 22.7332 40.1882 22.7963 40.1185L26.1305 36.7842C26.1967 36.7203 26.2495 36.6437 26.2858 36.5591C26.3222 36.4745 26.3413 36.3836 26.342 36.2915C26.3428 36.1994 26.3252 36.1081 26.2903 36.0229C26.2555 35.9377 26.204 35.8603 26.1388 35.7952C26.0737 35.7302 25.9963 35.6787 25.9111 35.6439C25.8258 35.609 25.7345 35.5915 25.6425 35.5923C25.5504 35.5932 25.4594 35.6123 25.3749 35.6487C25.2903 35.685 25.2138 35.7379 25.1498 35.8041H25.1521Z" fill="#0088CC"/>
<path d="M22.666 27.4367C22.666 27.2528 22.593 27.0764 22.4629 26.9464C22.3329 26.8164 22.1566 26.7433 21.9727 26.7433H17.2578C17.0739 26.7433 16.8976 26.8164 16.7675 26.9464C16.6375 27.0764 16.5645 27.2528 16.5645 27.4367C16.5645 27.6206 16.6375 27.7969 16.7675 27.927C16.8976 28.057 17.0739 28.13 17.2578 28.13H21.9727C22.1566 28.13 22.3329 28.057 22.4629 27.927C22.593 27.7969 22.666 27.6206 22.666 27.4367Z" fill="#0088CC"/>
<path d="M25.1519 19.0703C25.2826 19.1967 25.4577 19.2666 25.6395 19.2651C25.8213 19.2636 25.9952 19.1907 26.1238 19.0622C26.2524 18.9336 26.3254 18.7598 26.327 18.578C26.3286 18.3962 26.2588 18.221 26.1325 18.0902L22.7961 14.7554C22.6661 14.6254 22.4897 14.5523 22.3058 14.5523C22.1218 14.5523 21.9455 14.6254 21.8154 14.7554C21.6854 14.8855 21.6123 15.0618 21.6123 15.2458C21.6123 15.4297 21.6854 15.6061 21.8154 15.7361L25.1519 19.0703Z" fill="#0088CC"/>
</g>
<defs>
<filter id="filter0_d" x="0" y="0" width="68.2029" height="68.2029" filterUnits="userSpaceOnUse" color-interpolation-filters="sRGB">
<feFlood flood-opacity="0" result="BackgroundImageFix"/>
<feColorMatrix in="SourceAlpha" type="matrix" values="0 0 0 0 0 0 0 0 0 0 0 0 0 0 0 0 0 0 127 0"/>
<feOffset dy="4"/>
<feGaussianBlur stdDeviation="2"/>
<feColorMatrix type="matrix" values="0 0 0 0 0 0 0 0 0 0 0 0 0 0 0 0 0 0 0.25 0"/>
<feBlend mode="normal" in2="BackgroundImageFix" result="effect1_dropShadow"/>
<feBlend mode="normal" in="SourceGraphic" in2="effect1_dropShadow" result="shape"/>
</filter>
</defs>
</svg>
