<svg width="79" height="79" viewBox="0 0 79 79" fill="none" xmlns="http://www.w3.org/2000/svg">
<g filter="url(#filter0_d)">
<rect x="7" y="8" width="66" height="62.5263" rx="31.2632" fill="white"/>
</g>
<path d="M46.48 30.8594C45.3715 29.8745 44.0677 29.1345 42.6538 28.6878C41.2398 28.2411 39.7476 28.0978 38.2745 28.2672C36.5548 28.4677 34.9124 29.0944 33.4962 30.0904C33.4102 30.1472 33.3365 30.2207 33.2794 30.3066C33.2223 30.3924 33.183 30.4888 33.1638 30.5901C33.1446 30.6914 33.1459 30.7955 33.1676 30.8963C33.1893 30.997 33.231 31.0924 33.2902 31.1768C33.3494 31.2612 33.4249 31.3329 33.5122 31.3876C33.5996 31.4424 33.697 31.479 33.7988 31.4955C33.9006 31.5119 34.0046 31.5078 34.1047 31.4833C34.2049 31.4589 34.2991 31.4146 34.3819 31.3531C36.0305 30.1978 38.0214 29.6339 40.0311 29.753C42.0407 29.8721 43.9511 30.6672 45.4517 32.0092C47.1828 33.551 48.2461 35.7058 48.4166 38.0177C48.5871 40.3296 47.8514 42.6171 46.3652 44.3961C45.1973 45.8453 44.5741 47.6579 44.6037 49.5188V51.3549H34.3948V49.6583C34.4251 47.734 33.7884 45.8585 32.5926 44.3505C31.7985 43.3912 31.2151 42.2755 30.8804 41.076C30.5456 39.8764 30.4671 38.6199 30.6497 37.388C30.8203 36.1717 31.2474 35.0056 31.9026 33.9669C32.0119 33.7935 32.0478 33.5838 32.0024 33.3839C31.957 33.184 31.8341 33.0103 31.6607 32.901C31.4873 32.7918 31.2775 32.7559 31.0776 32.8012C30.8778 32.8466 30.7041 32.9695 30.5948 33.143C29.8245 34.3657 29.3222 35.7378 29.121 37.1689C28.9082 38.6129 29.0015 40.0855 29.3949 41.4911C29.7883 42.8967 30.473 44.2038 31.4046 45.3275C32.3733 46.5598 32.8857 48.0893 32.855 49.6564V52.1252C32.855 52.3298 32.9362 52.526 33.0809 52.6707C33.2256 52.8154 33.4218 52.8967 33.6264 52.8967H45.3752C45.5798 52.8967 45.7761 52.8154 45.9207 52.6707C46.0654 52.526 46.1467 52.3298 46.1467 52.1252V49.5176C46.1177 48.0194 46.6137 46.5582 47.5489 45.3874C49.2921 43.301 50.1552 40.6183 49.9557 37.9069C49.7562 35.1956 48.5097 32.6681 46.48 30.8594V30.8594Z" fill="black"/>
<path d="M45.3759 55.7783H33.624C33.4194 55.7783 33.2232 55.8596 33.0785 56.0043C32.9338 56.149 32.8525 56.3452 32.8525 56.5498C32.8525 56.7544 32.9338 56.9506 33.0785 57.0953C33.2232 57.24 33.4194 57.3213 33.624 57.3213H36.5699V57.707C36.5699 58.4841 36.8785 59.2293 37.428 59.7787C37.9774 60.3282 38.7226 60.6368 39.4996 60.6368C40.2767 60.6368 41.0219 60.3282 41.5713 59.7787C42.1208 59.2293 42.4294 58.4841 42.4294 57.707V57.3194H45.3759C45.5805 57.3194 45.7767 57.2382 45.9214 57.0935C46.0661 56.9488 46.1474 56.7526 46.1474 56.548C46.1474 56.3433 46.0661 56.1471 45.9214 56.0024C45.7767 55.8578 45.5805 55.7765 45.3759 55.7765V55.7783ZM40.8871 57.707C40.8871 58.0748 40.741 58.4276 40.4809 58.6877C40.2208 58.9477 39.8681 59.0939 39.5003 59.0939C39.1325 59.0939 38.7797 58.9477 38.5196 58.6877C38.2596 58.4276 38.1134 58.0748 38.1134 57.707V57.3194H40.8871V57.707Z" fill="black"/>
<path d="M39.5 25.1504C39.7046 25.1504 39.9008 25.0691 40.0455 24.9244C40.1902 24.7797 40.2715 24.5835 40.2715 24.3789V19.1328C40.2715 18.9282 40.1902 18.732 40.0455 18.5873C39.9008 18.4426 39.7046 18.3613 39.5 18.3613C39.2954 18.3613 39.0992 18.4426 38.9545 18.5873C38.8098 18.732 38.7285 18.9282 38.7285 19.1328V24.3789C38.7285 24.5835 38.8098 24.7797 38.9545 24.9244C39.0992 25.0691 39.2954 25.1504 39.5 25.1504V25.1504Z" fill="black"/>
<path d="M49.3561 29.2325C49.4572 29.2327 49.5574 29.213 49.651 29.1745C49.7445 29.1359 49.8295 29.0793 49.9011 29.0078L53.611 25.2985C53.688 25.2283 53.75 25.1432 53.7932 25.0484C53.8365 24.9536 53.8601 24.851 53.8626 24.7468C53.8651 24.6426 53.8465 24.539 53.8078 24.4422C53.7692 24.3455 53.7113 24.2575 53.6378 24.1837C53.5642 24.1099 53.4764 24.0517 53.3798 24.0128C53.2831 23.9738 53.1796 23.9548 53.0754 23.957C52.9712 23.9591 52.8685 23.9824 52.7736 24.0253C52.6786 24.0682 52.5933 24.1299 52.5229 24.2067L48.8129 27.916C48.705 28.0239 48.6315 28.1614 48.6017 28.3111C48.572 28.4607 48.5872 28.6159 48.6457 28.7569C48.7041 28.8978 48.803 29.0183 48.9299 29.1031C49.0567 29.1879 49.2059 29.2331 49.3585 29.2331L49.3561 29.2325Z" fill="black"/>
<path d="M58.6836 37.5454H53.4375C53.2329 37.5454 53.0367 37.6266 52.892 37.7713C52.7473 37.916 52.666 38.1122 52.666 38.3168C52.666 38.5215 52.7473 38.7177 52.892 38.8624C53.0367 39.0071 53.2329 39.0883 53.4375 39.0883H58.6836C58.8882 39.0883 59.0844 39.0071 59.2291 38.8624C59.3738 38.7177 59.4551 38.5215 59.4551 38.3168C59.4551 38.1122 59.3738 37.916 59.2291 37.7713C59.0844 37.6266 58.8882 37.5454 58.6836 37.5454V37.5454Z" fill="black"/>
<path d="M49.9012 47.6271C49.8304 47.552 49.7452 47.4919 49.6507 47.4503C49.5563 47.4087 49.4544 47.3865 49.3512 47.3849C49.248 47.3834 49.1455 47.4026 49.0499 47.4414C48.9542 47.4802 48.8673 47.5378 48.7943 47.6108C48.7213 47.6838 48.6637 47.7707 48.6249 47.8664C48.5861 47.962 48.5669 48.0645 48.5684 48.1677C48.57 48.2709 48.5922 48.3728 48.6338 48.4672C48.6754 48.5617 48.7355 48.6469 48.8106 48.7177L52.523 52.4276C52.5947 52.4993 52.6797 52.5561 52.7733 52.5949C52.8669 52.6336 52.9673 52.6536 53.0686 52.6536C53.1699 52.6536 53.2703 52.6336 53.3639 52.5949C53.4575 52.5561 53.5425 52.4993 53.6142 52.4276C53.6858 52.356 53.7427 52.2709 53.7814 52.1773C53.8202 52.0837 53.8402 51.9833 53.8402 51.882C53.8402 51.7807 53.8202 51.6803 53.7814 51.5867C53.7427 51.4931 53.6858 51.4081 53.6142 51.3364L49.9012 47.6271Z" fill="black"/>
<path d="M29.0985 47.6271L25.3886 51.337C25.3109 51.4071 25.2483 51.4922 25.2045 51.5872C25.1608 51.6822 25.1368 51.7852 25.1341 51.8897C25.1313 51.9943 25.1499 52.0983 25.1886 52.1955C25.2273 52.2927 25.2854 52.3809 25.3593 52.455C25.4332 52.529 25.5214 52.5872 25.6185 52.6261C25.7156 52.665 25.8196 52.6837 25.9242 52.6812C26.0287 52.6786 26.1317 52.6548 26.2268 52.6112C26.3219 52.5676 26.4071 52.5052 26.4773 52.4276L30.1872 48.7177C30.2608 48.6465 30.3196 48.5614 30.36 48.4672C30.4004 48.3731 30.4217 48.2718 30.4225 48.1694C30.4234 48.067 30.4038 47.9654 30.365 47.8706C30.3262 47.7758 30.2689 47.6897 30.1964 47.6172C30.124 47.5448 30.0378 47.4876 29.943 47.4488C29.8482 47.41 29.7466 47.3906 29.6441 47.3915C29.5417 47.3924 29.4405 47.4137 29.3464 47.4542C29.2523 47.4946 29.1671 47.5534 29.096 47.6271H29.0985Z" fill="black"/>
<path d="M26.334 38.3168C26.334 38.1122 26.2527 37.916 26.108 37.7713C25.9633 37.6266 25.7671 37.5454 25.5625 37.5454H20.3164C20.1118 37.5454 19.9156 37.6266 19.7709 37.7713C19.6262 37.916 19.5449 38.1122 19.5449 38.3168C19.5449 38.5215 19.6262 38.7177 19.7709 38.8624C19.9156 39.0071 20.1118 39.0883 20.3164 39.0883H25.5625C25.7671 39.0883 25.9633 39.0071 26.108 38.8624C26.2527 38.7177 26.334 38.5215 26.334 38.3168V38.3168Z" fill="black"/>
<path d="M29.0985 29.0078C29.244 29.1484 29.4389 29.2262 29.6411 29.2245C29.8434 29.2228 30.0369 29.1417 30.18 28.9987C30.3231 28.8557 30.4043 28.6622 30.4061 28.46C30.4079 28.2577 30.3302 28.0628 30.1897 27.9172L26.4773 24.2067C26.3326 24.062 26.1364 23.9807 25.9317 23.9807C25.7271 23.9807 25.5308 24.062 25.3861 24.2067C25.2414 24.3514 25.1602 24.5477 25.1602 24.7523C25.1602 24.9569 25.2414 25.1532 25.3861 25.2979L29.0985 29.0078Z" fill="black"/>
<defs>
<filter id="filter0_d" x="3" y="8" width="74" height="70.5263" filterUnits="userSpaceOnUse" color-interpolation-filters="sRGB">
<feFlood flood-opacity="0" result="BackgroundImageFix"/>
<feColorMatrix in="SourceAlpha" type="matrix" values="0 0 0 0 0 0 0 0 0 0 0 0 0 0 0 0 0 0 127 0"/>
<feOffset dy="4"/>
<feGaussianBlur stdDeviation="2"/>
<feColorMatrix type="matrix" values="0 0 0 0 0 0 0 0 0 0 0 0 0 0 0 0 0 0 0.3 0"/>
<feBlend mode="normal" in2="BackgroundImageFix" result="effect1_dropShadow"/>
<feBlend mode="normal" in="SourceGraphic" in2="effect1_dropShadow" result="shape"/>
</filter>
</defs>
</svg>
