<svg width="26" height="25" viewBox="0 0 26 25" fill="none" xmlns="http://www.w3.org/2000/svg">
<g clip-path="url(#clip0)">
<path d="M22.826 2.9873H3.17939C1.42562 2.9873 0 4.35809 0 6.04441V18.9557C0 20.642 1.42562 22.0128 3.17939 22.0128H22.8206C24.5744 22.0128 26 20.642 26 18.9557V6.04959C26.0054 4.36326 24.5798 2.9873 22.826 2.9873ZM24.5529 18.9557C24.5529 19.8712 23.7782 20.6161 22.826 20.6161H3.17939C2.22719 20.6161 1.45251 19.8712 1.45251 18.9557V6.04959C1.45251 5.134 2.22719 4.38913 3.17939 4.38913H22.8206C23.7728 4.38913 24.5475 5.134 24.5475 6.04959V18.9557H24.5529Z" fill="black"/>
<path d="M16.398 12.3392L22.7568 6.85605C23.0526 6.59741 23.0795 6.15773 22.8105 5.86805C22.5416 5.58355 22.0843 5.55768 21.783 5.81632L13.0141 13.3841L11.3034 11.915C11.298 11.9098 11.2927 11.9047 11.2927 11.8995C11.255 11.8633 11.2173 11.8323 11.1743 11.8012L4.21299 5.81115C3.91173 5.55251 3.45446 5.57838 3.18547 5.86805C2.91649 6.15773 2.94339 6.59741 3.24465 6.85605L9.67875 12.3857L3.27155 18.1534C2.98104 18.4172 2.9649 18.8569 3.23927 19.1414C3.38452 19.2862 3.57819 19.3638 3.77186 19.3638C3.94939 19.3638 4.12692 19.3017 4.26679 19.1776L10.7708 13.3272L12.5354 14.8428C12.6752 14.9618 12.8474 15.0187 13.0195 15.0187C13.1917 15.0187 13.3692 14.9566 13.5037 14.8376L15.3167 13.2755L21.783 19.1828C21.9229 19.3121 22.1058 19.3742 22.2833 19.3742C22.477 19.3742 22.6653 19.3017 22.8105 19.1569C23.0849 18.8776 23.0742 18.4327 22.7836 18.1689L16.398 12.3392Z" fill="black"/>
</g>
<defs>
<clipPath id="clip0">
<rect width="26" height="25" fill="white"/>
</clipPath>
</defs>
</svg>
