<svg width="69" height="69" viewBox="0 0 69 69" fill="none" xmlns="http://www.w3.org/2000/svg">
<g filter="url(#filter0_d)">
<rect x="4.65" y="0.65" width="58.9029" height="58.9029" rx="9.35" fill="white" stroke="#0088CC" stroke-width="1.3"/>
<path d="M34.5 13C24.835 13 17 20.835 17 30.5C17 40.165 24.835 48 34.5 48C44.165 48 52 40.165 52 30.5C51.9905 20.839 44.161 13.0095 34.5 13ZM34.5 46.2647V46.2561C25.7934 46.2561 18.7353 39.1979 18.7353 30.4913C18.7353 21.7847 25.7934 14.7266 34.5 14.7266C43.2066 14.7266 50.2647 21.7847 50.2647 30.4913C50.2647 30.4943 50.2647 30.4971 50.2647 30.5C50.2552 39.2027 43.2027 46.2552 34.5 46.2647Z" fill="#0088CC"/>
<path d="M42.7008 25.357C41.924 24.1169 40.8761 23.0691 39.6362 22.2923C39.2131 22.0672 38.6877 22.2278 38.4627 22.6508C38.26 23.0318 38.3681 23.5038 38.7165 23.7586C42.4355 26.0898 43.5605 30.9945 41.2293 34.7134C38.8981 38.4325 33.9935 39.5575 30.2745 37.2263C26.5555 34.8951 25.4304 29.9904 27.7616 26.2714C28.3988 25.2549 29.258 24.3957 30.2745 23.7586C30.6976 23.5335 30.8581 23.0082 30.633 22.5851C30.408 22.162 29.8826 22.0015 29.4596 22.2266C29.4231 22.246 29.3881 22.2679 29.3548 22.2923C24.8231 25.1314 23.451 31.1066 26.2901 35.6383C29.1292 40.17 35.1044 41.5421 39.6362 38.703C44.1679 35.8639 45.5399 29.8887 42.7008 25.357Z" fill="#0088CC"/>
<path d="M34.4995 16.9824C34.0203 16.9824 33.6318 17.3709 33.6318 17.85V28.9904C33.6318 29.4695 34.0203 29.858 34.4995 29.858C34.9786 29.858 35.3671 29.4695 35.3671 28.9904V17.85C35.3671 17.3709 34.9786 16.9824 34.4995 16.9824Z" fill="#0088CC"/>
</g>
<defs>
<filter id="filter0_d" x="0" y="0" width="68.2029" height="68.2029" filterUnits="userSpaceOnUse" color-interpolation-filters="sRGB">
<feFlood flood-opacity="0" result="BackgroundImageFix"/>
<feColorMatrix in="SourceAlpha" type="matrix" values="0 0 0 0 0 0 0 0 0 0 0 0 0 0 0 0 0 0 127 0"/>
<feOffset dy="4"/>
<feGaussianBlur stdDeviation="2"/>
<feColorMatrix type="matrix" values="0 0 0 0 0 0 0 0 0 0 0 0 0 0 0 0 0 0 0.25 0"/>
<feBlend mode="normal" in2="BackgroundImageFix" result="effect1_dropShadow"/>
<feBlend mode="normal" in="SourceGraphic" in2="effect1_dropShadow" result="shape"/>
</filter>
</defs>
</svg>
