<svg width="74" height="75" viewBox="0 0 74 75" fill="none" xmlns="http://www.w3.org/2000/svg">
<g filter="url(#filter0_d)">
<rect x="4" y="4" width="66" height="62.5263" rx="31.2632" fill="white"/>
</g>
<path d="M49.5029 29.9336C49.332 29.9336 49.168 30.0015 49.0472 30.1224C48.9263 30.2432 48.8584 30.4072 48.8584 30.5781V49.3711H42.0274V39.2499C42.0274 39.079 41.9595 38.915 41.8386 38.7941C41.7177 38.6733 41.5538 38.6054 41.3829 38.6054H30.6171C30.4462 38.6054 30.2823 38.6733 30.1614 38.7941C30.0405 38.915 29.9726 39.079 29.9726 39.2499V46.8574C29.9726 47.0284 30.0405 47.1923 30.1614 47.3132C30.2823 47.434 30.4462 47.502 30.6171 47.502C30.7881 47.502 30.952 47.434 31.0729 47.3132C31.1938 47.1923 31.2617 47.0284 31.2617 46.8574V39.8965H40.7383V49.3711H23.1416V29.42L35.0768 23.1294C35.1517 23.0899 35.218 23.0361 35.2721 22.9709C35.3262 22.9058 35.3669 22.8307 35.392 22.7498C35.417 22.6689 35.4259 22.5839 35.4181 22.4996C35.4103 22.4153 35.3859 22.3334 35.3464 22.2585C35.307 22.1836 35.2531 22.1172 35.188 22.0631C35.1229 22.0091 35.0477 21.9683 34.9668 21.9433C34.886 21.9183 34.801 21.9094 34.7167 21.9172C34.6324 21.925 34.5504 21.9494 34.4756 21.9888L22.1965 28.4625C22.0926 28.5172 22.0057 28.5993 21.9451 28.6998C21.8845 28.8003 21.8525 28.9154 21.8525 29.0328V50.0156C21.8525 50.1866 21.9204 50.3505 22.0413 50.4714C22.1622 50.5923 22.3261 50.6602 22.4971 50.6602H49.5029C49.6739 50.6602 49.8378 50.5923 49.9587 50.4714C50.0795 50.3505 50.1475 50.1866 50.1475 50.0156V30.5766C50.147 30.4059 50.079 30.2424 49.9581 30.1218C49.8373 30.0013 49.6736 29.9336 49.5029 29.9336Z" fill="black"/>
<path d="M43.5089 30.5564C45.0409 30.5563 46.5257 30.0264 47.7116 29.0565C48.8975 28.0867 49.7115 26.7366 50.0157 25.2352C50.3199 23.7337 50.0955 22.1733 49.3807 20.8183C48.6658 19.4634 47.5043 18.3974 46.0932 17.8009C46.0147 17.7636 45.9294 17.7426 45.8425 17.7392C45.7556 17.7357 45.669 17.7499 45.5877 17.7808C45.5064 17.8117 45.4322 17.8587 45.3696 17.9191C45.307 17.9794 45.2573 18.0518 45.2234 18.1319C45.1895 18.2119 45.1721 18.298 45.1723 18.385C45.1726 18.4719 45.1904 18.5579 45.2248 18.6378C45.2591 18.7177 45.3093 18.7898 45.3722 18.8498C45.4352 18.9098 45.5096 18.9564 45.591 18.9869C46.7257 19.4664 47.6602 20.3228 48.2365 21.4115C48.8129 22.5002 48.9959 23.7545 48.7546 24.9625C48.5133 26.1705 47.8625 27.2582 46.9121 28.0419C45.9617 28.8256 44.7699 29.2573 43.5381 29.2641C42.3062 29.2708 41.1098 28.8523 40.1508 28.0791C39.1918 27.3058 38.5291 26.2254 38.2745 25.0201C38.0199 23.8148 38.1891 22.5586 38.7535 21.4637C39.3179 20.3687 40.2428 19.502 41.3722 19.0101C41.4498 18.9762 41.52 18.9274 41.5787 18.8664C41.6374 18.8054 41.6836 18.7335 41.7145 18.6547C41.7454 18.5759 41.7605 18.4917 41.759 18.4071C41.7574 18.3225 41.7391 18.2389 41.7053 18.1613C41.6714 18.0837 41.6226 18.0136 41.5616 17.9548C41.5007 17.8961 41.4287 17.85 41.3499 17.819C41.2711 17.7881 41.187 17.773 41.1023 17.7746C41.0177 17.7762 40.9342 17.7944 40.8566 17.8283C39.4579 18.4377 38.3117 19.5103 37.611 20.8655C36.9102 22.2208 36.6975 23.776 37.0088 25.2696C37.32 26.7633 38.1361 28.1041 39.3198 29.0667C40.5036 30.0293 41.9827 30.5548 43.5084 30.5549L43.5089 30.5564Z" fill="black"/>
<path d="M43.5088 20.1939C43.6797 20.1939 43.8437 20.126 43.9645 20.0052C44.0854 19.8843 44.1533 19.7203 44.1533 19.5494V15.9844C44.1533 15.8134 44.0854 15.6495 43.9645 15.5286C43.8437 15.4077 43.6797 15.3398 43.5088 15.3398C43.3378 15.3398 43.1739 15.4077 43.053 15.5286C42.9322 15.6495 42.8643 15.8134 42.8643 15.9844V19.5494C42.8643 19.7203 42.9322 19.8843 43.053 20.0052C43.1739 20.126 43.3378 20.1939 43.5088 20.1939Z" fill="black"/>
<defs>
<filter id="filter0_d" x="0" y="4" width="74" height="70.5263" filterUnits="userSpaceOnUse" color-interpolation-filters="sRGB">
<feFlood flood-opacity="0" result="BackgroundImageFix"/>
<feColorMatrix in="SourceAlpha" type="matrix" values="0 0 0 0 0 0 0 0 0 0 0 0 0 0 0 0 0 0 127 0"/>
<feOffset dy="4"/>
<feGaussianBlur stdDeviation="2"/>
<feColorMatrix type="matrix" values="0 0 0 0 0 0 0 0 0 0 0 0 0 0 0 0 0 0 0.3 0"/>
<feBlend mode="normal" in2="BackgroundImageFix" result="effect1_dropShadow"/>
<feBlend mode="normal" in="SourceGraphic" in2="effect1_dropShadow" result="shape"/>
</filter>
</defs>
</svg>
