<svg width="88" height="88" viewBox="0 0 88 88" fill="none" xmlns="http://www.w3.org/2000/svg">
<path d="M44 88C68.3005 88 88 68.3005 88 44C88 19.6995 68.3005 0 44 0C19.6995 0 0 19.6995 0 44C0 68.3005 19.6995 88 44 88Z" fill="#238DC1"/>
<path d="M59.41 27.59C55.1602 23.3404 49.51 21 43.5 21C37.49 21 31.8398 23.3404 27.59 27.59C23.3404 31.8398 21 37.49 21 43.5C21 49.51 23.3404 55.1602 27.59 59.41C31.8398 63.6596 37.49 66 43.5 66C49.51 66 55.1602 63.6596 59.41 59.41C63.6596 55.1602 66 49.51 66 43.5C66 37.49 63.6596 31.8398 59.41 27.59ZM43.5 63.3633C32.5473 63.3633 23.6367 54.4527 23.6367 43.5C23.6367 32.5473 32.5473 23.6367 43.5 23.6367C54.4527 23.6367 63.3633 32.5473 63.3633 43.5C63.3633 54.4527 54.4527 63.3633 43.5 63.3633Z" fill="white"/>
<path d="M49.3016 30.2128C48.6344 29.9209 47.8571 30.2255 47.5655 30.8926C47.2738 31.5597 47.5781 32.337 48.2452 32.6287C52.5705 34.5199 55.3652 38.7871 55.3652 43.5C55.3652 50.0425 50.0425 55.3653 43.5 55.3653C36.9575 55.3653 31.6348 50.0425 31.6348 43.5C31.6348 38.7871 34.4295 34.5199 38.7547 32.6288C39.4218 32.3371 39.7262 31.5597 39.4344 30.8927C39.1427 30.2255 38.3654 29.921 37.6983 30.2129C32.4131 32.5237 28.998 37.7393 28.998 43.5C28.998 51.4964 35.5036 58.002 43.5 58.002C51.4964 58.002 58.002 51.4964 58.002 43.5C58.002 37.7393 54.5869 32.5237 49.3016 30.2128Z" fill="white"/>
<path d="M43.5 40.4238C44.2281 40.4238 44.8184 39.8336 44.8184 39.1055V28.5586C44.8184 27.8305 44.2281 27.2402 43.5 27.2402C42.7719 27.2402 42.1816 27.8305 42.1816 28.5586V39.1055C42.1816 39.8336 42.7719 40.4238 43.5 40.4238Z" fill="white"/>
</svg>
