<svg width="74" height="71" viewBox="0 0 74 71" fill="none" xmlns="http://www.w3.org/2000/svg">
<g filter="url(#filter0_d)">
<rect x="4" width="66" height="62.5263" rx="31.2632" fill="white"/>
</g>
<path d="M49.3887 30.8853C49.2256 30.8853 49.0692 30.95 48.9538 31.0653C48.8384 31.1806 48.7736 31.3369 48.7734 31.5V47.127H42.2529V37.4658C42.2529 37.3026 42.1881 37.1461 42.0727 37.0308C41.9574 36.9154 41.8009 36.8506 41.6377 36.8506H31.3613C31.1982 36.8506 31.0417 36.9154 30.9263 37.0308C30.8109 37.1461 30.7461 37.3026 30.7461 37.4658V44.7891C30.7461 44.9522 30.8109 45.1087 30.9263 45.2241C31.0417 45.3395 31.1982 45.4043 31.3613 45.4043C31.5245 45.4043 31.681 45.3395 31.7964 45.2241C31.9117 45.1087 31.9766 44.9522 31.9766 44.7891V38.081H41.0225V47.127H24.2256V28.0827L35.035 22.3857C35.1794 22.3096 35.2876 22.1792 35.3359 22.0233C35.3842 21.8674 35.3685 21.6987 35.2924 21.5544C35.2163 21.41 35.086 21.3018 34.9301 21.2535C34.7742 21.2052 34.6055 21.2208 34.4611 21.297L23.3234 27.1687C23.2243 27.221 23.1414 27.2993 23.0835 27.3952C23.0257 27.4912 22.9951 27.6011 22.9951 27.7131V47.7422C22.9951 47.9054 23.0599 48.0618 23.1753 48.1772C23.2907 48.2926 23.4472 48.3574 23.6104 48.3574H49.3887C49.5518 48.3574 49.7083 48.2926 49.8237 48.1772C49.9391 48.0618 50.0039 47.9054 50.0039 47.7422V31.5C50.0038 31.3369 49.9389 31.1806 49.8235 31.0653C49.7082 30.95 49.5518 30.8853 49.3887 30.8853Z" fill="black"/>
<path d="M38.3945 29.8187H47.2869C47.4501 29.8187 47.6065 29.7539 47.7219 29.6385C47.8373 29.5231 47.9021 29.3666 47.9021 29.2035V20.3106C47.9021 20.1474 47.8373 19.991 47.7219 19.8756C47.6065 19.7602 47.4501 19.6954 47.2869 19.6954H45.9826V17.7842C45.9826 16.9509 45.6516 16.1518 45.0623 15.5626C44.4731 14.9734 43.674 14.6423 42.8407 14.6423C42.0074 14.6423 41.2083 14.9734 40.6191 15.5626C40.0298 16.1518 39.6988 16.9509 39.6988 17.7842V19.6954H38.3945C38.2314 19.6954 38.0749 19.7602 37.9595 19.8756C37.8441 19.991 37.7793 20.1474 37.7793 20.3106V29.2035C37.7793 29.3666 37.8441 29.5231 37.9595 29.6385C38.0749 29.7539 38.2314 29.8187 38.3945 29.8187V29.8187ZM40.9293 17.7842C40.9293 17.2773 41.1307 16.7911 41.4891 16.4326C41.8476 16.0742 42.3338 15.8728 42.8407 15.8728C43.3476 15.8728 43.8338 16.0742 44.1923 16.4326C44.5507 16.7911 44.7521 17.2773 44.7521 17.7842V19.6954H40.9293V17.7842ZM39.0098 20.9258H46.6716V28.5882H39.0098V20.9258Z" fill="black"/>
<path d="M42.8408 23.2002C42.6777 23.2002 42.5212 23.2651 42.4058 23.3804C42.2904 23.4958 42.2256 23.6523 42.2256 23.8155V26.0274C42.2256 26.1905 42.2904 26.347 42.4058 26.4624C42.5212 26.5778 42.6777 26.6426 42.8408 26.6426C43.004 26.6426 43.1605 26.5778 43.2759 26.4624C43.3912 26.347 43.4561 26.1905 43.4561 26.0274V23.8155C43.4561 23.6523 43.3912 23.4958 43.2759 23.3804C43.1605 23.2651 43.004 23.2002 42.8408 23.2002V23.2002Z" fill="black"/>
<defs>
<filter id="filter0_d" x="0" y="0" width="74" height="70.5263" filterUnits="userSpaceOnUse" color-interpolation-filters="sRGB">
<feFlood flood-opacity="0" result="BackgroundImageFix"/>
<feColorMatrix in="SourceAlpha" type="matrix" values="0 0 0 0 0 0 0 0 0 0 0 0 0 0 0 0 0 0 127 0"/>
<feOffset dy="4"/>
<feGaussianBlur stdDeviation="2"/>
<feColorMatrix type="matrix" values="0 0 0 0 0 0 0 0 0 0 0 0 0 0 0 0 0 0 0.3 0"/>
<feBlend mode="normal" in2="BackgroundImageFix" result="effect1_dropShadow"/>
<feBlend mode="normal" in="SourceGraphic" in2="effect1_dropShadow" result="shape"/>
</filter>
</defs>
</svg>
