<svg width="69" height="69" viewBox="0 0 69 69" fill="none" xmlns="http://www.w3.org/2000/svg">
<g filter="url(#filter0_d)">
<rect x="4.65" y="0.65" width="58.9029" height="58.9029" rx="9.35" fill="white" stroke="#0088CC" stroke-width="1.3"/>
<path d="M34.4996 12C29.0962 12 24.7002 16.3961 24.7002 21.7995V26.5979C24.7002 26.9246 24.9654 27.1896 25.2921 27.1896H28.5773C28.904 27.1896 29.169 26.9246 29.169 26.5979V21.7995C29.169 18.8602 31.5603 16.4689 34.4996 16.4689C37.4389 16.4689 39.8302 18.8602 39.8302 21.7995V26.5979C39.8302 26.9246 40.0954 27.1896 40.4222 27.1896H43.7074C44.0341 27.1896 44.2991 26.9246 44.2991 26.5979V21.7995C44.2992 16.3961 39.9031 12 34.4996 12ZM43.1157 26.0062H41.0138V21.7995C41.0138 18.2076 38.0916 15.2854 34.4998 15.2854C30.908 15.2854 27.9858 18.2076 27.9858 21.7995V26.0062H25.8838V21.7995C25.8838 17.0486 29.7489 13.1835 34.4997 13.1835C39.2506 13.1835 43.1157 17.0486 43.1157 21.7995V26.0062Z" fill="#0088CC"/>
<path d="M45.0706 26.0061H23.9298C22.5281 26.0061 21.3877 27.1466 21.3877 28.5483V44.4578C21.3877 45.8596 22.5281 47 23.9298 47H45.0706C46.4723 47 47.6127 45.8596 47.6127 44.4578V28.5483C47.6127 27.1466 46.4723 26.0061 45.0706 26.0061ZM46.4292 44.4578C46.4292 45.207 45.8197 45.8165 45.0706 45.8165H23.9298C23.1806 45.8165 22.5711 45.207 22.5711 44.4578V28.5483C22.5711 27.7991 23.1806 27.1896 23.9298 27.1896H45.0706C45.8197 27.1896 46.4292 27.7991 46.4292 28.5483V44.4578Z" fill="#0088CC"/>
<path d="M36.4897 37.278C37.181 36.6955 37.5833 35.844 37.5833 34.9288C37.5833 33.2285 36.2 31.8452 34.4997 31.8452C32.7993 31.8452 31.416 33.2285 31.416 34.9288C31.416 35.844 31.8183 36.6955 32.5098 37.2781L31.8446 40.4474C31.808 40.622 31.8519 40.8036 31.9643 40.9421C32.0768 41.0804 32.2455 41.1608 32.4237 41.1608H36.5757C36.754 41.1608 36.9227 41.0804 37.035 40.9421C37.1473 40.8036 37.1913 40.6219 37.1547 40.4476L36.4897 37.278ZM35.515 36.5287C35.3072 36.6611 35.2029 36.9083 35.2536 37.1495L35.8469 39.9772H33.1525L33.746 37.1497C33.7966 36.9085 33.6926 36.6612 33.4846 36.5289C32.9304 36.1762 32.5995 35.578 32.5995 34.9289C32.5995 33.8812 33.4519 33.0288 34.4997 33.0288C35.5474 33.0288 36.3998 33.8812 36.3998 34.9289C36.4 35.5781 36.0691 36.1762 35.515 36.5287Z" fill="#0088CC"/>
</g>
<defs>
<filter id="filter0_d" x="0" y="0" width="68.2029" height="68.2029" filterUnits="userSpaceOnUse" color-interpolation-filters="sRGB">
<feFlood flood-opacity="0" result="BackgroundImageFix"/>
<feColorMatrix in="SourceAlpha" type="matrix" values="0 0 0 0 0 0 0 0 0 0 0 0 0 0 0 0 0 0 127 0"/>
<feOffset dy="4"/>
<feGaussianBlur stdDeviation="2"/>
<feColorMatrix type="matrix" values="0 0 0 0 0 0 0 0 0 0 0 0 0 0 0 0 0 0 0.25 0"/>
<feBlend mode="normal" in2="BackgroundImageFix" result="effect1_dropShadow"/>
<feBlend mode="normal" in="SourceGraphic" in2="effect1_dropShadow" result="shape"/>
</filter>
</defs>
</svg>
