<svg width="74" height="72" viewBox="0 0 74 72" fill="none" xmlns="http://www.w3.org/2000/svg">
<g filter="url(#filter0_d)">
<rect x="4" y="1" width="66" height="62.5263" rx="31.2632" fill="white"/>
</g>
<path d="M50.3852 27.6L48.2582 26.479C48.1116 26.4017 47.9402 26.3858 47.7818 26.4348C47.6235 26.4839 47.4911 26.5938 47.4137 26.7405C47.3364 26.8872 47.3205 27.0585 47.3696 27.2169C47.4186 27.3753 47.5286 27.5077 47.6752 27.585L49.4687 28.53V47.875H42.8447V38.0605C42.8447 37.8947 42.7789 37.7358 42.6617 37.6186C42.5445 37.5013 42.3855 37.4355 42.2197 37.4355H31.7802C31.6145 37.4355 31.4555 37.5013 31.3383 37.6186C31.2211 37.7358 31.1552 37.8947 31.1552 38.0605V45.625C31.1552 45.7908 31.2211 45.9497 31.3383 46.0669C31.4555 46.1842 31.6145 46.25 31.7802 46.25C31.946 46.25 32.105 46.1842 32.2222 46.0669C32.3394 45.9497 32.4052 45.7908 32.4052 45.625V38.6855H41.5947V47.875H24.5312V28.5285L37.2917 21.8035C37.4286 21.7211 37.5286 21.5895 37.5714 21.4356C37.6142 21.2818 37.5965 21.1173 37.5219 20.9761C37.4473 20.8349 37.3215 20.7276 37.1703 20.6763C37.019 20.6249 36.8539 20.6334 36.7087 20.7L23.6147 27.6C23.5141 27.6531 23.4298 27.7326 23.371 27.8301C23.3123 27.9275 23.2812 28.0392 23.2813 28.153V48.5C23.2813 48.6658 23.3471 48.8247 23.4643 48.9419C23.5815 49.0592 23.7405 49.125 23.9062 49.125H50.0937C50.2595 49.125 50.4185 49.0592 50.5357 48.9419C50.6529 48.8247 50.7187 48.6658 50.7187 48.5V28.15C50.7182 28.0367 50.6869 27.9257 50.6282 27.8288C50.5694 27.7319 50.4855 27.6528 50.3852 27.6Z" fill="black"/>
<path d="M42.5094 33.9755C42.6488 33.9915 42.789 33.9995 42.9294 33.9995C43.709 34.0015 44.4686 33.752 45.0951 33.2881C45.7217 32.8241 46.182 32.1704 46.4075 31.424C46.633 30.6777 46.6117 29.8785 46.3469 29.1452C46.082 28.4119 45.5877 27.7835 44.9374 27.3535V16.875C44.9374 16.3446 44.7266 15.8359 44.3516 15.4608C43.9765 15.0857 43.4678 14.875 42.9374 14.875C42.4069 14.875 41.8982 15.0857 41.5231 15.4608C41.1481 15.8359 40.9374 16.3446 40.9374 16.875V27.354C40.3179 27.7634 39.8391 28.3531 39.5658 29.0435C39.2926 29.734 39.238 30.4916 39.4095 31.2141C39.581 31.9365 39.9703 32.5888 40.5248 33.0827C41.0792 33.5766 41.772 33.8883 42.5094 33.9755ZM41.8499 28.2655C41.9517 28.2129 42.037 28.1333 42.0967 28.0354C42.1563 27.9375 42.1878 27.8251 42.1879 27.7105V16.875C42.1879 16.6761 42.2669 16.4853 42.4075 16.3447C42.5482 16.204 42.7389 16.125 42.9379 16.125C43.1368 16.125 43.3275 16.204 43.4682 16.3447C43.6088 16.4853 43.6879 16.6761 43.6879 16.875V27.7105C43.6879 27.8251 43.7194 27.9375 43.7791 28.0354C43.8387 28.1333 43.9241 28.2129 44.0259 28.2655C44.4994 28.5095 44.8771 28.9055 45.0985 29.39C45.3199 29.8745 45.372 30.4193 45.2465 30.937C45.121 31.4546 44.8251 31.9151 44.4064 32.2444C43.9877 32.5737 43.4705 32.7527 42.9379 32.7527C42.4052 32.7527 41.888 32.5737 41.4693 32.2444C41.0506 31.9151 40.7548 31.4546 40.6293 30.937C40.5037 30.4193 40.5558 29.8745 40.7772 29.39C40.9986 28.9055 41.3763 28.5095 41.8499 28.2655Z" fill="black"/>
<defs>
<filter id="filter0_d" x="0" y="1" width="74" height="70.5263" filterUnits="userSpaceOnUse" color-interpolation-filters="sRGB">
<feFlood flood-opacity="0" result="BackgroundImageFix"/>
<feColorMatrix in="SourceAlpha" type="matrix" values="0 0 0 0 0 0 0 0 0 0 0 0 0 0 0 0 0 0 127 0"/>
<feOffset dy="4"/>
<feGaussianBlur stdDeviation="2"/>
<feColorMatrix type="matrix" values="0 0 0 0 0 0 0 0 0 0 0 0 0 0 0 0 0 0 0.3 0"/>
<feBlend mode="normal" in2="BackgroundImageFix" result="effect1_dropShadow"/>
<feBlend mode="normal" in="SourceGraphic" in2="effect1_dropShadow" result="shape"/>
</filter>
</defs>
</svg>
