<svg width="69" height="69" viewBox="0 0 69 69" fill="none" xmlns="http://www.w3.org/2000/svg">
<g filter="url(#filter0_d)">
<rect x="4.65" y="0.65" width="58.9029" height="58.9029" rx="9.35" fill="white" stroke="#0088CC" stroke-width="1.3"/>
<path d="M36.041 16.6458C36.041 14.6356 34.4054 13 32.3951 13C30.3849 13 28.7493 14.6356 28.7493 16.6458V39.3461C27.8186 40.3003 27.291 41.5763 27.291 42.8958C27.291 45.71 29.5811 48 32.3952 48C35.2093 48 37.4993 45.71 37.4993 42.8958C37.4993 41.5763 36.9717 40.3003 36.041 39.3461V16.6458ZM32.3951 46.5417C30.385 46.5417 28.7493 44.9061 28.7493 42.8959C28.7493 41.8634 29.1816 40.9049 29.967 40.1978C30.1201 40.059 30.2077 39.8624 30.2077 39.6559V16.6458C30.2077 15.4395 31.1889 14.4583 32.3952 14.4583C33.6015 14.4583 34.5827 15.4395 34.5827 16.6458V39.6558C34.5827 39.8624 34.6703 40.0589 34.8234 40.1977C35.6088 40.9048 36.0411 41.8633 36.0411 42.8958C36.041 44.9061 34.4054 46.5417 32.3951 46.5417Z" fill="#0088CC"/>
<path d="M33.1247 40.8426V28.3125C33.1247 27.9095 32.7986 27.5833 32.3955 27.5833C31.9925 27.5833 31.6663 27.9095 31.6663 28.3125V40.8426C30.8194 41.1447 30.208 41.9464 30.208 42.8958C30.208 44.1021 31.1892 45.0833 32.3955 45.0833C33.6018 45.0833 34.583 44.1021 34.583 42.8958C34.583 41.9464 33.9716 41.1447 33.1247 40.8426ZM32.3955 43.625C31.9932 43.625 31.6663 43.2982 31.6663 42.8958C31.6663 42.4935 31.9931 42.1666 32.3955 42.1666C32.7978 42.1666 33.1247 42.4935 33.1247 42.8958C33.1247 43.2982 32.7979 43.625 32.3955 43.625Z" fill="#0088CC"/>
<path d="M26.5622 36.3333H22.1872C21.7842 36.3333 21.458 36.6595 21.458 37.0625C21.458 37.4655 21.7842 37.7917 22.1872 37.7917H26.5622C26.9652 37.7917 27.2914 37.4655 27.2914 37.0625C27.2914 36.6595 26.9652 36.3333 26.5622 36.3333Z" fill="#0088CC"/>
<path d="M26.5625 33.4167H25.1042C24.7011 33.4167 24.375 33.7428 24.375 34.1459C24.375 34.5489 24.7011 34.875 25.1042 34.875H26.5625C26.9655 34.875 27.2917 34.5489 27.2917 34.1458C27.2917 33.7428 26.9655 33.4167 26.5625 33.4167Z" fill="#0088CC"/>
<path d="M26.5625 30.5H25.1042C24.7011 30.5 24.375 30.8261 24.375 31.2292C24.375 31.6322 24.7011 31.9584 25.1042 31.9584H26.5625C26.9655 31.9584 27.2917 31.6322 27.2917 31.2292C27.2917 30.8261 26.9655 30.5 26.5625 30.5Z" fill="#0088CC"/>
<path d="M22.1872 29.0417H26.5622C26.9652 29.0417 27.2914 28.7156 27.2914 28.3125C27.2914 27.9095 26.9652 27.5833 26.5622 27.5833H22.1872C21.7842 27.5833 21.458 27.9095 21.458 28.3125C21.458 28.7156 21.7842 29.0417 22.1872 29.0417Z" fill="#0088CC"/>
<path d="M22.1872 20.2917H26.5622C26.9652 20.2917 27.2914 19.9655 27.2914 19.5625C27.2914 19.1595 26.9652 18.8333 26.5622 18.8333H22.1872C21.7842 18.8333 21.458 19.1595 21.458 19.5625C21.458 19.9655 21.7842 20.2917 22.1872 20.2917Z" fill="#0088CC"/>
<path d="M26.5625 24.6667H25.1042C24.7011 24.6667 24.375 24.9928 24.375 25.3959C24.375 25.7989 24.7011 26.125 25.1042 26.125H26.5625C26.9655 26.125 27.2917 25.7989 27.2917 25.3958C27.2917 24.9928 26.9655 24.6667 26.5625 24.6667Z" fill="#0088CC"/>
<path d="M26.5625 21.75H25.1042C24.7011 21.75 24.375 22.0761 24.375 22.4792C24.375 22.8822 24.7011 23.2084 25.1042 23.2084H26.5625C26.9655 23.2084 27.2917 22.8822 27.2917 22.4792C27.2917 22.0761 26.9655 21.75 26.5625 21.75Z" fill="#0088CC"/>
<path d="M42.6037 24.6667H44.0621C45.2683 24.6667 46.2496 25.6479 46.2496 26.8542C46.2496 27.2572 46.5757 27.5834 46.9787 27.5834C47.3818 27.5834 47.7079 27.2572 47.7079 26.8542C47.7079 24.844 46.0723 23.2084 44.0621 23.2084H42.6038C40.5936 23.2084 38.958 24.844 38.958 26.8542V32.6875C38.958 34.6977 40.5936 36.3333 42.6038 36.3333H44.0621C46.0722 36.3333 47.7079 34.6977 47.7079 32.6875C47.7079 32.2844 47.3817 31.9583 46.9787 31.9583C46.5756 31.9583 46.2496 32.2844 46.2496 32.6875C46.2496 33.8938 45.2683 34.875 44.0621 34.875H42.6037C41.3975 34.875 40.4162 33.8938 40.4162 32.6875V26.8542C40.4162 25.6479 41.3975 24.6667 42.6037 24.6667Z" fill="#0088CC"/>
<path d="M51.3545 23.2083C50.1482 23.2083 49.167 24.1895 49.167 25.3958C49.167 26.6021 50.1482 27.5833 51.3545 27.5833C52.5608 27.5833 53.542 26.6021 53.542 25.3958C53.542 24.1896 52.5608 23.2083 51.3545 23.2083ZM51.3545 26.125C50.9522 26.125 50.6253 25.7982 50.6253 25.3958C50.6253 24.9935 50.9521 24.6666 51.3545 24.6666C51.7569 24.6666 52.0837 24.9934 52.0837 25.3958C52.0836 25.7982 51.7568 26.125 51.3545 26.125Z" fill="#0088CC"/>
</g>
<defs>
<filter id="filter0_d" x="0" y="0" width="68.2029" height="68.2029" filterUnits="userSpaceOnUse" color-interpolation-filters="sRGB">
<feFlood flood-opacity="0" result="BackgroundImageFix"/>
<feColorMatrix in="SourceAlpha" type="matrix" values="0 0 0 0 0 0 0 0 0 0 0 0 0 0 0 0 0 0 127 0"/>
<feOffset dy="4"/>
<feGaussianBlur stdDeviation="2"/>
<feColorMatrix type="matrix" values="0 0 0 0 0 0 0 0 0 0 0 0 0 0 0 0 0 0 0.25 0"/>
<feBlend mode="normal" in2="BackgroundImageFix" result="effect1_dropShadow"/>
<feBlend mode="normal" in="SourceGraphic" in2="effect1_dropShadow" result="shape"/>
</filter>
</defs>
</svg>
