<svg width="69" height="69" viewBox="0 0 69 69" fill="none" xmlns="http://www.w3.org/2000/svg">
<g filter="url(#filter0_d)">
<rect x="4.65" y="0.65" width="58.9029" height="58.9029" rx="9.35" fill="white" stroke="#0088CC" stroke-width="1.3"/>
<path d="M34.5893 10.244C34.2639 9.91867 33.7364 9.91867 33.4109 10.244C32.8226 10.8331 19 24.7724 19 34.9999C19.0096 43.2803 25.7198 49.9904 34.0001 50C42.2804 49.9904 48.9905 43.2803 49.0001 34.9999C49.0002 24.7724 35.1776 10.8331 34.5893 10.244ZM34.0001 48.3333C26.6363 48.3333 20.6667 42.3637 20.6667 34.9999C20.6667 26.6032 31.3476 14.8264 34.0001 12.0323C36.6526 14.8248 47.3335 26.5982 47.3335 34.9999C47.3335 42.3637 41.3639 48.3333 34.0001 48.3333Z" fill="#0088CC"/>
<path d="M25.6666 34.9999H24C24.0059 40.5203 28.4796 44.994 34 44.9999V43.3333C29.3997 43.3282 25.6717 39.6001 25.6666 34.9999Z" fill="#0088CC"/>
</g>
<defs>
<filter id="filter0_d" x="0" y="0" width="68.2029" height="68.2029" filterUnits="userSpaceOnUse" color-interpolation-filters="sRGB">
<feFlood flood-opacity="0" result="BackgroundImageFix"/>
<feColorMatrix in="SourceAlpha" type="matrix" values="0 0 0 0 0 0 0 0 0 0 0 0 0 0 0 0 0 0 127 0"/>
<feOffset dy="4"/>
<feGaussianBlur stdDeviation="2"/>
<feColorMatrix type="matrix" values="0 0 0 0 0 0 0 0 0 0 0 0 0 0 0 0 0 0 0.25 0"/>
<feBlend mode="normal" in2="BackgroundImageFix" result="effect1_dropShadow"/>
<feBlend mode="normal" in="SourceGraphic" in2="effect1_dropShadow" result="shape"/>
</filter>
</defs>
</svg>
