<svg width="74" height="76" viewBox="0 0 74 76" fill="none" xmlns="http://www.w3.org/2000/svg">
<g filter="url(#filter0_d)">
<rect x="4" y="5" width="66" height="62.5263" rx="31.2632" fill="white"/>
</g>
<path d="M49.9121 29.2469C49.736 29.2469 49.5671 29.3169 49.4425 29.4414C49.318 29.5659 49.248 29.7349 49.248 29.911V50.8672H42.2101V40.4393C42.2101 40.2632 42.1401 40.0943 42.0156 39.9697C41.891 39.8452 41.7221 39.7752 41.546 39.7752H30.454C30.2779 39.7752 30.109 39.8452 29.9845 39.9697C29.8599 40.0943 29.79 40.2632 29.79 40.4393V48.3438C29.79 48.5199 29.8599 48.6888 29.9845 48.8133C30.109 48.9378 30.2779 49.0078 30.454 49.0078C30.6301 49.0078 30.799 48.9378 30.9236 48.8133C31.0481 48.6888 31.1181 48.5199 31.1181 48.3438V41.1033H40.8819V50.8672H22.752V30.3115L36.31 23.1662C36.3921 23.1286 36.4657 23.0745 36.5262 23.0075C36.5867 22.9404 36.6329 22.8617 36.6619 22.7762C36.691 22.6906 36.7023 22.6 36.6951 22.51C36.688 22.4199 36.6625 22.3323 36.6203 22.2524C36.5781 22.1725 36.52 22.1021 36.4497 22.0455C36.3793 21.9888 36.2982 21.9471 36.2111 21.9229C36.1241 21.8986 36.033 21.8924 35.9435 21.9046C35.854 21.9168 35.7679 21.9472 35.6905 21.9938L21.7782 29.325C21.6712 29.3814 21.5817 29.4659 21.5192 29.5695C21.4568 29.673 21.4238 29.7917 21.4238 29.9126V51.5312C21.4238 51.7074 21.4938 51.8763 21.6183 52.0008C21.7429 52.1253 21.9118 52.1953 22.0879 52.1953H49.9121C50.0882 52.1953 50.2571 52.1253 50.3817 52.0008C50.5062 51.8763 50.5762 51.7074 50.5762 51.5312V29.9094C50.5758 29.7335 50.5056 29.565 50.3811 29.4408C50.2566 29.3167 50.088 29.2469 49.9121 29.2469Z" fill="black"/>
<path d="M40.4811 33.0315C41.3316 33.0304 42.1674 32.8088 42.9068 32.3883C43.6462 31.9678 44.2639 31.3628 44.6997 30.6324C46.0468 30.4232 47.2744 29.7383 48.16 28.7018C49.0455 27.6653 49.5304 26.3458 49.5267 24.9825C49.5267 22.0203 44.8331 16.6334 44.2976 16.0289C44.2335 15.9614 44.1564 15.9077 44.0709 15.871C43.9854 15.8343 43.8933 15.8154 43.8003 15.8154C43.7073 15.8154 43.6152 15.8343 43.5297 15.871C43.4443 15.9077 43.3671 15.9614 43.3031 16.0289C43.2648 16.0719 42.3601 17.0972 41.305 18.5034C41.2527 18.5732 41.2146 18.6526 41.193 18.737C41.1714 18.8215 41.1666 18.9094 41.1789 18.9958C41.1912 19.0821 41.2204 19.1651 41.2649 19.2402C41.3093 19.3152 41.3681 19.3808 41.4378 19.4331C41.5076 19.4854 41.587 19.5235 41.6715 19.5451C41.756 19.5668 41.8439 19.5716 41.9302 19.5592C42.0165 19.5469 42.0996 19.5177 42.1746 19.4733C42.2497 19.4288 42.3152 19.3701 42.3675 19.3003C42.9227 18.5603 43.4423 17.919 43.8019 17.4898C45.3733 19.364 48.198 23.121 48.198 24.9804C48.2003 25.8844 47.9229 26.767 47.4038 27.5071C46.8846 28.2472 46.1492 28.8085 45.2984 29.1141C45.3685 28.7822 45.4042 28.4439 45.4047 28.1047C45.4047 25.5738 41.4325 21.0141 40.9794 20.5025C40.9153 20.4351 40.8382 20.3814 40.7527 20.3447C40.6672 20.308 40.5752 20.289 40.4821 20.289C40.3891 20.289 40.297 20.308 40.2116 20.3447C40.1261 20.3814 40.049 20.4351 39.9849 20.5025C39.5317 21.0141 35.5596 25.5738 35.5596 28.1047C35.56 29.4103 36.0785 30.6624 37.0012 31.5861C37.9239 32.5098 39.1754 33.0297 40.4811 33.0315ZM40.4811 21.9661C42.0413 23.835 44.0744 26.7325 44.0744 28.1089C44.0744 29.0623 43.6957 29.9765 43.0217 30.6506C42.3476 31.3247 41.4333 31.7034 40.48 31.7034C39.5267 31.7034 38.6124 31.3247 37.9384 30.6506C37.2643 29.9765 36.8856 29.0623 36.8856 28.1089C36.8866 26.7325 38.9213 23.835 40.4811 21.9661Z" fill="black"/>
<defs>
<filter id="filter0_d" x="0" y="5" width="74" height="70.5263" filterUnits="userSpaceOnUse" color-interpolation-filters="sRGB">
<feFlood flood-opacity="0" result="BackgroundImageFix"/>
<feColorMatrix in="SourceAlpha" type="matrix" values="0 0 0 0 0 0 0 0 0 0 0 0 0 0 0 0 0 0 127 0"/>
<feOffset dy="4"/>
<feGaussianBlur stdDeviation="2"/>
<feColorMatrix type="matrix" values="0 0 0 0 0 0 0 0 0 0 0 0 0 0 0 0 0 0 0.3 0"/>
<feBlend mode="normal" in2="BackgroundImageFix" result="effect1_dropShadow"/>
<feBlend mode="normal" in="SourceGraphic" in2="effect1_dropShadow" result="shape"/>
</filter>
</defs>
</svg>
