<svg width="177" height="52" viewBox="0 0 177 52" fill="none" xmlns="http://www.w3.org/2000/svg">
<path d="M170.376 0.649414H7.41469C4.11412 0.649414 1.43848 3.30178 1.43848 6.57365V44.8484C1.43848 48.1203 4.11412 50.7726 7.41469 50.7726H170.376C173.676 50.7726 176.352 48.1203 176.352 44.8484V6.57365C176.352 3.30178 173.676 0.649414 170.376 0.649414Z" fill="black"/>
<path d="M170.376 51.4156H7.41485C5.6559 51.4156 3.96899 50.723 2.72522 49.49C1.48146 48.2571 0.782715 46.5848 0.782715 44.8412L0.782715 6.57446C0.782715 4.8308 1.48146 3.15856 2.72522 1.92561C3.96899 0.692664 5.6559 0 7.41485 0H170.376C172.134 0.00212731 173.818 0.69573 175.06 1.92845C176.302 3.16117 177 4.83219 177 6.57446V44.8412C177 46.5834 176.302 48.2545 175.06 49.4872C173.818 50.7199 172.134 51.4135 170.376 51.4156ZM7.41485 1.30044C6.00383 1.30044 4.65059 1.8561 3.65284 2.84517C2.65509 3.83424 2.09457 5.1757 2.09457 6.57446V44.8412C2.09456 46.2407 2.65483 47.583 3.65235 48.5733C4.64987 49.5637 6.00308 50.1211 7.41485 50.1232H170.376C171.788 50.1211 173.141 49.5637 174.138 48.5733C175.136 47.583 175.696 46.2407 175.696 44.8412V6.57446C175.696 5.1757 175.136 3.83424 174.138 2.84517C173.14 1.8561 171.787 1.30044 170.376 1.30044H7.41485Z" fill="#A7A9AC"/>
<path d="M59.4512 14.6179L58.7143 17.0261H57.0947L59.8237 8.5813H61.8077L64.5933 17.0181H62.9252L62.1559 14.6099L59.4512 14.6179ZM61.8805 13.4539L61.2084 11.3748C61.0465 10.8611 60.9088 10.2831 60.7792 9.76936C60.6578 10.251 60.5282 10.845 60.3744 11.3748L59.7184 13.4539H61.8805Z" fill="white"/>
<path d="M66.9175 10.9092L67.9135 14.0078C68.0917 14.5456 68.2212 15.0353 68.3346 15.533C68.448 15.0353 68.5856 14.5617 68.7476 14.0078L69.7355 10.9092H71.3551L69.0067 17.018H67.5248L65.2412 10.9092H66.9175Z" fill="white"/>
<path d="M77.6069 15.5492C77.599 16.041 77.6343 16.5325 77.7122 17.0182H76.3112L76.1979 16.3359C75.9776 16.6004 75.6983 16.8105 75.3822 16.9498C75.066 17.0891 74.7215 17.1538 74.3758 17.1386C74.1261 17.1529 73.8761 17.1163 73.6412 17.031C73.4063 16.9457 73.1916 16.8136 73.0102 16.6429C72.8288 16.4721 72.6847 16.2663 72.5867 16.0381C72.4887 15.81 72.4389 15.5644 72.4405 15.3164C72.4405 13.7912 73.8252 13.0045 76.1007 13.0125V12.9162C76.1007 12.5148 75.9306 11.8486 74.8455 11.8486C74.2752 11.8544 73.7165 12.0095 73.226 12.2981L72.8535 11.3107C73.536 10.9426 74.3035 10.7573 75.0804 10.7729C77.0481 10.7729 77.615 12.0171 77.615 13.3577L77.6069 15.5492ZM76.0926 14.032C74.9913 14.032 73.9467 14.2488 73.9467 15.1719C73.9341 15.2902 73.9482 15.4098 73.9881 15.5221C74.0279 15.6343 74.0923 15.7364 74.1768 15.8209C74.2613 15.9054 74.3636 15.9702 74.4765 16.0107C74.5893 16.0512 74.7099 16.0663 74.8293 16.0549C75.0981 16.0688 75.3645 15.9988 75.5911 15.8548C75.8177 15.7108 75.9931 15.5001 76.0926 15.2522C76.1085 15.1404 76.1085 15.0269 76.0926 14.915V14.032Z" fill="white"/>
<path d="M80.5783 10.0344C80.4221 10.0204 80.2733 9.96165 80.15 9.86537C80.0268 9.76909 79.9344 9.63939 79.8841 9.49204C79.8339 9.34469 79.8279 9.18604 79.8668 9.03537C79.9058 8.8847 79.9882 8.74851 80.1038 8.64335C80.2194 8.5382 80.3634 8.46861 80.5181 8.44304C80.6729 8.41748 80.8319 8.43705 80.9756 8.49936C81.1194 8.56168 81.2418 8.66406 81.328 8.79405C81.4142 8.92405 81.4604 9.07607 81.461 9.23161C81.4615 9.3434 81.4384 9.45404 81.3932 9.55646C81.348 9.65888 81.2818 9.75082 81.1987 9.82639C81.1156 9.90196 81.0175 9.95949 80.9107 9.9953C80.8038 10.0311 80.6907 10.0444 80.5783 10.0344ZM79.7686 17.0182V10.9093H81.3233V17.0182H79.7686Z" fill="white"/>
<path d="M83.5996 8.10767H85.1544V17.0181H83.5996V8.10767Z" fill="white"/>
<path d="M92.1832 15.5493C92.1758 16.0411 92.2111 16.5326 92.2885 17.0183H90.8876L90.7742 16.336H90.7337C90.5147 16.5999 90.2368 16.8097 89.9221 16.949C89.6073 17.0883 89.2642 17.1532 88.9198 17.1388C88.6701 17.153 88.42 17.1164 88.1852 17.0311C87.9503 16.9459 87.7355 16.8138 87.5541 16.643C87.3728 16.4722 87.2286 16.2664 87.1307 16.0383C87.0327 15.8101 86.9829 15.5645 86.9844 15.3165C86.9844 13.7913 88.361 13.0046 90.6365 13.0127V12.9163C90.6365 12.515 90.4746 11.8487 89.3814 11.8487C88.811 11.8546 88.2523 12.0096 87.7618 12.2982L87.4298 11.3108C88.1127 10.9438 88.88 10.7585 89.6567 10.773C91.6326 10.773 92.1994 12.0173 92.1994 13.3578L92.1832 15.5493ZM90.6689 14.0321C89.5757 14.0321 88.523 14.2489 88.523 15.172C88.5106 15.2896 88.5246 15.4085 88.564 15.5201C88.6033 15.6317 88.667 15.7333 88.7506 15.8176C88.8341 15.902 88.9355 15.967 89.0473 16.0081C89.1591 16.0491 89.2787 16.0651 89.3976 16.0551C89.6677 16.0706 89.9359 16.0015 90.1641 15.8574C90.3924 15.7133 90.569 15.5016 90.6689 15.2523C90.6849 15.1405 90.6849 15.027 90.6689 14.9152V14.0321Z" fill="white"/>
<path d="M94.3779 8.10767H95.9327V11.7521C96.1531 11.4264 96.4564 11.1642 96.8119 10.9922C97.1675 10.8203 97.5626 10.7445 97.9572 10.7728C99.4634 10.7728 100.532 12.017 100.524 13.8714C100.524 16.0628 99.1152 17.1546 97.7304 17.1546C97.339 17.1743 96.9497 17.0865 96.6054 16.901C96.2611 16.7154 95.9751 16.4393 95.7789 16.103L95.706 17.0181H94.3779C94.3779 16.6007 94.4265 15.9264 94.4265 15.3083L94.3779 8.10767ZM95.9327 14.5296C95.9204 14.6497 95.9204 14.7707 95.9327 14.8908C96.0072 15.1972 96.1835 15.4699 96.4331 15.665C96.6828 15.8601 96.9914 15.9663 97.3093 15.9665C98.2811 15.9665 98.8803 15.1638 98.8803 13.9677C98.8803 12.884 98.3621 12.009 97.3255 12.009C97.0004 12.0175 96.6875 12.1335 96.4366 12.3386C96.1857 12.5437 96.0112 12.8261 95.9408 13.1409C95.9102 13.2725 95.8939 13.4071 95.8922 13.5422L95.9327 14.5296Z" fill="white"/>
<path d="M102.33 8.10767H103.885V17.0181H102.33V8.10767Z" fill="white"/>
<path d="M107.228 14.3932C107.234 14.6261 107.29 14.8552 107.391 15.0656C107.492 15.276 107.636 15.463 107.815 15.6144C107.994 15.7658 108.203 15.8783 108.428 15.9444C108.653 16.0106 108.89 16.0291 109.123 15.9986C109.705 16.0064 110.283 15.914 110.832 15.7257L111.059 16.7773C110.376 17.0459 109.647 17.1769 108.913 17.1626C108.492 17.2023 108.067 17.1504 107.668 17.0105C107.269 16.8705 106.906 16.6459 106.603 16.3524C106.301 16.0588 106.067 15.7034 105.918 15.311C105.768 14.9185 105.707 14.4984 105.738 14.0801C105.738 12.3943 106.775 10.7969 108.751 10.7969C110.727 10.7969 111.399 12.4024 111.399 13.767C111.401 13.9847 111.385 14.2022 111.35 14.4172L107.228 14.3932ZM109.933 13.3175C109.959 13.1348 109.947 12.9487 109.895 12.7713C109.844 12.594 109.755 12.4294 109.635 12.2884C109.515 12.1474 109.366 12.0332 109.199 11.9532C109.031 11.8732 108.848 11.8293 108.662 11.8244C108.277 11.8486 107.916 12.0158 107.65 12.2926C107.384 12.5694 107.234 12.9354 107.228 13.3175H109.933Z" fill="white"/>
<path d="M119.076 17.1545C118.659 17.17 118.243 17.0985 117.856 16.9447C117.468 16.7908 117.118 16.5581 116.827 16.2614C116.536 15.9648 116.311 15.6109 116.167 15.2227C116.023 14.8344 115.963 14.4205 115.99 14.0078C115.961 13.5834 116.023 13.1578 116.172 12.7589C116.321 12.36 116.553 11.9969 116.854 11.6935C117.155 11.3902 117.517 11.1534 117.916 10.9988C118.316 10.8442 118.744 10.7754 119.173 10.7968C119.587 10.779 120.001 10.848 120.387 10.9991C120.772 11.1502 121.122 11.3801 121.412 11.6739C121.702 11.9677 121.927 12.3188 122.071 12.7043C122.216 13.0898 122.277 13.5011 122.25 13.9114C122.277 14.3326 122.216 14.7549 122.068 15.1509C121.921 15.5469 121.691 15.9078 121.394 16.2104C121.098 16.513 120.74 16.7505 120.345 16.9076C119.95 17.0647 119.525 17.1379 119.1 17.1224L119.076 17.1545ZM119.124 16.0387C120.007 16.0387 120.63 15.1878 120.63 13.9435C120.63 12.9963 120.201 11.8885 119.132 11.8885C118.063 11.8885 117.594 12.9562 117.594 13.9676C117.594 15.1476 118.185 16.0387 119.108 16.0387H119.124Z" fill="white"/>
<path d="M124.064 12.7315C124.064 12.0251 124.064 11.4391 124.016 10.9093H125.368L125.441 11.8244H125.489C125.697 11.495 125.988 11.2248 126.333 11.0404C126.678 10.8561 127.065 10.7638 127.457 10.7728C128.534 10.7728 129.644 11.4632 129.644 13.3898V17.0181H128.081V13.5664C128.081 12.6914 127.757 12.0251 126.907 12.0251C126.634 12.0336 126.372 12.1254 126.154 12.2878C125.937 12.4502 125.775 12.6753 125.692 12.9322C125.64 13.0901 125.615 13.2557 125.619 13.4219V17.0181H124.064V12.7315Z" fill="white"/>
<path d="M136.827 9.34399V10.9093H138.309V12.0412H136.827V14.7224C136.827 15.4769 137.029 15.8542 137.637 15.8542C137.841 15.8627 138.046 15.841 138.244 15.79V16.954C137.881 17.07 137.5 17.1243 137.118 17.1145C136.873 17.1274 136.628 17.0898 136.398 17.0041C136.168 16.9185 135.958 16.7866 135.782 16.6168C135.401 16.1282 135.225 15.5132 135.288 14.899V12.0412H134.397V10.9093H135.272V9.76945L136.827 9.34399Z" fill="white"/>
<path d="M140.009 8.10767H141.564V11.7361C141.768 11.4417 142.047 11.2063 142.373 11.0537C142.699 10.8701 143.067 10.7734 143.442 10.7728C144.495 10.7728 145.596 11.4631 145.596 13.4218V17.0181H144.033V13.5824C144.033 12.7074 143.701 12.025 142.843 12.025C142.575 12.0272 142.314 12.1118 142.097 12.2671C141.879 12.4223 141.715 12.6407 141.628 12.892C141.581 13.0427 141.56 13.1999 141.564 13.3576V17.0181H140.009V8.10767Z" fill="white"/>
<path d="M148.893 14.3932C148.898 14.6269 148.954 14.8568 149.055 15.0678C149.157 15.2788 149.302 15.4662 149.482 15.6177C149.661 15.7693 149.871 15.8815 150.098 15.9472C150.324 16.0128 150.562 16.0303 150.796 15.9986C151.374 16.0064 151.95 15.9141 152.496 15.7257L152.723 16.7773C152.04 17.0459 151.311 17.1769 150.577 17.1626C150.156 17.2023 149.731 17.1504 149.332 17.0105C148.933 16.8705 148.57 16.6459 148.267 16.3524C147.965 16.0588 147.731 15.7034 147.582 15.311C147.432 14.9185 147.371 14.4984 147.403 14.0801C147.403 12.3943 148.439 10.7969 150.415 10.7969C152.391 10.7969 153.071 12.4024 153.071 13.767C153.071 13.985 153.052 14.2026 153.014 14.4172L148.893 14.3932ZM151.597 13.3175C151.624 13.1348 151.611 12.9487 151.559 12.7713C151.508 12.594 151.419 12.4294 151.299 12.2884C151.179 12.1474 151.03 12.0332 150.863 11.9532C150.695 11.8732 150.512 11.8293 150.326 11.8244C149.941 11.8486 149.58 12.0158 149.314 12.2926C149.048 12.5694 148.898 12.9354 148.893 13.3175H151.597Z" fill="white"/>
<path d="M40.1141 25.206C40.1281 23.94 40.4642 22.6979 41.0912 21.595C41.7183 20.492 42.6161 19.5638 43.7015 18.8964C43.0082 17.9162 42.0938 17.1098 41.0311 16.5413C39.9684 15.9727 38.7865 15.6577 37.5795 15.6212C35.0044 15.3483 32.5102 17.1464 31.1984 17.1464C29.8865 17.1464 27.8378 15.6453 25.6675 15.6935C24.2607 15.7377 22.8894 16.1425 21.6874 16.8684C20.4853 17.5943 19.4935 18.6166 18.8087 19.8356C15.8449 24.925 18.0556 32.3985 20.8979 36.5166C22.3231 38.5315 23.9832 40.7792 26.1534 40.6989C28.3236 40.6186 29.1253 39.3342 31.66 39.3342C34.1946 39.3342 34.9558 40.6748 37.1665 40.6266C39.3772 40.5785 40.8834 38.5957 42.26 36.5648C43.2839 35.1332 44.0686 33.5476 44.5841 31.8687C43.2559 31.3167 42.1225 30.3869 41.3269 29.1968C40.5313 28.0067 40.1093 26.6096 40.1141 25.1819" fill="white"/>
<path d="M35.9192 12.9162C37.1702 11.4389 37.784 9.5327 37.6279 7.61011C35.7284 7.80922 33.9739 8.70894 32.7125 10.1307C32.0952 10.8282 31.6229 11.6397 31.3228 12.5186C31.0226 13.3975 30.9004 14.3264 30.9633 15.2522C31.9131 15.2652 32.8533 15.063 33.7122 14.661C34.5711 14.2589 35.326 13.6676 35.9192 12.9323" fill="white"/>
<path d="M70.8368 40.3619H67.873L66.2534 35.3127H60.5849L59.0868 40.3619H56.1797L61.7753 23.1592H65.225L70.8368 40.3619ZM65.7675 33.1854L64.3018 28.6981C64.1399 28.2405 63.8483 27.1568 63.4192 25.4871H63.3706C63.2005 26.2176 62.9252 27.3013 62.5608 28.6981L61.1194 33.1854H65.7675Z" fill="white"/>
<path d="M85.211 34.0041C85.3118 35.8322 84.6935 37.6278 83.4862 39.0132C82.9976 39.5351 82.4028 39.9481 81.7411 40.2249C81.0793 40.5017 80.3658 40.6359 79.6478 40.6187C78.9522 40.6775 78.2536 40.5471 77.6272 40.2416C77.0008 39.9361 76.4703 39.467 76.0928 38.8848H76.0443V45.4191H73.2586V32.0374C73.2586 30.7129 73.2586 29.3562 73.1533 27.9595H75.5827L75.7446 29.9262H75.7932C76.2144 29.2863 76.7805 28.7528 77.4465 28.3682C78.1124 27.9836 78.8598 27.7585 79.6291 27.7109C80.3983 27.6634 81.1682 27.7946 81.8772 28.0942C82.5862 28.3938 83.2148 28.8534 83.7129 29.4365C84.7464 30.732 85.2727 32.3542 85.1948 34.0041H85.211ZM82.3606 34.1085C82.4102 33.0539 82.1271 32.0101 81.5508 31.1223C81.2822 30.7321 80.9189 30.4151 80.4944 30.2005C80.0699 29.9859 79.5978 29.8805 79.1214 29.8941C78.4396 29.8928 77.7795 30.1318 77.2589 30.5684C76.7033 31.0228 76.3205 31.6514 76.1738 32.3505C76.0985 32.612 76.055 32.8815 76.0443 33.1532V35.2243C76.0131 36.0609 76.3024 36.8782 76.854 37.5121C77.126 37.8163 77.4621 38.0573 77.8385 38.2183C78.215 38.3792 78.6226 38.456 79.0324 38.4433C79.5065 38.4595 79.9772 38.3578 80.4015 38.1475C80.8258 37.9372 81.1903 37.6249 81.4617 37.2392C82.0849 36.3038 82.3912 35.196 82.3363 34.0764" fill="white"/>
<path d="M99.576 34.0041C99.678 35.8338 99.0563 37.6307 97.843 39.0132C97.3567 39.5357 96.7634 39.9493 96.1028 40.2261C95.4423 40.503 94.7297 40.6369 94.0127 40.6187C93.3148 40.675 92.6146 40.541 91.988 40.2311C91.3614 39.9212 90.8322 39.4473 90.4578 38.8607H90.4092V45.395H87.6235V32.0374C87.6235 30.7129 87.6235 29.3562 87.5264 27.9595H89.9557L90.1177 29.9262H90.1663C90.5874 29.2863 91.1535 28.7528 91.8195 28.3682C92.4855 27.9836 93.2329 27.7585 94.0021 27.7109C94.7714 27.6634 95.5412 27.7946 96.2502 28.0942C96.9593 28.3938 97.5879 28.8534 98.086 29.4365C99.1224 30.7309 99.6516 32.3532 99.576 34.0041ZM96.7417 34.1085C96.7913 33.0539 96.5083 32.0101 95.9319 31.1223C95.6968 30.7948 95.396 30.519 95.0484 30.312C94.7009 30.1051 94.3139 29.9714 93.9119 29.9194C93.5098 29.8674 93.1013 29.8982 92.7118 30.0099C92.3223 30.1216 91.9602 30.3117 91.6482 30.5684C91.0895 31.0215 90.7038 31.6503 90.555 32.3505C90.4797 32.612 90.4362 32.8815 90.4254 33.1532V35.2243C90.3942 36.0609 90.6835 36.8782 91.2352 37.5121C91.5067 37.8167 91.8428 38.0581 92.2194 38.219C92.5959 38.38 93.0037 38.4566 93.4135 38.4433C93.8876 38.4595 94.3583 38.3578 94.7827 38.1475C95.207 37.9372 95.5715 37.6249 95.8429 37.2392C96.466 36.3038 96.7724 35.196 96.7174 34.0764" fill="white"/>
<path d="M115.707 35.5373C115.73 36.2096 115.602 36.8785 115.333 37.4961C115.064 38.1137 114.661 38.6647 114.152 39.1096C112.824 40.1857 111.135 40.7247 109.423 40.6187C107.853 40.6931 106.294 40.3228 104.929 39.5511L105.568 37.2472C106.787 37.984 108.19 38.3651 109.617 38.3469C110.484 38.3955 111.341 38.1491 112.047 37.6486C112.331 37.4235 112.558 37.1357 112.71 36.8081C112.861 36.4806 112.934 36.1224 112.921 35.7621C112.93 35.4356 112.871 35.1108 112.747 34.8081C112.623 34.5055 112.437 34.2317 112.201 34.0041C111.495 33.3948 110.667 32.9406 109.771 32.6716C106.753 31.5477 105.245 29.9021 105.245 27.7347C105.23 27.0713 105.368 26.4134 105.649 25.811C105.929 25.2087 106.345 24.6778 106.864 24.2588C108.063 23.307 109.573 22.8243 111.107 22.9022C112.468 22.8488 113.822 23.1243 115.051 23.7049L114.355 25.9446C113.333 25.4049 112.192 25.1288 111.034 25.1418C110.208 25.0896 109.391 25.3443 108.743 25.8563C108.521 26.0514 108.344 26.2914 108.224 26.56C108.104 26.8287 108.043 27.1198 108.046 27.4136C108.042 27.7373 108.113 28.0577 108.253 28.35C108.393 28.6423 108.6 28.8987 108.856 29.0994C109.621 29.6728 110.474 30.1201 111.383 30.4239C112.63 30.8602 113.758 31.5774 114.678 32.519C115.394 33.349 115.773 34.4137 115.739 35.5052" fill="white"/>
<path d="M124.898 30.0226H121.837V36.0511C121.837 37.5844 122.372 38.347 123.457 38.347C123.874 38.3571 124.29 38.3139 124.696 38.2186L124.769 40.3137C124.071 40.5384 123.34 40.6416 122.607 40.6187C122.13 40.6465 121.654 40.5719 121.209 40.4001C120.765 40.2283 120.363 39.9633 120.032 39.6234C119.32 38.6574 118.989 37.467 119.1 36.2759V30.0226H117.278V27.9515H119.1V25.6878L121.837 24.885V27.9675H124.898V30.0226Z" fill="white"/>
<path d="M138.73 34.0603C138.802 35.7715 138.224 37.4473 137.11 38.7564C136.531 39.3822 135.82 39.8752 135.029 40.201C134.237 40.5268 133.383 40.6776 132.527 40.6428C131.705 40.6803 130.884 40.5371 130.124 40.2234C129.364 39.9098 128.683 39.4335 128.13 38.8286C127.026 37.5641 126.448 35.9319 126.51 34.261C126.44 32.5303 127.047 30.8396 128.203 29.5409C128.779 28.9243 129.484 28.4402 130.269 28.1227C131.054 27.8051 131.899 27.6617 132.746 27.7026C133.573 27.666 134.398 27.8094 135.163 28.1228C135.929 28.4363 136.615 28.9121 137.175 29.5168C138.281 30.7707 138.86 32.3964 138.795 34.0603H138.73ZM135.912 34.1487C135.941 33.1175 135.683 32.0982 135.167 31.2026C134.93 30.7345 134.561 30.3441 134.106 30.0779C133.651 29.8117 133.128 29.6811 132.6 29.7015C132.077 29.6875 131.561 29.8193 131.11 30.0818C130.659 30.3444 130.291 30.7271 130.049 31.1865C129.529 32.0984 129.272 33.134 129.304 34.1808C129.275 35.212 129.533 36.2312 130.049 37.1268C130.291 37.5813 130.655 37.9606 131.101 38.2227C131.547 38.4848 132.057 38.6195 132.576 38.6119C133.092 38.6149 133.599 38.4753 134.039 38.2087C134.48 37.9422 134.837 37.5592 135.07 37.1027C135.616 36.2077 135.896 35.1784 135.88 34.1326" fill="white"/>
<path d="M147.767 30.3838C147.479 30.3274 147.186 30.3005 146.892 30.3035C146.452 30.2853 146.014 30.3763 145.618 30.5684C145.222 30.7604 144.881 31.0474 144.625 31.4033C144.142 32.1277 143.901 32.9842 143.937 33.8517V40.3619H141.151V31.8609C141.151 30.432 141.118 29.1315 141.054 27.9595H143.483L143.58 30.3678H143.661C143.923 29.5964 144.404 28.9163 145.046 28.4091C145.627 27.9761 146.335 27.7422 147.062 27.7428C147.293 27.7411 147.523 27.7572 147.751 27.791L147.767 30.3838Z" fill="white"/>
<path d="M160.205 33.5706C160.211 33.9901 160.179 34.4093 160.108 34.8228H151.767C151.749 35.3501 151.847 35.8748 152.056 36.3602C152.264 36.8456 152.578 37.2799 152.973 37.6324C153.745 38.2465 154.713 38.5656 155.702 38.5315C156.855 38.5473 158 38.3485 159.079 37.9455L159.516 39.8641C158.186 40.4141 156.755 40.6873 155.314 40.6668C154.475 40.7121 153.636 40.5842 152.85 40.2912C152.064 39.9983 151.347 39.5467 150.747 38.965C150.178 38.3542 149.738 37.637 149.453 36.8553C149.168 36.0737 149.043 35.2435 149.086 34.4134C149.016 32.7097 149.564 31.0375 150.633 29.7014C151.154 29.0537 151.821 28.5368 152.581 28.1923C153.34 27.8478 154.171 27.6855 155.006 27.7186C155.803 27.6731 156.599 27.8315 157.316 28.1788C158.034 28.526 158.649 29.0503 159.103 29.7014C159.868 30.8608 160.253 32.2262 160.205 33.6107V33.5706ZM157.557 32.8963C157.593 32.1521 157.404 31.4141 157.014 30.777C156.785 30.4054 156.458 30.1023 156.069 29.9002C155.68 29.698 155.242 29.6043 154.804 29.6291C154.369 29.6216 153.939 29.7202 153.552 29.9162C153.166 30.1121 152.833 30.3995 152.585 30.7529C152.114 31.3761 151.833 32.1198 151.775 32.8963H157.557Z" fill="white"/>
</svg>
