<svg width="32" height="31" viewBox="0 0 32 31" fill="none" xmlns="http://www.w3.org/2000/svg">
<path d="M28 4.3125H8.5625L8.375 3.5625C8.16667 2.60417 7.69792 1.82292 6.96875 1.21875C6.23958 0.614583 5.375 0.3125 4.375 0.3125H1.3125C0.9375 0.3125 0.625 0.4375 0.375 0.6875C0.125 0.9375 0 1.27083 0 1.6875C0 2.0625 0.125 2.375 0.375 2.625C0.625 2.875 0.9375 3 1.3125 3H4.375C5.16667 3 5.625 3.35417 5.75 4.0625L8.8125 20.0625C9.0625 20.9375 9.55208 21.6458 10.2812 22.1875C11.0104 22.7292 11.8125 23 12.6875 23H25.3125C25.7292 23 26.0625 22.875 26.3125 22.625C26.5625 22.375 26.6875 22.0625 26.6875 21.6875C26.6875 20.7708 26.2292 20.3125 25.3125 20.3125H12.6875C12.1042 20.3125 11.6875 20.0625 11.4375 19.5625L11.3125 19H24.6875C25.5208 19 26.2812 18.75 26.9688 18.25C27.6562 17.75 28.125 17.1042 28.375 16.3125L32 8.625V8.3125C32 7.1875 31.6146 6.23958 30.8438 5.46875C30.0729 4.69792 29.125 4.3125 28 4.3125ZM26 15.25V15.375C25.875 16 25.4375 16.3125 24.6875 16.3125H10.8125L9.0625 7H28C28.75 7 29.1875 7.35417 29.3125 8.0625L26 15.25ZM16 27C16 27.75 15.7396 28.3854 15.2188 28.9062C14.6979 29.4271 14.0625 29.6875 13.3125 29.6875C12.6042 29.6875 11.9896 29.4271 11.4688 28.9062C10.9479 28.3854 10.6875 27.75 10.6875 27C10.6875 26.25 10.9479 25.6146 11.4688 25.0938C11.9896 24.5729 12.6042 24.3125 13.3125 24.3125C14.0625 24.3125 14.6979 24.5729 15.2188 25.0938C15.7396 25.6146 16 26.25 16 27ZM26.6875 27C26.6875 27.75 26.4271 28.3854 25.9062 28.9062C25.3854 29.4271 24.75 29.6875 24 29.6875C23.25 29.6875 22.6146 29.4271 22.0938 28.9062C21.5729 28.3854 21.3125 27.75 21.3125 27C21.3125 26.25 21.5729 25.6146 22.0938 25.0938C22.6146 24.5729 23.25 24.3125 24 24.3125C24.75 24.3125 25.3854 24.5729 25.9062 25.0938C26.4271 25.6146 26.6875 26.25 26.6875 27Z" fill="black"/>
</svg>
