<svg id="cart-step1" data-name="Слой 1" xmlns="http://www.w3.org/2000/svg" viewBox="0 0 22.25 22.25"><title>cart</title><path d="M309.25,411.36c-.13.48-.27,1-.39,1.45q-.89,3.49-1.78,7a1.86,1.86,0,0,1-1.79,1.38H292.57V424H305a1.39,1.39,0,1,1,0,2.78H291.21a1.42,1.42,0,0,1-1.43-1.43q0-6.08,0-12.16c0-.09,0-.19,0-.31h-1.07a3.25,3.25,0,0,1-.56,0,1.39,1.39,0,0,1-.14-2.71l.12,0h20.29a1.2,1.2,0,0,1,.83.78Zm-16.68,7h11.79c.14,0,.18-.06.2-.19.29-1.51.6-3,.9-4.53.06-.28.1-.56.16-.84h-13Z" transform="translate(-287 -410.05)"/><path d="M293.26,428.13a2.09,2.09,0,1,1-2.09,2.1A2.08,2.08,0,0,1,293.26,428.13Z" transform="translate(-287 -410.05)"/><path d="M300.91,430.22A2.09,2.09,0,1,1,303,432.3,2.08,2.08,0,0,1,300.91,430.22Z" transform="translate(-287 -410.05)"/></svg>