<svg width="84" height="80" viewBox="0 0 84 80" fill="none" xmlns="http://www.w3.org/2000/svg">
<g filter="url(#filter0_d)">
<rect x="4" width="76" height="72" rx="12" fill="white"/>
</g>
<path d="M15.98 52.7433V20.44C15.98 15.27 20.2333 11.0533 25.4033 11.0533H51.7666V62.1667H25.4033C20.2333 62.13 15.98 57.9133 15.98 52.7433Z" stroke="#238DC1" stroke-miterlimit="10"/>
<path d="M67.0933 52.7433C67.0933 57.95 62.8766 62.13 57.7066 62.13H51.7666V11.0533H57.7066C62.9133 11.0533 67.0933 15.27 67.0933 20.44V52.7433Z" stroke="#238DC1" stroke-miterlimit="10"/>
<path d="M44.2865 23.2267C45.7648 23.2267 46.9632 22.0283 46.9632 20.55C46.9632 19.0717 45.7648 17.8733 44.2865 17.8733C42.8082 17.8733 41.6099 19.0717 41.6099 20.55C41.6099 22.0283 42.8082 23.2267 44.2865 23.2267Z" fill="#238DC1" stroke="#238DC1" stroke-miterlimit="10"/>
<defs>
<filter id="filter0_d" x="0" y="0" width="84" height="80" filterUnits="userSpaceOnUse" color-interpolation-filters="sRGB">
<feFlood flood-opacity="0" result="BackgroundImageFix"/>
<feColorMatrix in="SourceAlpha" type="matrix" values="0 0 0 0 0 0 0 0 0 0 0 0 0 0 0 0 0 0 127 0"/>
<feOffset dy="4"/>
<feGaussianBlur stdDeviation="2"/>
<feColorMatrix type="matrix" values="0 0 0 0 0 0 0 0 0 0 0 0 0 0 0 0 0 0 0.3 0"/>
<feBlend mode="normal" in2="BackgroundImageFix" result="effect1_dropShadow"/>
<feBlend mode="normal" in="SourceGraphic" in2="effect1_dropShadow" result="shape"/>
</filter>
</defs>
</svg>
