<svg width="88" height="88" viewBox="0 0 88 88" fill="none" xmlns="http://www.w3.org/2000/svg">
<path d="M44 88C68.3005 88 88 68.3005 88 44C88 19.6995 68.3005 0 44 0C19.6995 0 0 19.6995 0 44C0 68.3005 19.6995 88 44 88Z" fill="#238DC1"/>
<g clip-path="url(#clip0)">
<path d="M60.4371 48.1928L60.4058 47.7623C59.9017 41.2008 56.8466 37.0876 54.1514 33.4595C51.6557 30.1 49.5002 27.1989 49.5002 22.9182C49.5002 22.5745 49.3077 22.2603 49.0024 22.1027C48.6963 21.9442 48.3284 21.9702 48.05 22.1726C44.0022 25.0692 40.6248 29.9514 39.445 34.6098C38.6259 37.8529 38.5176 41.4989 38.5024 43.9068C34.7642 43.1083 33.9174 37.5163 33.9085 37.4555C33.8664 37.1654 33.6892 36.913 33.4314 36.7751C33.1709 36.6391 32.8647 36.6292 32.6007 36.7599C32.4046 36.8548 27.7892 39.2001 27.5207 48.5651C27.5018 48.8767 27.501 49.1882 27.501 49.5005C27.501 58.598 34.9029 65.9999 44.0004 65.9999C53.0978 65.9999 60.4998 58.598 60.4998 49.5005C60.4998 49.0441 60.4685 48.618 60.4371 48.1928ZM44.0004 64.1667C40.9676 64.1667 38.5006 61.5386 38.5006 58.3079C38.5006 58.1979 38.4997 58.0868 38.5077 57.9508C38.5444 56.5884 38.8031 55.6583 39.0869 55.0398C39.6187 56.182 40.5701 57.232 42.1134 57.232C42.6201 57.232 43.0301 56.822 43.0301 56.3153C43.0301 55.0101 43.057 53.5046 43.3819 52.1457C43.6711 50.9399 44.3621 49.6589 45.2376 48.6313C45.6269 49.9651 46.3861 51.0446 47.1273 52.0982C48.188 53.6057 49.2846 55.1641 49.477 57.8218C49.4886 57.9793 49.5003 58.1378 49.5003 58.3079C49.5002 61.5386 47.0332 64.1667 44.0004 64.1667ZM49.7934 62.969C50.7448 61.6715 51.3335 60.0676 51.3335 58.3079C51.3335 58.0923 51.3201 57.8917 51.2932 57.5167C51.0757 54.5242 49.775 52.6748 48.6266 51.043C47.6482 49.6537 46.8041 48.4533 46.8041 46.7507C46.8041 46.4025 46.6071 46.0847 46.2956 45.9299C45.9859 45.7741 45.6117 45.8091 45.3351 46.0194C43.5771 47.3478 42.1108 49.5839 41.5988 51.7188C41.3373 52.8137 41.2461 53.9979 41.2139 54.9718C40.5783 54.2879 40.3813 53.0204 40.3796 53.0034C40.3384 52.7089 40.1576 52.452 39.8936 52.3151C39.6313 52.179 39.3171 52.1754 39.053 52.3114C38.8221 52.4296 36.7928 53.5933 36.6764 57.8739C36.6684 58.0189 36.6675 58.1639 36.6675 58.308C36.6675 60.0677 37.2562 61.6716 38.2076 62.9691C32.9945 60.7181 29.3345 55.5304 29.3345 49.5007C29.3345 49.2259 29.3336 48.952 29.3523 48.6467C29.5099 43.1522 31.268 40.4274 32.4156 39.2253C33.2158 42.0897 35.3122 45.8342 39.4174 45.8342C39.9241 45.8342 40.3341 45.4242 40.3341 44.9175C40.3341 41.8498 40.403 38.305 41.223 35.0592C42.1539 31.3819 44.7042 27.411 47.7826 24.7229C48.2937 28.6491 50.4322 31.5279 52.68 34.5525C55.352 38.1492 58.1145 41.8685 58.5772 47.8912L58.6086 48.3298C58.6372 48.7111 58.6668 49.0916 58.6668 49.5006C58.6665 55.5303 55.0065 60.718 49.7934 62.969Z" fill="white"/>
</g>
<defs>
<clipPath id="clip0">
<rect x="22" y="22" width="44" height="44" fill="white"/>
</clipPath>
</defs>
</svg>
