<svg width="177" height="52" viewBox="0 0 177 52" fill="none" xmlns="http://www.w3.org/2000/svg">
<path d="M169.593 0.649414H6.63197C3.3314 0.649414 0.655762 3.30178 0.655762 6.57365V44.8484C0.655762 48.1203 3.3314 50.7726 6.63197 50.7726H169.593C172.894 50.7726 175.569 48.1203 175.569 44.8484V6.57365C175.569 3.30178 172.894 0.649414 169.593 0.649414Z" fill="black"/>
<path d="M169.593 51.4156H6.63214C4.87319 51.4156 3.18628 50.723 1.94251 49.49C0.698741 48.2571 0 46.5848 0 44.8412L0 6.57446C0 4.8308 0.698741 3.15856 1.94251 1.92561C3.18628 0.692664 4.87319 0 6.63214 0H169.593C171.351 0.00212731 173.036 0.69573 174.278 1.92845C175.52 3.16117 176.217 4.83219 176.217 6.57446V44.8412C176.217 46.5834 175.52 48.2545 174.278 49.4872C173.036 50.7199 171.351 51.4135 169.593 51.4156ZM6.63214 1.30044C5.22111 1.30044 3.86787 1.8561 2.87013 2.84517C1.87238 3.83424 1.31185 5.1757 1.31185 6.57446V44.8412C1.31185 46.2407 1.87212 47.583 2.86964 48.5733C3.86715 49.5637 5.22037 50.1211 6.63214 50.1232H169.593C171.005 50.1211 172.358 49.5637 173.356 48.5733C174.353 47.583 174.914 46.2407 174.914 44.8412V6.57446C174.914 5.1757 174.353 3.83424 173.355 2.84517C172.358 1.8561 171.004 1.30044 169.593 1.30044H6.63214Z" fill="#A7A9AC"/>
<path d="M88.8982 28.096C87.8034 28.0992 86.7341 28.4239 85.8254 29.0291C84.9166 29.6344 84.2092 30.4931 83.7925 31.4966C83.3757 32.5002 83.2683 33.6037 83.4839 34.6678C83.6994 35.7318 84.2282 36.7087 85.0035 37.4749C85.7788 38.2412 86.7657 38.7626 87.8397 38.9732C88.9138 39.1837 90.0266 39.074 91.0378 38.658C92.0489 38.2419 92.913 37.5382 93.521 36.6356C94.1289 35.733 94.4533 34.672 94.4533 33.5868C94.4643 32.8613 94.328 32.1411 94.0525 31.469C93.777 30.7968 93.368 30.1865 92.8497 29.6742C92.3314 29.162 91.7145 28.7583 91.0357 28.4872C90.3569 28.216 89.63 28.083 88.8982 28.096ZM88.8982 36.9262C88.2234 36.9745 87.5495 36.8203 86.9643 36.4837C86.3791 36.147 85.9098 35.6434 85.6174 35.0386C85.325 34.4337 85.2231 33.7556 85.325 33.0926C85.4269 32.4295 85.7278 31.8122 86.1886 31.3211C86.6494 30.83 87.2487 30.4878 87.9085 30.3391C88.5682 30.1904 89.2579 30.2421 89.8876 30.4875C90.5173 30.7329 91.0579 31.1605 91.4389 31.7147C91.82 32.2689 92.0238 32.9241 92.024 33.5948C92.0402 34.0172 91.9722 34.4386 91.8237 34.8349C91.6753 35.2311 91.4494 35.5944 91.159 35.9039C90.8686 36.2135 90.5194 36.4631 90.1314 36.6385C89.7434 36.8139 89.3244 36.9117 88.8982 36.9262ZM76.7514 28.096C75.6566 28.0992 74.5873 28.4239 73.6786 29.0291C72.7698 29.6344 72.0624 30.4931 71.6457 31.4966C71.2289 32.5002 71.1216 33.6037 71.3371 34.6678C71.5527 35.7318 72.0815 36.7087 72.8567 37.4749C73.632 38.2412 74.619 38.7626 75.693 38.9732C76.767 39.1837 77.8798 39.074 78.891 38.658C79.9022 38.2419 80.7663 37.5382 81.3742 36.6356C81.9821 35.733 82.3065 34.672 82.3066 33.5868C82.3175 32.8627 82.1817 32.1439 81.9072 31.4728C81.6327 30.8017 81.2251 30.1921 80.7086 29.6801C80.192 29.168 79.5771 28.764 78.9001 28.4919C78.2232 28.2198 77.498 28.0852 76.7676 28.096H76.7514ZM76.7514 36.9262C76.0766 36.9745 75.4027 36.8203 74.8175 36.4837C74.2323 36.147 73.763 35.6434 73.4706 35.0386C73.1782 34.4337 73.0763 33.7556 73.1782 33.0926C73.2801 32.4295 73.581 31.8122 74.0418 31.3211C74.5026 30.83 75.1019 30.4878 75.7617 30.3391C76.4215 30.1904 77.1111 30.2421 77.7408 30.4875C78.3705 30.7329 78.9111 31.1605 79.2921 31.7147C79.6732 32.2689 79.8771 32.9241 79.8772 33.5948C79.9101 34.4452 79.601 35.2738 79.0179 35.8984C78.4349 36.5231 77.6255 36.8927 76.7676 36.9262H76.7514ZM62.3534 29.8058V32.1097H67.9734C67.8915 33.2013 67.4408 34.2336 66.6939 35.0397C66.1332 35.6138 65.4571 36.0648 64.7094 36.3635C63.9617 36.6622 63.1591 36.8019 62.3534 36.7736C60.6954 36.7736 59.1053 36.1207 57.9329 34.9585C56.7606 33.7963 56.1019 32.2201 56.1019 30.5765C56.1019 28.9329 56.7606 27.3566 57.9329 26.1944C59.1053 25.0322 60.6954 24.3793 62.3534 24.3793C63.9311 24.3573 65.4535 24.9546 66.5886 26.041L68.2487 24.4355C67.4769 23.6669 66.5576 23.0592 65.5451 22.6484C64.5326 22.2375 63.4474 22.0318 62.3534 22.0433C61.2014 22.0083 60.0539 22.203 58.9791 22.6158C57.9044 23.0287 56.9242 23.6513 56.0967 24.4468C55.2693 25.2423 54.6114 26.1943 54.1622 27.2466C53.7129 28.2989 53.4814 29.4298 53.4814 30.5725C53.4814 31.7151 53.7129 32.8461 54.1622 33.8983C54.6114 34.9506 55.2693 35.9027 56.0967 36.6981C56.9242 37.4936 57.9044 38.1162 58.9791 38.5291C60.0539 38.9419 61.2014 39.1366 62.3534 39.1016C63.4686 39.1443 64.5803 38.9518 65.6147 38.5366C66.6492 38.1214 67.5829 37.4931 68.354 36.6934C69.7245 35.2099 70.4542 33.2532 70.3865 31.2427C70.3915 30.7557 70.3508 30.2693 70.265 29.7898L62.3534 29.8058ZM121.362 31.612C121.032 30.6117 120.398 29.737 119.548 29.1076C118.697 28.4782 117.67 28.1249 116.609 28.096C115.897 28.1005 115.194 28.2479 114.542 28.5294C113.889 28.811 113.301 29.2207 112.813 29.734C112.325 30.2472 111.946 30.8532 111.701 31.5154C111.456 32.1777 111.349 32.8823 111.386 33.5868C111.371 34.3086 111.502 35.0261 111.773 35.6964C112.043 36.3668 112.447 36.9764 112.96 37.4887C113.473 38.0011 114.085 38.4059 114.759 38.6788C115.433 38.9518 116.156 39.0874 116.884 39.0775C117.795 39.0856 118.693 38.8698 119.498 38.4495C120.304 38.0293 120.992 37.4176 121.5 36.6693L119.613 35.417C119.33 35.8835 118.93 36.2693 118.452 36.5366C117.974 36.8039 117.433 36.9437 116.884 36.9422C116.316 36.9669 115.754 36.8207 115.271 36.5227C114.788 36.2247 114.408 35.7889 114.18 35.2725L121.589 32.2381L121.362 31.612ZM113.807 33.4423C113.78 33.0416 113.834 32.6396 113.965 32.2599C114.097 31.8802 114.304 31.5304 114.574 31.2312C114.844 30.932 115.172 30.6894 115.538 30.5177C115.904 30.3459 116.302 30.2486 116.706 30.2313C117.126 30.2049 117.545 30.301 117.911 30.5079C118.276 30.7148 118.572 31.0233 118.763 31.3953L113.807 33.4423ZM107.79 38.7725H110.22V22.6293H107.79V38.7725ZM103.798 29.3483H103.717C103.348 28.9493 102.897 28.6333 102.394 28.4214C101.891 28.2096 101.348 28.1069 100.802 28.1201C99.3848 28.1961 98.0509 28.8077 97.0748 29.8291C96.0987 30.8505 95.5546 32.2039 95.5546 33.6108C95.5546 35.0178 96.0987 36.3712 97.0748 37.3926C98.0509 38.414 99.3848 39.0256 100.802 39.1016C101.35 39.116 101.894 39.0122 102.398 38.7973C102.901 38.5825 103.351 38.2617 103.717 37.8573H103.798V38.6601C103.798 40.7633 102.665 41.8711 100.843 41.8711C100.233 41.8564 99.6423 41.6623 99.1447 41.3135C98.6472 40.9647 98.2657 40.4769 98.0488 39.9124L95.9352 40.7874C96.339 41.7452 97.0213 42.5622 97.8953 43.1341C98.7693 43.7059 99.7953 44.0068 100.843 43.9983C103.693 43.9983 106.106 42.3366 106.106 38.2828V28.4492H103.798V29.3483ZM100.996 36.9262C100.573 36.9149 100.156 36.8199 99.7707 36.6466C99.385 36.4732 99.0382 36.2252 98.7507 35.917C98.4632 35.6088 98.2408 35.2467 98.0966 34.852C97.9524 34.4574 97.8894 34.0381 97.9111 33.6189C97.8715 32.7684 98.1743 31.9371 98.7529 31.3079C99.3315 30.6786 100.138 30.3029 100.996 30.2634C102.616 30.2634 103.952 31.6843 103.952 33.6189C103.984 34.0299 103.932 34.443 103.8 34.8338C103.667 35.2245 103.457 35.5849 103.181 35.8934C102.906 36.202 102.57 36.4524 102.195 36.6298C101.819 36.8072 101.412 36.908 100.996 36.9262ZM132.748 22.6133H126.926V38.7725H129.355V32.6556H132.748C133.429 32.6826 134.109 32.5729 134.746 32.3332C135.383 32.0934 135.965 31.7285 136.457 31.2603C136.949 30.7922 137.34 30.2304 137.607 29.6087C137.874 28.987 138.012 28.3182 138.012 27.6424C138.012 26.9667 137.874 26.2979 137.607 25.6762C137.34 25.0545 136.949 24.4927 136.457 24.0246C135.965 23.5564 135.383 23.1915 134.746 22.9517C134.109 22.712 133.429 22.6023 132.748 22.6293V22.6133ZM132.813 30.3918H129.355V24.885H132.805C133.184 24.8648 133.563 24.9213 133.919 25.0511C134.275 25.181 134.601 25.3814 134.877 25.6402C135.152 25.899 135.372 26.2107 135.522 26.5563C135.672 26.9019 135.749 27.2742 135.749 27.6505C135.749 28.0267 135.672 28.399 135.522 28.7446C135.372 29.0903 135.152 29.402 134.877 29.6608C134.601 29.9196 134.275 30.12 133.919 30.2498C133.563 30.3797 133.184 30.4362 132.805 30.4159L132.813 30.3918ZM147.826 28.096C146.94 28.0451 146.057 28.2519 145.288 28.6911C144.518 29.1303 143.895 29.7828 143.494 30.5684L145.648 31.4595C145.863 31.0696 146.189 30.7504 146.584 30.5408C146.98 30.3312 147.428 30.2404 147.875 30.2795C149.13 30.2795 150.409 31.026 150.426 32.3586V32.5191C149.645 32.1092 148.774 31.8969 147.891 31.901C145.567 31.901 143.202 33.1613 143.202 35.5294C143.202 37.6888 145.105 39.0855 147.251 39.0855C147.866 39.1181 148.478 38.9862 149.024 38.7038C149.569 38.4214 150.028 37.9987 150.353 37.4801H150.434V38.7243H152.782V32.5512C152.774 29.7015 150.62 28.096 147.826 28.096ZM147.535 36.9262C146.725 36.9262 145.632 36.5328 145.632 35.5535C145.632 34.3092 147.016 33.8356 148.207 33.8356C148.982 33.8133 149.748 33.9991 150.426 34.3734C150.337 35.0739 149.996 35.7187 149.464 36.1882C148.932 36.6577 148.247 36.9199 147.535 36.9262ZM161.301 28.4331L158.515 35.4331H158.434L155.544 28.4331H152.928L157.26 38.2186L154.79 43.6531H157.325L164.006 28.401L161.301 28.4331ZM139.437 38.7644H141.866V22.6293H139.437V38.7644Z" fill="white"/>
<path d="M13.7666 9.77751C13.3414 10.2847 13.1271 10.9334 13.1674 11.5917V40.1372C13.128 40.7905 13.3424 41.4339 13.7666 41.9354L13.8638 42.0317L29.9623 26.0491V25.6879L13.8395 9.68921L13.7666 9.77751Z" fill="#5BC9F4"/>
<path d="M35.3394 31.3791L29.9624 26.0489V25.6876L35.3394 20.3574L35.4608 20.4216L41.8257 24.0099C43.6478 25.0374 43.6478 26.7151 41.8257 27.7346L35.4608 31.3068L35.3394 31.3791Z" fill="url(#paint0_linear)"/>
<path d="M35.4607 31.3068L29.9623 25.8562L13.7666 41.911C14.3658 42.5372 15.3862 42.6175 16.4713 41.9913L35.4607 31.3068Z" fill="url(#paint1_linear)"/>
<path d="M35.4601 20.4056L16.4464 9.69702C15.3289 9.07088 14.3409 9.15115 13.7417 9.77729L29.9374 25.8321L35.4601 20.4056Z" fill="url(#paint2_linear)"/>
<path d="M59.8675 10.6925C59.3577 10.2448 58.7022 9.99399 58.0212 9.98609C57.6405 9.99129 57.2646 10.0712 56.9153 10.2212C56.5659 10.3711 56.25 10.5882 55.9857 10.8599C55.7215 11.1316 55.5141 11.4524 55.3756 11.804C55.2371 12.1555 55.1702 12.5308 55.1788 12.9081C55.1691 13.2853 55.2353 13.6606 55.3735 14.0122C55.5117 14.3637 55.7191 14.6845 55.9837 14.9557C56.2483 15.227 56.5647 15.4433 56.9145 15.592C57.2644 15.7408 57.6405 15.8189 58.0212 15.822C58.3176 15.8495 58.6166 15.8177 58.9005 15.7286C59.1844 15.6395 59.4473 15.4949 59.6738 15.3033C59.9003 15.1117 60.0857 14.877 60.2192 14.6131C60.3526 14.3493 60.4312 14.0615 60.4505 13.767H58.3046V12.8438H61.6571C61.6571 15.509 60.2238 16.7693 58.0374 16.7693C57.0255 16.7237 56.0704 16.2932 55.3706 15.5673C54.6708 14.8414 54.2803 13.876 54.2803 12.8719C54.2803 11.8679 54.6708 10.9025 55.3706 10.1766C56.0704 9.45066 57.0255 9.02017 58.0374 8.97463C58.9982 8.97137 59.9245 9.33003 60.6287 9.97806L59.8675 10.6925Z" fill="white"/>
<path d="M67.5924 9.09521V10.0505H64.0941V12.4587H67.147V13.422H64.0941V15.7339H67.7058V16.6892H63.0576V9.09521H67.5924Z" fill="white"/>
<path d="M74.2978 9.09521V10.0665H71.9737V16.6892H70.9291V10.0665H68.605V9.09521H74.2978Z" fill="white"/>
<path d="M79.2616 9.09521V16.6892H78.2251V9.09521H79.2616Z" fill="white"/>
<path d="M86.3149 9.09521V10.0665H83.9908V16.6892H82.9462V10.0665H80.6221V9.09521H86.3149Z" fill="white"/>
<path d="M93.6113 9.00688C94.3923 8.99413 95.1595 9.21206 95.8151 9.63292C96.4708 10.0538 96.9853 10.6585 97.2931 11.3702C97.601 12.0819 97.6882 12.8682 97.5437 13.6292C97.3993 14.3901 97.0297 15.0913 96.4819 15.6433C95.9342 16.1954 95.2332 16.5734 94.468 16.7292C93.7029 16.885 92.9083 16.8116 92.1854 16.5183C91.4625 16.225 90.8439 15.7251 90.4086 15.0822C89.9732 14.4393 89.7406 13.6825 89.7405 12.9082C89.7341 12.3995 89.8294 11.8946 90.0208 11.4226C90.2123 10.9506 90.4961 10.5208 90.856 10.1581C91.2158 9.79541 91.6446 9.50694 92.1175 9.30935C92.5904 9.11176 93.0981 9.00896 93.6113 9.00688ZM93.6113 15.8061C93.9912 15.8052 94.367 15.729 94.7167 15.582C95.0664 15.435 95.383 15.2202 95.6478 14.9502C95.9126 14.6803 96.1203 14.3605 96.2587 14.0099C96.3971 13.6592 96.4634 13.2846 96.4536 12.9082C96.4832 12.5214 96.4318 12.1327 96.3027 11.7665C96.1737 11.4002 95.9697 11.0644 95.7037 10.7799C95.4376 10.4955 95.1151 10.2685 94.7565 10.1133C94.3978 9.95814 94.0107 9.87804 93.6194 9.87804C93.2281 9.87804 92.841 9.95814 92.4823 10.1133C92.1237 10.2685 91.8012 10.4955 91.5351 10.7799C91.2691 11.0644 91.0651 11.4002 90.9361 11.7665C90.807 12.1327 90.7556 12.5214 90.7852 12.9082C90.7755 13.2833 90.8412 13.6565 90.9786 14.0062C91.116 14.3558 91.3222 14.6748 91.5853 14.9445C91.8484 15.2143 92.163 15.4294 92.5109 15.5773C92.8587 15.7253 93.2328 15.803 93.6113 15.8061Z" fill="white"/>
<path d="M103.652 16.6892L100.162 10.9656V16.6892H99.1255V9.09521H100.146L103.604 14.7706V9.09521H104.64V16.6892H103.652Z" fill="white"/>
<defs>
<linearGradient id="paint0_linear" x1="40.6435" y1="25.8562" x2="9.15094" y2="25.8562" gradientUnits="userSpaceOnUse">
<stop stop-color="#FEE000"/>
<stop offset="0.42" stop-color="#FBBC0E"/>
<stop offset="0.78" stop-color="#FAA418"/>
<stop offset="1" stop-color="#F99B1C"/>
</linearGradient>
<linearGradient id="paint1_linear" x1="32.4726" y1="28.8183" x2="3.11748" y2="58.431" gradientUnits="userSpaceOnUse">
<stop stop-color="#EF4547"/>
<stop offset="1" stop-color="#C6186D"/>
</linearGradient>
<linearGradient id="paint2_linear" x1="2.72053" y1="-6.59062" x2="26.6895" y2="17.5886" gradientUnits="userSpaceOnUse">
<stop stop-color="#279E6F"/>
<stop offset="0.04" stop-color="#2BA06F"/>
<stop offset="0.46" stop-color="#53B26C"/>
<stop offset="0.8" stop-color="#6BBD6A"/>
<stop offset="1" stop-color="#74C169"/>
</linearGradient>
</defs>
</svg>
