<svg width="63" height="64" viewBox="0 0 63 64" fill="none" xmlns="http://www.w3.org/2000/svg">
<path d="M31.5002 19.3304C24.5173 19.3304 18.8817 25.0008 18.8817 32.0268C18.8817 39.0528 24.5173 44.7231 31.5002 44.7231C38.4831 44.7231 44.1186 39.0528 44.1186 32.0268C44.1186 25.0008 38.4831 19.3304 31.5002 19.3304ZM31.5002 40.2785C26.9844 40.2785 23.2991 36.5705 23.2991 32.0268C23.2991 27.4831 26.9844 23.7751 31.5002 23.7751C36.016 23.7751 39.7013 27.4831 39.7013 32.0268C39.7013 36.5705 36.016 40.2785 31.5002 40.2785ZM44.6354 15.8515C43.0051 15.8515 41.6885 17.1762 41.6885 18.8166C41.6885 20.4571 43.0051 21.7818 44.6354 21.7818C46.2658 21.7818 47.5824 20.4633 47.5824 18.8166C47.5829 18.4271 47.507 18.0413 47.3591 17.6813C47.2111 17.3214 46.9941 16.9943 46.7203 16.7189C46.4466 16.4434 46.1215 16.225 45.7638 16.0762C45.406 15.9273 45.0226 15.851 44.6354 15.8515ZM56.0973 32.0268C56.0973 28.6097 56.128 25.2236 55.9373 21.8128C55.7466 17.8509 54.8483 14.3348 51.969 11.4378C49.0836 8.53451 45.5952 7.63692 41.6577 7.44502C38.2616 7.25312 34.8963 7.28407 31.5063 7.28407C28.1102 7.28407 24.7449 7.25312 21.355 7.44502C17.4175 7.63692 13.9229 8.5407 11.0436 11.4378C8.15818 14.341 7.26609 17.8509 7.07537 21.8128C6.88464 25.2298 6.9154 28.6159 6.9154 32.0268C6.9154 35.4377 6.88464 38.8299 7.07537 42.2408C7.26609 46.2026 8.16433 49.7187 11.0436 52.6158C13.9291 55.5191 17.4175 56.4167 21.355 56.6086C24.7511 56.8004 28.1164 56.7695 31.5063 56.7695C34.9024 56.7695 38.2678 56.8004 41.6577 56.6086C45.5952 56.4167 49.0897 55.5129 51.969 52.6158C54.8545 49.7125 55.7466 46.2026 55.9373 42.2408C56.1342 38.8299 56.0973 35.4438 56.0973 32.0268ZM50.6832 46.6236C50.2341 47.7502 49.6927 48.5921 48.8252 49.4587C47.9577 50.3316 47.1271 50.8763 46.0074 51.3282C42.7713 52.622 35.087 52.331 31.5002 52.331C27.9134 52.331 20.2229 52.622 16.9868 51.3344C15.8671 50.8825 15.0303 50.3378 14.169 49.4649C13.3015 48.5921 12.7601 47.7564 12.311 46.6298C11.0313 43.3675 11.3205 35.6357 11.3205 32.0268C11.3205 28.4178 11.0313 20.6799 12.311 17.4238C12.7601 16.2972 13.3015 15.4553 14.169 14.5886C15.0365 13.722 15.8671 13.1711 16.9868 12.7192C20.2229 11.4316 27.9134 11.7225 31.5002 11.7225C35.087 11.7225 42.7774 11.4316 46.0136 12.7192C47.1333 13.1711 47.97 13.7158 48.8313 14.5886C49.6988 15.4615 50.2402 16.2972 50.6893 17.4238C51.969 20.6799 51.6799 28.4178 51.6799 32.0268C51.6799 35.6357 51.969 43.3675 50.6832 46.6236Z" fill="black"/>
</svg>
