<svg width="88" height="88" viewBox="0 0 88 88" fill="none" xmlns="http://www.w3.org/2000/svg">
<path d="M44 88C68.3005 88 88 68.3005 88 44C88 19.6995 68.3005 0 44 0C19.6995 0 0 19.6995 0 44C0 68.3005 19.6995 88 44 88Z" fill="#238DC1"/>
<path d="M54.3594 49.2383C53.6962 49.2383 53.1582 49.7761 53.1582 50.4395C53.1582 52.6711 52.4116 54.4456 50.9392 55.714C50.4365 56.147 50.3802 56.9055 50.8131 57.4082C51.0505 57.6841 51.3862 57.8255 51.7237 57.8255C52.0012 57.8255 52.2802 57.7298 52.507 57.5342C54.5333 55.7888 55.5606 53.4018 55.5606 50.4395C55.5606 49.7761 55.0228 49.2383 54.3594 49.2383Z" fill="white"/>
<path d="M52.7993 33.9872C49.1298 28.7337 45.4074 24.4542 45.3702 24.4117C45.1422 24.1501 44.8119 24 44.465 24C44.1181 24 43.7881 24.1501 43.5597 24.4117C43.5228 24.4542 39.8001 28.7337 36.1306 33.9872C31.1101 41.1749 28.5645 46.7103 28.5645 50.4395C28.5645 54.8013 30.1976 58.5134 33.2872 61.1747C36.1509 63.6415 40.1207 65 44.465 65C48.8095 65 52.7793 63.6415 55.6431 61.1744C58.7326 58.513 60.3655 54.801 60.3655 50.4395C60.3655 46.7103 57.8199 41.1749 52.7993 33.9872ZM54.075 59.3545C51.6473 61.4459 48.2343 62.5977 44.465 62.5977C40.6957 62.5977 37.283 61.4459 34.855 59.3545C32.3112 57.1633 30.9668 54.0806 30.9668 50.4395C30.9668 47.2602 33.4292 42.0529 38.0881 35.3802C40.6081 31.7707 43.1543 28.6298 44.465 27.0586C45.7731 28.6264 48.3118 31.7576 50.8299 35.363C55.4967 42.0439 57.9631 47.2574 57.9631 50.4395C57.9631 54.0806 56.6187 57.1633 54.075 59.3545Z" fill="white"/>
</svg>
