<svg width="84" height="80" viewBox="0 0 84 80" fill="none" xmlns="http://www.w3.org/2000/svg">
<g filter="url(#filter0_d)">
<rect x="4" width="76" height="72" rx="12" fill="white"/>
</g>
<path d="M58.3402 11.2C63.4735 11.2 67.6169 15.38 67.6169 20.4767V52.2667C67.6169 57.4 63.4369 61.5433 58.3402 61.5433H26.4769C21.3802 61.58 17.2002 57.4367 17.2002 52.3033V20.4767C17.2002 15.3433 21.3802 11.2 26.4769 11.2H58.3402Z" stroke="#238DC1" stroke-miterlimit="10"/>
<path d="M42.3902 18.6067C47.1202 18.6067 51.5936 20.44 54.9302 23.7767C58.2669 27.1133 60.1002 31.5867 60.1002 36.3167C60.1002 41.0467 58.2669 45.52 54.9302 48.8567C51.5936 52.1933 47.1202 54.1 42.3902 54.1C37.6602 54.1 33.1869 52.2667 29.8502 48.93C26.5136 45.5933 24.6436 41.12 24.6436 36.39C24.6436 31.66 26.4769 27.1867 29.8136 23.85C33.1502 20.5133 37.6602 18.6067 42.3902 18.6067Z" stroke="#238DC1" stroke-miterlimit="10"/>
<path d="M42.39 31.8067C39.8233 31.8067 37.8066 33.86 37.8066 36.39C37.8066 38.9567 39.86 40.9733 42.39 40.9733C44.9566 40.9733 46.9733 38.92 46.9733 36.39C46.9733 33.86 44.92 31.8067 42.39 31.8067Z" stroke="#238DC1" stroke-miterlimit="10"/>
<path d="M42.3896 25.83C43.4629 25.83 44.333 24.9599 44.333 23.8867C44.333 22.8134 43.4629 21.9433 42.3896 21.9433C41.3163 21.9433 40.4463 22.8134 40.4463 23.8867C40.4463 24.9599 41.3163 25.83 42.3896 25.83Z" fill="#238DC1" stroke="#238DC1" stroke-miterlimit="10"/>
<path d="M44.2232 49.8467C44.2232 50.8367 43.3799 51.6433 42.4265 51.6433C41.4365 51.6433 40.6299 50.8 40.6299 49.8467C40.6299 48.8567 42.4265 46.95 42.4265 46.95C42.4265 46.95 44.2232 48.8567 44.2232 49.8467Z" fill="#238DC1" stroke="#238DC1" stroke-miterlimit="10"/>
<defs>
<filter id="filter0_d" x="0" y="0" width="84" height="80" filterUnits="userSpaceOnUse" color-interpolation-filters="sRGB">
<feFlood flood-opacity="0" result="BackgroundImageFix"/>
<feColorMatrix in="SourceAlpha" type="matrix" values="0 0 0 0 0 0 0 0 0 0 0 0 0 0 0 0 0 0 127 0"/>
<feOffset dy="4"/>
<feGaussianBlur stdDeviation="2"/>
<feColorMatrix type="matrix" values="0 0 0 0 0 0 0 0 0 0 0 0 0 0 0 0 0 0 0.3 0"/>
<feBlend mode="normal" in2="BackgroundImageFix" result="effect1_dropShadow"/>
<feBlend mode="normal" in="SourceGraphic" in2="effect1_dropShadow" result="shape"/>
</filter>
</defs>
</svg>
