<svg width="84" height="80" viewBox="0 0 84 80" fill="none" xmlns="http://www.w3.org/2000/svg">
<g filter="url(#filter0_d)">
<rect x="4" width="76" height="72" rx="12" fill="white"/>
</g>
<path d="M67.1268 52.0466C67.1268 57.064 63.0635 61.092 58.0815 61.092H56.1381H55.2195H52.3221H26.9528C21.9708 61.092 17.9075 57.0286 17.9075 52.0113V20.9533C17.8721 15.936 21.9708 11.8727 26.9528 11.8727H51.5801H52.3221H55.2195H58.0461C63.0635 11.8727 67.0915 15.936 67.0915 20.918L67.1268 52.0466Z" stroke="#238DC1" stroke-miterlimit="10"/>
<path d="M42.4999 19.54C33.1365 19.54 25.5752 27.1367 25.5752 36.4647C25.5752 45.7927 33.1719 53.3893 42.4999 53.3893C51.8279 53.3893 59.4952 45.7927 59.4952 36.4647C59.4952 27.1367 51.8632 19.54 42.4999 19.54Z" stroke="#238DC1" stroke-miterlimit="10"/>
<path d="M44.1966 24.7693H40.2393V32.896H44.1966V24.7693Z" fill="#238DC1" stroke="#238DC1" stroke-miterlimit="10"/>
<path d="M36.9877 41.164H31.6523V43.6727H36.9877V41.164Z" fill="#238DC1" stroke="#238DC1" stroke-miterlimit="10"/>
<path d="M54.4427 41.164H49.1074V43.6727H54.4427V41.164Z" fill="#238DC1" stroke="#238DC1" stroke-miterlimit="10"/>
<defs>
<filter id="filter0_d" x="0" y="0" width="84" height="80" filterUnits="userSpaceOnUse" color-interpolation-filters="sRGB">
<feFlood flood-opacity="0" result="BackgroundImageFix"/>
<feColorMatrix in="SourceAlpha" type="matrix" values="0 0 0 0 0 0 0 0 0 0 0 0 0 0 0 0 0 0 127 0"/>
<feOffset dy="4"/>
<feGaussianBlur stdDeviation="2"/>
<feColorMatrix type="matrix" values="0 0 0 0 0 0 0 0 0 0 0 0 0 0 0 0 0 0 0.3 0"/>
<feBlend mode="normal" in2="BackgroundImageFix" result="effect1_dropShadow"/>
<feBlend mode="normal" in="SourceGraphic" in2="effect1_dropShadow" result="shape"/>
</filter>
</defs>
</svg>
