<svg width="88" height="88" viewBox="0 0 88 88" fill="none" xmlns="http://www.w3.org/2000/svg">
<path d="M44 88C68.3005 88 88 68.3005 88 44C88 19.6995 68.3005 0 44 0C19.6995 0 0 19.6995 0 44C0 68.3005 19.6995 88 44 88Z" fill="#238DC1"/>
<path d="M62.4167 22H26.5833C24.6053 22.0023 23.0023 23.6053 23 25.5833V61.4167C23.0023 63.3947 24.6053 64.9977 26.5833 65H62.4167C64.3947 64.9977 65.9977 63.3947 66 61.4167V25.5833C65.9977 23.6053 64.3947 22.0023 62.4167 22ZM64.5667 61.4167C64.5667 62.6041 63.6041 63.5667 62.4167 63.5667H26.5833C25.3959 63.5667 24.4333 62.6041 24.4333 61.4167V25.5833C24.4333 24.3959 25.3959 23.4333 26.5833 23.4333H62.4167C63.6041 23.4333 64.5667 24.3959 64.5667 25.5833V61.4167Z" fill="white"/>
<path d="M44.4999 27.0167C35.3965 27.0167 28.0166 34.3965 28.0166 43.5C28.0166 52.6035 35.3965 59.9833 44.4999 59.9833C53.5992 59.973 60.973 52.5992 60.9833 43.5C60.9833 34.3965 53.6034 27.0167 44.4999 27.0167ZM44.4999 58.55C36.188 58.55 29.4499 51.8119 29.4499 43.5C29.4499 35.1881 36.188 28.45 44.4999 28.45C52.8081 28.459 59.5409 35.1919 59.5499 43.5C59.5499 51.8119 52.8118 58.55 44.4999 58.55Z" fill="white"/>
<path d="M54.3853 34.1338C54.1095 33.8499 53.6559 33.8431 53.3718 34.1188C53.0877 34.3944 53.0811 34.8482 53.3567 35.1322C54.0081 35.8222 54.5764 36.5861 55.0502 37.4083C55.1783 37.6303 55.4153 37.7669 55.6716 37.7666C55.7974 37.7666 55.921 37.7335 56.0299 37.6706C56.3727 37.4727 56.4901 37.0344 56.2922 36.6916C55.762 35.7731 55.1266 34.9196 54.3988 34.1482C54.3944 34.1433 54.3899 34.1385 54.3853 34.1338Z" fill="white"/>
<path d="M51.6818 33.5025V33.5046C51.922 33.5052 52.1465 33.3854 52.2797 33.1855C52.4992 32.8562 52.4103 32.4113 52.081 32.1917C47.7738 29.2853 42.1839 29.0979 37.6917 31.7094C37.3488 31.9073 37.2312 32.3458 37.4291 32.6887C37.627 33.0316 38.0655 33.1493 38.4084 32.9514C42.4277 30.614 47.4297 30.7809 51.284 33.3814C51.4018 33.4601 51.5402 33.5023 51.6818 33.5025Z" fill="white"/>
<path d="M38.0503 40.6333C36.4671 40.6333 35.1836 41.9168 35.1836 43.5C35.1836 45.0832 36.4671 46.3666 38.0503 46.3666C39.6335 46.3666 40.9169 45.0832 40.9169 43.5C40.9169 41.9168 39.6335 40.6333 38.0503 40.6333ZM38.0503 44.9333C37.2586 44.9333 36.6169 44.2916 36.6169 43.5C36.6169 42.7083 37.2586 42.0666 38.0503 42.0666C38.8419 42.0666 39.4836 42.7083 39.4836 43.5C39.4836 44.2916 38.8419 44.9333 38.0503 44.9333Z" fill="white"/>
<path d="M50.9497 40.6333C49.3665 40.6333 48.083 41.9168 48.083 43.5C48.083 45.0832 49.3665 46.3666 50.9497 46.3666C52.5329 46.3666 53.8163 45.0832 53.8163 43.5C53.8163 41.9168 52.5329 40.6333 50.9497 40.6333ZM50.9497 44.9333C50.158 44.9333 49.5163 44.2916 49.5163 43.5C49.5163 42.7083 50.158 42.0666 50.9497 42.0666C51.7413 42.0666 52.383 42.7083 52.383 43.5C52.383 44.2916 51.7413 44.9333 50.9497 44.9333Z" fill="white"/>
</svg>
