<svg width="88" height="88" viewBox="0 0 88 88" fill="none" xmlns="http://www.w3.org/2000/svg">
<path d="M44 88C68.3005 88 88 68.3005 88 44C88 19.6995 68.3005 0 44 0C19.6995 0 0 19.6995 0 44C0 68.3005 19.6995 88 44 88Z" fill="#238DC1"/>
<g clip-path="url(#clip0)">
<path d="M71.4957 39.114L44.3758 23.6032C42.284 22.4049 39.4208 23.0509 38.0419 25.0243L32.7881 32.5349C32.2724 33.2729 32 34.138 32 35.0381C32 36.5933 32.836 38.0418 34.1806 38.8178L39.9003 42.1209L38.867 43.4997C38.3074 44.2454 37.9999 45.1701 37.9999 46.1026C37.9999 47.0616 38.351 47.9636 38.9167 48.7093L37.3944 50.9999H30V47.9901C30 47.4369 29.5527 47 28.9999 47H25C24.4473 47 24 47.4369 24 47.9901V57.999C24 58.5522 24.4473 58.9999 25 58.9999H29C29.5528 58.9999 30 58.5522 30 57.999V56.9999H37.3945C39.4053 56.9999 41.2714 56.0011 42.3867 54.3269L44.0258 51.8659C44.3414 51.9345 44.6598 51.9966 44.9852 51.9966C46.577 51.9966 48.075 51.1482 48.8934 49.7818L49.9922 47.9489L58.5027 52.8637C58.656 52.9527 58.8289 52.9976 59.0027 52.9976C59.0993 52.9976 59.1961 52.9839 59.2908 52.9556C59.5545 52.8754 59.7742 52.6907 59.8973 52.4444L60.6376 50.9604C60.7591 50.9696 60.876 50.9959 60.9997 50.9959C64.8591 50.9959 67.9997 47.8524 67.9997 43.9896C67.9997 43.5654 67.9371 43.1282 67.844 42.6813L71.447 40.8784C71.7771 40.7133 71.9889 40.38 71.9997 40.0105C72.0094 39.6418 71.8161 39.2968 71.4957 39.114ZM28 56.9999H26V49H27.9999V56.9999H28ZM40.7225 53.2217C39.9794 54.3369 38.7352 55.0029 37.3944 55.0029H30V53.0029H37.3944C38.0663 53.0029 38.6884 52.6699 39.0585 52.1123L40.4432 50.0345L42.1605 51.0646L40.7225 53.2217ZM47.1786 48.7607C46.4794 49.9237 44.8339 50.3378 43.6698 49.6376L41.1337 48.1162C40.4345 47.6972 39.9999 46.9297 39.9999 46.1142C39.9999 45.6123 40.1659 45.1152 40.4667 44.7129L41.6445 43.1425L48.2595 46.9591L47.1786 48.7607ZM58.5827 50.6064L35.1796 37.1035C34.4521 36.6836 34 35.9004 34 35.0596C34 34.5723 34.1474 34.1045 34.4267 33.7051L36.9374 30.1192L61.6841 44.3957L58.5827 50.6064ZM61.6516 48.9369L63.7448 44.745L65.9662 43.6345C65.9774 43.7572 65.9997 43.8842 65.9997 44.0029C65.9997 46.5365 64.0982 48.6135 61.6516 48.9369ZM63.0336 42.8649L38.089 28.4744L39.6806 26.2013C40.207 25.4494 41.0683 25.0001 41.9863 25.0001C42.4755 25.0001 42.9589 25.1281 43.3837 25.3712L68.8815 39.9414L63.0336 42.8649Z" fill="white"/>
<path d="M57 47C57.5523 47 58.0001 46.5523 58.0001 46C58.0001 45.4477 57.5523 44.9999 57 44.9999C56.4477 44.9999 56 45.4477 56 46C56 46.5523 56.4477 47 57 47Z" fill="white"/>
</g>
<defs>
<clipPath id="clip0">
<rect x="24" y="17" width="48" height="48" fill="white"/>
</clipPath>
</defs>
</svg>
