<svg width="84" height="80" viewBox="0 0 84 80" fill="none" xmlns="http://www.w3.org/2000/svg">
<g filter="url(#filter0_d)">
<rect x="4" width="76" height="72" rx="12" fill="white"/>
</g>
<path d="M57.5523 11.988C62.5203 11.988 66.4803 16.02 66.4803 20.916V51.516C66.4803 56.448 62.4843 60.444 57.5523 60.444H26.9163C22.0203 60.48 17.9883 56.484 17.9883 51.552V20.916C17.9883 16.02 21.9843 11.988 26.9163 11.988H57.5523Z" stroke="#238DC1" stroke-miterlimit="10"/>
<path d="M52.1882 45.756C52.1882 48.276 50.1722 50.292 47.6522 50.292C45.1322 50.292 43.1162 48.276 43.1162 45.756C43.1162 43.236 47.6522 38.448 47.6522 38.448C47.6522 38.448 52.1882 43.236 52.1882 45.756Z" fill="#238DC1" stroke="#238DC1" stroke-miterlimit="10"/>
<path d="M50.532 38.124C50.532 42.912 46.68 46.764 41.892 46.764C37.104 46.764 33.252 42.912 33.252 38.124C33.252 34.956 36.528 31.716 38.508 29.196C40.812 26.244 41.892 24.192 41.892 24.192C41.892 24.192 42.828 26.172 45.06 29.052C47.148 31.644 50.532 34.956 50.532 38.124Z" stroke="#238DC1" stroke-miterlimit="10"/>
<path d="M36.6357 37.332C36.6357 37.332 36.7437 39.636 38.1837 40.86C39.6237 42.084 41.5317 42.3 41.5317 42.3" stroke="#238DC1" stroke-miterlimit="10"/>
<defs>
<filter id="filter0_d" x="0" y="0" width="84" height="80" filterUnits="userSpaceOnUse" color-interpolation-filters="sRGB">
<feFlood flood-opacity="0" result="BackgroundImageFix"/>
<feColorMatrix in="SourceAlpha" type="matrix" values="0 0 0 0 0 0 0 0 0 0 0 0 0 0 0 0 0 0 127 0"/>
<feOffset dy="4"/>
<feGaussianBlur stdDeviation="2"/>
<feColorMatrix type="matrix" values="0 0 0 0 0 0 0 0 0 0 0 0 0 0 0 0 0 0 0.3 0"/>
<feBlend mode="normal" in2="BackgroundImageFix" result="effect1_dropShadow"/>
<feBlend mode="normal" in="SourceGraphic" in2="effect1_dropShadow" result="shape"/>
</filter>
</defs>
</svg>
