<svg width="84" height="80" viewBox="0 0 84 80" fill="none" xmlns="http://www.w3.org/2000/svg">
<g filter="url(#filter0_d)">
<rect x="4" width="76" height="72" rx="12" fill="white"/>
</g>
<path d="M42.7417 24.4738C46.1359 24.4738 48.8731 27.2111 48.8731 30.6052C48.8731 33.9994 46.1359 36.7366 42.7417 36.7366C39.3476 36.7366 36.6104 33.9994 36.6104 30.6052C36.6104 27.2111 39.3841 24.4738 42.7417 24.4738Z" stroke="#238DC1" stroke-miterlimit="10"/>
<path d="M52.9252 12.868C54.312 21.1162 55.042 28.1235 55.042 30.6052C55.042 37.357 49.531 42.868 42.7792 42.868C36.0274 42.868 30.4799 37.3935 30.4799 30.6052C30.4799 28.1235 31.2098 21.1162 32.5967 12.868C35.5894 11.1527 39.0566 10.1673 42.7427 10.1673C46.4653 10.1673 49.896 11.1527 52.9252 12.868ZM22.3047 30.6052C22.3047 24.0359 25.4434 18.16 30.2609 14.4008C29.0566 21.9921 28.3996 28.16 28.3996 30.6052C28.3996 38.4884 34.823 44.9118 42.7062 44.9118C50.5894 44.9118 57.0128 38.4884 57.0128 30.6052C57.0128 28.1965 56.3923 21.9921 55.1514 14.4008C60.0055 18.1235 63.1076 23.9994 63.1076 30.6052C63.1441 41.8826 53.9471 51.0432 42.6697 51.0432C31.3923 51.0432 22.3047 41.8826 22.3047 30.6052ZM63.7646 58.1964C63.1076 58.9264 62.4142 59.5833 61.6843 60.2402C60.6259 61.1891 59.0201 61.2256 57.9252 60.3862C53.5456 56.9556 48.3266 55.1672 42.7792 55.1672C37.2317 55.1672 32.0128 56.9921 27.6332 60.3862C26.5383 61.2621 24.9325 61.1891 23.8741 60.2402C23.1442 59.6198 22.4507 58.9264 21.7938 58.1964C20.7354 57.0651 20.7354 55.2767 21.7938 54.1089C23.8741 51.8461 26.3193 49.9483 29.1296 48.4154C32.9252 51.3351 37.6697 53.0505 42.8157 53.0505C47.9617 53.0505 52.7062 51.3351 56.5018 48.4154C59.2755 49.9483 61.7573 51.8461 63.8376 54.1089C64.823 55.2767 64.823 57.0651 63.7646 58.1964Z" stroke="#238DC1" stroke-miterlimit="10"/>
<defs>
<filter id="filter0_d" x="0" y="0" width="84" height="80" filterUnits="userSpaceOnUse" color-interpolation-filters="sRGB">
<feFlood flood-opacity="0" result="BackgroundImageFix"/>
<feColorMatrix in="SourceAlpha" type="matrix" values="0 0 0 0 0 0 0 0 0 0 0 0 0 0 0 0 0 0 127 0"/>
<feOffset dy="4"/>
<feGaussianBlur stdDeviation="2"/>
<feColorMatrix type="matrix" values="0 0 0 0 0 0 0 0 0 0 0 0 0 0 0 0 0 0 0.3 0"/>
<feBlend mode="normal" in2="BackgroundImageFix" result="effect1_dropShadow"/>
<feBlend mode="normal" in="SourceGraphic" in2="effect1_dropShadow" result="shape"/>
</filter>
</defs>
</svg>
